Bungee_Layers-Shade.ufo
<glyph name="exclam" format="1">
  <advance width="424"/>
  <unicode hex="0021"/>
  <outline>
    <contour>
      <point x="175.0" y="-119" type="line" smooth="yes"/>
      <point x="189.0" y="-119"/>
      <point x="200.0" y="-115"/>
      <point x="207.0" y="-109" type="curve"/>
      <point x="337.0" y="-1" type="line" smooth="yes"/>
      <point x="345.0" y="7"/>
      <point x="350.0" y="18"/>
      <point x="350.0" y="36" type="curve" smooth="yes"/>
      <point x="350.0" y="167" type="line" smooth="yes"/>
      <point x="350.0" y="200"/>
      <point x="336.0" y="213"/>
      <point x="304.0" y="213" type="curve" smooth="yes"/>
      <point x="264.0" y="213" type="line"/>
      <point x="323.0" y="262" type="line" smooth="yes"/>
      <point x="331.0" y="270"/>
      <point x="336.0" y="281"/>
      <point x="337.0" y="297" type="curve" smooth="yes"/>
      <point x="351.0" y="684" type="line" smooth="yes"/>
      <point x="352.0" y="716"/>
      <point x="339.0" y="730"/>
      <point x="307.0" y="730" type="curve" smooth="yes"/>
      <point x="116.0" y="730" type="line" smooth="yes"/>
      <point x="102.0" y="730"/>
      <point x="92.0" y="727"/>
      <point x="85.0" y="721" type="curve" smooth="yes"/>
      <point x="-44.0" y="613" type="line" smooth="yes"/>
      <point x="-53.0" y="605"/>
      <point x="-58.0" y="593"/>
      <point x="-57.0" y="574" type="curve" smooth="yes"/>
      <point x="-42.0" y="189" type="line" smooth="yes"/>
      <point x="-41.0" y="157"/>
      <point x="-27.0" y="143"/>
      <point x="5.0" y="143" type="curve" smooth="yes"/>
      <point x="16.0" y="143" type="line"/>
      <point x="-42.0" y="95" type="line" smooth="yes"/>
      <point x="-50.0" y="88"/>
      <point x="-55.0" y="76"/>
      <point x="-55.0" y="58" type="curve" smooth="yes"/>
      <point x="-55.0" y="-73" type="line" smooth="yes"/>
      <point x="-55.0" y="-105"/>
      <point x="-41.0" y="-119"/>
      <point x="-9.0" y="-119" type="curve" smooth="yes"/>
    </contour>
  </outline>
</glyph>
<glyph name="quotedbl" format="1">
  <advance width="646"/>
  <unicode hex="0022"/>
  <outline>
    <contour>
      <point x="150.0" y="235" type="curve" smooth="yes"/>
      <point x="225.0" y="298" type="line"/>
      <point x="225.0" y="277" type="line" smooth="yes"/>
      <point x="226.0" y="233"/>
      <point x="234.0" y="226"/>
      <point x="277.0" y="226" type="curve" smooth="yes"/>
      <point x="421.0" y="226" type="line" smooth="yes"/>
      <point x="441.0" y="226"/>
      <point x="452.0" y="229"/>
      <point x="460.0" y="235" type="curve" smooth="yes"/>
      <point x="589.0" y="343" type="line" smooth="yes"/>
      <point x="597.0" y="351"/>
      <point x="601.0" y="362"/>
      <point x="602.0" y="385" type="curve" smooth="yes"/>
      <point x="610.0" y="679" type="line" smooth="yes"/>
      <point x="611.0" y="723"/>
      <point x="604.0" y="730"/>
      <point x="561.0" y="730" type="curve" smooth="yes"/>
      <point x="396.0" y="730" type="line" smooth="yes"/>
      <point x="377.0" y="730"/>
      <point x="365.0" y="728"/>
      <point x="358.0" y="722" type="curve" smooth="yes"/>
      <point x="300.0" y="673" type="line"/>
      <point x="300.0" y="679" type="line" smooth="yes"/>
      <point x="301.0" y="723"/>
      <point x="294.0" y="730"/>
      <point x="251.0" y="730" type="curve" smooth="yes"/>
      <point x="86.0" y="730" type="line" smooth="yes"/>
      <point x="67.0" y="730"/>
      <point x="55.0" y="728"/>
      <point x="48.0" y="722" type="curve" smooth="yes"/>
      <point x="-82.0" y="613" type="line" smooth="yes"/>
      <point x="-91.0" y="605"/>
      <point x="-94.0" y="594"/>
      <point x="-93.0" y="569" type="curve" smooth="yes"/>
      <point x="-85.0" y="277" type="line" smooth="yes"/>
      <point x="-84.0" y="233"/>
      <point x="-76.0" y="226"/>
      <point x="-33.0" y="226" type="curve" smooth="yes"/>
      <point x="111.0" y="226" type="line" smooth="yes"/>
      <point x="131.0" y="226"/>
      <point x="142.0" y="229"/>
    </contour>
  </outline>
</glyph>
<glyph name="dollar" format="1">
  <advance width="650"/>
  <unicode hex="0024"/>
  <outline>
    <contour>
      <point x="276" y="-209" type="line" smooth="yes"/>
      <point x="290" y="-209"/>
      <point x="301" y="-205"/>
      <point x="307" y="-199" type="curve"/>
      <point x="437" y="-91" type="line" smooth="yes"/>
      <point x="446" y="-83"/>
      <point x="451" y="-73"/>
      <point x="451" y="-55" type="curve"/>
      <point x="561" y="37" type="line" smooth="yes"/>
      <point x="600" y="69"/>
      <point x="620" y="116"/>
      <point x="620" y="176" type="curve" smooth="yes"/>
      <point x="620" y="281" type="line" smooth="yes"/>
      <point x="620" y="389"/>
      <point x="565" y="434"/>
      <point x="480" y="453" type="curve"/>
      <point x="570" y="528" type="line" smooth="yes"/>
      <point x="579" y="536"/>
      <point x="584" y="547"/>
      <point x="584" y="565" type="curve" smooth="yes"/>
      <point x="584" y="684" type="line" smooth="yes"/>
      <point x="584" y="716"/>
      <point x="570" y="730"/>
      <point x="538" y="730" type="curve" smooth="yes"/>
      <point x="451" y="730" type="line"/>
      <point x="451" y="774" type="line" smooth="yes"/>
      <point x="451" y="806"/>
      <point x="437" y="820"/>
      <point x="405" y="820" type="curve" smooth="yes"/>
      <point x="260" y="820" type="line" smooth="yes"/>
      <point x="246" y="820"/>
      <point x="235" y="817"/>
      <point x="228" y="811" type="curve" smooth="yes"/>
      <point x="99" y="702" type="line" smooth="yes"/>
      <point x="92" y="696"/>
      <point x="86" y="687"/>
      <point x="85" y="671" type="curve"/>
      <point x="-30" y="574" type="line" smooth="yes"/>
      <point x="-68" y="542"/>
      <point x="-88" y="495"/>
      <point x="-88" y="435" type="curve" smooth="yes"/>
      <point x="-88" y="330" type="line" smooth="yes"/>
      <point x="-88" y="233"/>
      <point x="-45" y="187"/>
      <point x="26" y="165" type="curve"/>
      <point x="-74" y="81" type="line" smooth="yes"/>
      <point x="-83" y="73"/>
      <point x="-88" y="62"/>
      <point x="-88" y="44" type="curve" smooth="yes"/>
      <point x="-88" y="-73" type="line" smooth="yes"/>
      <point x="-88" y="-105"/>
      <point x="-74" y="-119"/>
      <point x="-42" y="-119" type="curve" smooth="yes"/>
      <point x="85" y="-119" type="line"/>
      <point x="85" y="-163" type="line" smooth="yes"/>
      <point x="85" y="-195"/>
      <point x="99" y="-209"/>
      <point x="131" y="-209" type="curve" smooth="yes"/>
    </contour>
  </outline>
</glyph>
<glyph name="hyphen" format="1">
  <advance width="420"/>
  <unicode hex="002D"/>
  <outline>
    <contour>
      <point x="215.0" y="138" type="line" smooth="yes"/>
      <point x="228.0" y="138"/>
      <point x="239.0" y="142"/>
      <point x="247.0" y="147" type="curve" smooth="yes"/>
      <point x="376.0" y="256" type="line" smooth="yes"/>
      <point x="385.0" y="264"/>
      <point x="390.0" y="275"/>
      <point x="390.0" y="293" type="curve" smooth="yes"/>
      <point x="390.0" y="427" type="line" smooth="yes"/>
      <point x="390.0" y="460"/>
      <point x="376.0" y="473"/>
      <point x="344.0" y="473" type="curve" smooth="yes"/>
      <point x="76.0" y="473" type="line" smooth="yes"/>
      <point x="62.0" y="473"/>
      <point x="51.0" y="470"/>
      <point x="44.0" y="464" type="curve" smooth="yes"/>
      <point x="-85.0" y="355" type="line" smooth="yes"/>
      <point x="-94.0" y="347"/>
      <point x="-99.0" y="336"/>
      <point x="-99.0" y="318" type="curve" smooth="yes"/>
      <point x="-99.0" y="184" type="line" smooth="yes"/>
      <point x="-99.0" y="151"/>
      <point x="-85.0" y="138"/>
      <point x="-53.0" y="138" type="curve" smooth="yes"/>
    </contour>
  </outline>
</glyph>
<glyph name="three" format="1">
  <advance width="637"/>
  <unicode hex="0033"/>
  <outline>
    <contour>
      <point x="-44.0" y="-119" type="curve" smooth="yes"/>
      <point x="272.0" y="-119" type="line" smooth="yes"/>
      <point x="337.0" y="-119"/>
      <point x="387.0" y="-103"/>
      <point x="421.0" y="-74" type="curve" smooth="yes"/>
      <point x="549.0" y="34" type="line" smooth="yes"/>
      <point x="587.0" y="65"/>
      <point x="605.0" y="110"/>
      <point x="605.0" y="166" type="curve" smooth="yes"/>
      <point x="605.0" y="266" type="line" smooth="yes"/>
      <point x="605.0" y="351"/>
      <point x="577.0" y="399"/>
      <point x="498.0" y="416" type="curve"/>
      <point x="500.0" y="418" type="line" smooth="yes"/>
      <point x="527.0" y="441"/>
      <point x="538.0" y="475"/>
      <point x="538.0" y="519" type="curve" smooth="yes"/>
      <point x="538.0" y="577" type="line" smooth="yes"/>
      <point x="538.0" y="670"/>
      <point x="483.0" y="730"/>
      <point x="364.0" y="730" type="curve" smooth="yes"/>
      <point x="85.0" y="730" type="line" smooth="yes"/>
      <point x="71.0" y="730"/>
      <point x="60.0" y="727"/>
      <point x="53.0" y="721" type="curve" smooth="yes"/>
      <point x="-76.0" y="612" type="line" smooth="yes"/>
      <point x="-85.0" y="604"/>
      <point x="-90.0" y="593"/>
      <point x="-90.0" y="575" type="curve" smooth="yes"/>
      <point x="-90.0" y="456" type="line" smooth="yes"/>
      <point x="-90.0" y="424"/>
      <point x="-76.0" y="410"/>
      <point x="-44.0" y="410" type="curve" smooth="yes"/>
      <point x="81.0" y="410" type="line"/>
      <point x="5.0" y="346" type="line" smooth="yes"/>
      <point x="-4.0" y="338"/>
      <point x="-9.0" y="327"/>
      <point x="-9.0" y="309" type="curve" smooth="yes"/>
      <point x="-9.0" y="202" type="line"/>
      <point x="-9.0" y="178"/>
      <point x="-1.0" y="164"/>
      <point x="17.0" y="159" type="curve"/>
      <point x="-76.0" y="81" type="line" smooth="yes"/>
      <point x="-85.0" y="73"/>
      <point x="-90.0" y="62"/>
      <point x="-90.0" y="44" type="curve" smooth="yes"/>
      <point x="-90.0" y="-73" type="line" smooth="yes"/>
      <point x="-90.0" y="-105"/>
      <point x="-76.0" y="-119"/>
    </contour>
  </outline>
</glyph>
<glyph name="less" format="1">
  <advance width="714"/>
  <unicode hex="003C"/>
  <outline>
    <contour>
      <point x="492.0" y="-54" type="curve" smooth="yes"/>
      <point x="621.0" y="55" type="line" smooth="yes"/>
      <point x="629.0" y="62"/>
      <point x="634.0" y="73"/>
      <point x="634.0" y="90" type="curve" smooth="yes"/>
      <point x="634.0" y="222" type="line" smooth="yes"/>
      <point x="634.0" y="254"/>
      <point x="621.0" y="268"/>
      <point x="590.0" y="273" type="curve"/>
      <point x="407.0" y="322" type="line"/>
      <point x="462.0" y="336" type="line"/>
      <point x="473.0" y="339"/>
      <point x="482.0" y="342"/>
      <point x="489.0" y="348" type="curve" smooth="yes"/>
      <point x="619.0" y="457" type="line" smooth="yes"/>
      <point x="628.0" y="465"/>
      <point x="634.0" y="477"/>
      <point x="634.0" y="496" type="curve" smooth="yes"/>
      <point x="634.0" y="628" type="line" smooth="yes"/>
      <point x="634.0" y="663"/>
      <point x="619.0" y="675"/>
      <point x="586.0" y="669" type="curve"/>
      <point x="204.0" y="560" type="line" smooth="yes"/>
      <point x="168.0" y="549"/>
      <point x="139.0" y="536"/>
      <point x="117.0" y="519" type="curve" smooth="yes"/>
      <point x="-12.0" y="410" type="line" smooth="yes"/>
      <point x="-43.0" y="384"/>
      <point x="-59.0" y="348"/>
      <point x="-59.0" y="286" type="curve" smooth="yes"/>
      <point x="-59.0" y="214" type="line" smooth="yes"/>
      <point x="-59.0" y="109"/>
      <point x="-13.0" y="75"/>
      <point x="75.0" y="49" type="curve" smooth="yes"/>
      <point x="457.0" y="-60" type="line" smooth="yes"/>
      <point x="473.0" y="-63"/>
      <point x="485.0" y="-60"/>
    </contour>
  </outline>
</glyph>
<glyph name="C" format="1">
  <advance width="628"/>
  <unicode hex="0043"/>
  <outline>
    <contour>
      <point x="419.0" y="-119" type="line" smooth="yes"/>
      <point x="433.0" y="-119"/>
      <point x="444.0" y="-115"/>
      <point x="450.0" y="-109" type="curve"/>
      <point x="580.0" y="-1" type="line" smooth="yes"/>
      <point x="589.0" y="7"/>
      <point x="594.0" y="18"/>
      <point x="594.0" y="36" type="curve" smooth="yes"/>
      <point x="594.0" y="155" type="line" smooth="yes"/>
      <point x="594.0" y="187"/>
      <point x="580.0" y="201"/>
      <point x="548.0" y="201" type="curve" smooth="yes"/>
      <point x="347.0" y="201" type="line" smooth="yes"/>
      <point x="314.0" y="201"/>
      <point x="296.0" y="211"/>
      <point x="296.0" y="239" type="curve" smooth="yes"/>
      <point x="296.0" y="408" type="line"/>
      <point x="419.0" y="408" type="line" smooth="yes"/>
      <point x="433.0" y="408"/>
      <point x="444.0" y="412"/>
      <point x="450.0" y="418" type="curve"/>
      <point x="580.0" y="526" type="line" smooth="yes"/>
      <point x="589.0" y="534"/>
      <point x="594.0" y="545"/>
      <point x="594.0" y="563" type="curve" smooth="yes"/>
      <point x="594.0" y="684" type="line" smooth="yes"/>
      <point x="594.0" y="716"/>
      <point x="580.0" y="730"/>
      <point x="548.0" y="730" type="curve" smooth="yes"/>
      <point x="304.0" y="730" type="line" smooth="yes"/>
      <point x="217.0" y="730"/>
      <point x="153.0" y="713"/>
      <point x="112.0" y="678" type="curve" smooth="yes"/>
      <point x="-18.0" y="569" type="line" smooth="yes"/>
      <point x="-60.0" y="533"/>
      <point x="-81.0" y="480"/>
      <point x="-81.0" y="406" type="curve" smooth="yes"/>
      <point x="-81.0" y="95" type="line" smooth="yes"/>
      <point x="-81.0" y="-50"/>
      <point x="-1.0" y="-119"/>
      <point x="175.0" y="-119" type="curve" smooth="yes"/>
    </contour>
  </outline>
</glyph>
<glyph name="E" format="1">
  <advance width="654"/>
  <unicode hex="0045"/>
  <outline>
    <contour>
      <point x="440.0" y="-119" type="line" smooth="yes"/>
      <point x="454.0" y="-119"/>
      <point x="465.0" y="-115"/>
      <point x="471.0" y="-109" type="curve"/>
      <point x="601.0" y="-1" type="line" smooth="yes"/>
      <point x="610.0" y="7"/>
      <point x="615.0" y="18"/>
      <point x="615.0" y="36" type="curve" smooth="yes"/>
      <point x="615.0" y="153" type="line" smooth="yes"/>
      <point x="615.0" y="185"/>
      <point x="601.0" y="199"/>
      <point x="569.0" y="199" type="curve" smooth="yes"/>
      <point x="431.0" y="199" type="line"/>
      <point x="520.0" y="274" type="line" smooth="yes"/>
      <point x="529.0" y="282"/>
      <point x="534.0" y="293"/>
      <point x="534.0" y="311" type="curve" smooth="yes"/>
      <point x="534.0" y="418" type="line" smooth="yes"/>
      <point x="534.0" y="439"/>
      <point x="528.0" y="452"/>
      <point x="515.0" y="459" type="curve"/>
      <point x="601.0" y="530" type="line" smooth="yes"/>
      <point x="610.0" y="538"/>
      <point x="615.0" y="549"/>
      <point x="615.0" y="567" type="curve" smooth="yes"/>
      <point x="615.0" y="684" type="line" smooth="yes"/>
      <point x="615.0" y="716"/>
      <point x="601.0" y="730"/>
      <point x="569.0" y="730" type="curve" smooth="yes"/>
      <point x="105.0" y="730" type="line" smooth="yes"/>
      <point x="91.0" y="730"/>
      <point x="80.0" y="727"/>
      <point x="73.0" y="721" type="curve" smooth="yes"/>
      <point x="-56.0" y="612" type="line" smooth="yes"/>
      <point x="-65.0" y="604"/>
      <point x="-70.0" y="593"/>
      <point x="-70.0" y="575" type="curve" smooth="yes"/>
      <point x="-70.0" y="-73" type="line" smooth="yes"/>
      <point x="-70.0" y="-105"/>
      <point x="-56.0" y="-119"/>
      <point x="-24.0" y="-119" type="curve" smooth="yes"/>
    </contour>
  </outline>
</glyph>
<glyph name="Q" format="1">
  <advance width="737"/>
  <unicode hex="0051"/>
  <outline>
    <contour>
      <point x="316.0" y="-209" type="line" smooth="yes"/>
      <point x="330.0" y="-209"/>
      <point x="341.0" y="-205"/>
      <point x="347.0" y="-199" type="curve"/>
      <point x="477.0" y="-91" type="line" smooth="yes"/>
      <point x="483.0" y="-86"/>
      <point x="487.0" y="-80"/>
      <point x="489.0" y="-70" type="curve"/>
      <point x="493.0" y="-68"/>
      <point x="496.0" y="-65"/>
      <point x="500.0" y="-62" type="curve"/>
      <point x="629.0" y="46" type="line" smooth="yes"/>
      <point x="674.0" y="84"/>
      <point x="689.0" y="136"/>
      <point x="689.0" y="198" type="curve" smooth="yes"/>
      <point x="689.0" y="530" type="line" smooth="yes"/>
      <point x="689.0" y="656"/>
      <point x="631.0" y="745"/>
      <point x="369.0" y="745" type="curve" smooth="yes"/>
      <point x="235.0" y="745"/>
      <point x="156.0" y="722"/>
      <point x="109.0" y="682" type="curve" smooth="yes"/>
      <point x="-21.0" y="574" type="line" smooth="yes"/>
      <point x="-66.0" y="536"/>
      <point x="-81" y="483"/>
      <point x="-81.0" y="421" type="curve" smooth="yes"/>
      <point x="-81" y="119" type="line" smooth="yes"/>
      <point x="-81" y="15"/>
      <point x="-40.0" y="-91"/>
      <point x="116.0" y="-117" type="curve"/>
      <point x="116.0" y="-163" type="line" smooth="yes"/>
      <point x="116.0" y="-195"/>
      <point x="130.0" y="-209"/>
      <point x="162.0" y="-209" type="curve" smooth="yes"/>
    </contour>
    <contour>
      <point x="295.0" y="220" type="curve" smooth="yes"/>
      <point x="295.0" y="413" type="line"/>
      <point x="310.0" y="407"/>
      <point x="314.0" y="397"/>
      <point x="314.0" y="384" type="curve" smooth="yes"/>
      <point x="314.0" y="190" type="line"/>
      <point x="299.0" y="197"/>
      <point x="295.0" y="207"/>
    </contour>
  </outline>
</glyph>
<glyph name="macron" format="1">
  <advance width="500"/>
  <unicode hex="00AF"/>
  <outline>
    <contour>
      <point x="294.0" y="641" type="line" smooth="yes"/>
      <point x="308.0" y="641"/>
      <point x="319.0" y="645"/>
      <point x="325.0" y="651" type="curve"/>
      <point x="455.0" y="759" type="line" smooth="yes"/>
      <point x="464.0" y="767"/>
      <point x="469.0" y="778"/>
      <point x="469.0" y="796" type="curve" smooth="yes"/>
      <point x="469.0" y="889" type="line" smooth="yes"/>
      <point x="469.0" y="921"/>
      <point x="455.0" y="935"/>
      <point x="423.0" y="935" type="curve" smooth="yes"/>
      <point x="76.0" y="935" type="line" smooth="yes"/>
      <point x="62.0" y="935"/>
      <point x="51.0" y="932"/>
      <point x="44.0" y="926" type="curve" smooth="yes"/>
      <point x="-85.0" y="817" type="line" smooth="yes"/>
      <point x="-94.0" y="809"/>
      <point x="-99.0" y="798"/>
      <point x="-99.0" y="780" type="curve" smooth="yes"/>
      <point x="-99.0" y="687" type="line" smooth="yes"/>
      <point x="-99.0" y="655"/>
      <point x="-85.0" y="641"/>
      <point x="-53.0" y="641" type="curve" smooth="yes"/>
    </contour>
    <contour>
      <point x="250.0" y="747.0" type="move" name="_top"/>
    </contour>
    <contour>
      <point x="250.0" y="0.0" type="move" name="_bottom"/>
    </contour>
  </outline>
</glyph>
<glyph name="degree" format="1">
  <advance width="483"/>
  <unicode hex="00B0"/>
  <outline>
    <contour>
      <point x="284.0" y="230" type="curve" smooth="yes"/>
      <point x="412.0" y="338" type="line" smooth="yes"/>
      <point x="439.0" y="360"/>
      <point x="448.0" y="390"/>
      <point x="448.0" y="425" type="curve" smooth="yes"/>
      <point x="448.0" y="609" type="line" smooth="yes"/>
      <point x="448.0" y="682"/>
      <point x="414.0" y="735"/>
      <point x="242.0" y="735" type="curve" smooth="yes"/>
      <point x="152.0" y="735"/>
      <point x="100.0" y="720"/>
      <point x="70.0" y="695" type="curve" smooth="yes"/>
      <point x="-59.0" y="587" type="line" smooth="yes"/>
      <point x="-85.0" y="565"/>
      <point x="-94" y="535"/>
      <point x="-94.0" y="500" type="curve" smooth="yes"/>
      <point x="-94" y="346" type="line" smooth="yes"/>
      <point x="-94" y="273"/>
      <point x="-59.0" y="190"/>
      <point x="113.0" y="190" type="curve" smooth="yes"/>
      <point x="202.0" y="190"/>
      <point x="254.0" y="205"/>
    </contour>
  </outline>
</glyph>
<glyph name="twosuperior" format="1">
  <advance width="485"/>
  <unicode hex="00B2"/>
  <outline>
    <contour>
      <point x="279.0" y="83" type="line" smooth="yes"/>
      <point x="290.0" y="83"/>
      <point x="298.0" y="86"/>
      <point x="304.0" y="92" type="curve"/>
      <point x="433.0" y="199" type="line" smooth="yes"/>
      <point x="440.0" y="205"/>
      <point x="444.0" y="214"/>
      <point x="444.0" y="228" type="curve" smooth="yes"/>
      <point x="444.0" y="312" type="line" smooth="yes"/>
      <point x="444.0" y="337"/>
      <point x="433.0" y="348"/>
      <point x="408.0" y="348" type="curve" smooth="yes"/>
      <point x="297.0" y="348" type="line"/>
      <point x="399.0" y="434" type="line" smooth="yes"/>
      <point x="427.0" y="457"/>
      <point x="442.0" y="487"/>
      <point x="442.0" y="533" type="curve" smooth="yes"/>
      <point x="442.0" y="601" type="line" smooth="yes"/>
      <point x="442.0" y="684"/>
      <point x="394.0" y="730"/>
      <point x="305.0" y="730" type="curve" smooth="yes"/>
      <point x="93.0" y="730" type="line" smooth="yes"/>
      <point x="83.0" y="730"/>
      <point x="75.0" y="727"/>
      <point x="69.0" y="724" type="curve" smooth="yes"/>
      <point x="68.0" y="723" type="line"/>
      <point x="-61.0" y="614" type="line" smooth="yes"/>
      <point x="-68.0" y="608"/>
      <point x="-72.0" y="599"/>
      <point x="-72.0" y="585" type="curve" smooth="yes"/>
      <point x="-72.0" y="501" type="line" smooth="yes"/>
      <point x="-72.0" y="476"/>
      <point x="-61.0" y="465"/>
      <point x="-36.0" y="465" type="curve" smooth="yes"/>
      <point x="55.0" y="465" type="line"/>
      <point x="-52.0" y="375" type="line" smooth="yes"/>
      <point x="-81.0" y="351"/>
      <point x="-99.0" y="314"/>
      <point x="-99.0" y="243" type="curve" smooth="yes"/>
      <point x="-99.0" y="119" type="line" smooth="yes"/>
      <point x="-99.0" y="94"/>
      <point x="-88.0" y="83"/>
      <point x="-63.0" y="83" type="curve" smooth="yes"/>
    </contour>
  </outline>
</glyph>
<glyph name="Aring" format="1">
  <advance width="730"/>
  <unicode hex="00C5"/>
  <outline>
    <contour>
      <point x="269.0" y="-1" type="line" smooth="yes"/>
      <point x="278.0" y="7"/>
      <point x="283.0" y="18"/>
      <point x="283.0" y="36" type="curve" smooth="yes"/>
      <point x="283.0" y="57" type="line"/>
      <point x="311.0" y="57" type="line"/>
      <point x="311.0" y="-73" type="line" smooth="yes"/>
      <point x="311.0" y="-104"/>
      <point x="326.0" y="-119"/>
      <point x="360.0" y="-119" type="curve" smooth="yes"/>
      <point x="511.0" y="-119" type="line" smooth="yes"/>
      <point x="525.0" y="-119"/>
      <point x="536.0" y="-115"/>
      <point x="542.0" y="-109" type="curve"/>
      <point x="672.0" y="-1" type="line" smooth="yes"/>
      <point x="681.0" y="7"/>
      <point x="686.0" y="18"/>
      <point x="686.0" y="36" type="curve" smooth="yes"/>
      <point x="686.0" y="300" type="line" smooth="yes"/>
      <point x="686.0" y="341"/>
      <point x="674.0" y="392"/>
      <point x="646.0" y="464" type="curve" smooth="yes"/>
      <point x="564.0" y="678" type="line"/>
      <point x="584.0" y="703"/>
      <point x="592.0" y="735"/>
      <point x="592.0" y="771" type="curve" smooth="yes"/>
      <point x="592.0" y="829" type="line" smooth="yes"/>
      <point x="592.0" y="918"/>
      <point x="551.0" y="982"/>
      <point x="365.0" y="982" type="curve" smooth="yes"/>
      <point x="272.0" y="982"/>
      <point x="215.0" y="965"/>
      <point x="182.0" y="938" type="curve" smooth="yes"/>
      <point x="52.0" y="829" type="line" smooth="yes"/>
      <point x="19.0" y="802"/>
      <point x="9.0" y="764"/>
      <point x="9.0" y="720" type="curve" smooth="yes"/>
      <point x="9.0" y="662" type="line"/>
      <point x="9.0" y="626"/>
      <point x="17.0" y="594"/>
      <point x="37.0" y="569" type="curve"/>
      <point x="-45.0" y="355" type="line" smooth="yes"/>
      <point x="-73.0" y="283"/>
      <point x="-85.0" y="232"/>
      <point x="-85.0" y="191" type="curve" smooth="yes"/>
      <point x="-85.0" y="-73" type="line" smooth="yes"/>
      <point x="-85.0" y="-105"/>
      <point x="-71.0" y="-119"/>
      <point x="-39.0" y="-119" type="curve" smooth="yes"/>
      <point x="108.0" y="-119" type="line" smooth="yes"/>
      <point x="122.0" y="-119"/>
      <point x="133.0" y="-115"/>
      <point x="139.0" y="-109" type="curve"/>
    </contour>
  </outline>
</glyph>
<glyph name="Ccedilla" format="1">
  <advance width="628"/>
  <unicode hex="00C7"/>
  <outline>
    <contour>
      <point x="261" y="-245" type="line" smooth="yes"/>
      <point x="278" y="-245"/>
      <point x="291" y="-241"/>
      <point x="300" y="-233" type="curve" smooth="yes"/>
      <point x="429" y="-125" type="line" smooth="yes"/>
      <point x="432" y="-123"/>
      <point x="435" y="-120"/>
      <point x="437" y="-116" type="curve"/>
      <point x="443" y="-115"/>
      <point x="447" y="-112"/>
      <point x="450" y="-109" type="curve"/>
      <point x="580" y="-1" type="line" smooth="yes"/>
      <point x="589" y="7"/>
      <point x="594" y="18"/>
      <point x="594" y="36" type="curve" smooth="yes"/>
      <point x="594" y="155" type="line" smooth="yes"/>
      <point x="594" y="187"/>
      <point x="580" y="201"/>
      <point x="548" y="201" type="curve" smooth="yes"/>
      <point x="347" y="201" type="line" smooth="yes"/>
      <point x="314" y="201"/>
      <point x="296" y="211"/>
      <point x="296" y="239" type="curve" smooth="yes"/>
      <point x="296" y="408" type="line"/>
      <point x="419" y="408" type="line" smooth="yes"/>
      <point x="433" y="408"/>
      <point x="444" y="412"/>
      <point x="450" y="418" type="curve"/>
      <point x="580" y="526" type="line" smooth="yes"/>
      <point x="589" y="534"/>
      <point x="594" y="545"/>
      <point x="594" y="563" type="curve" smooth="yes"/>
      <point x="594" y="684" type="line" smooth="yes"/>
      <point x="594" y="716"/>
      <point x="580" y="730"/>
      <point x="548" y="730" type="curve" smooth="yes"/>
      <point x="304" y="730" type="line" smooth="yes"/>
      <point x="217" y="730"/>
      <point x="153" y="713"/>
      <point x="112" y="678" type="curve" smooth="yes"/>
      <point x="-18" y="569" type="line" smooth="yes"/>
      <point x="-60" y="533"/>
      <point x="-81" y="480"/>
      <point x="-81" y="406" type="curve" smooth="yes"/>
      <point x="-81" y="95" type="line" smooth="yes"/>
      <point x="-81" y="-35"/>
      <point x="-17" y="-104"/>
      <point x="123" y="-117" type="curve"/>
      <point x="95" y="-192" type="line" smooth="yes"/>
      <point x="84" y="-223"/>
      <point x="89" y="-245"/>
      <point x="135" y="-245" type="curve" smooth="yes"/>
    </contour>
  </outline>
</glyph>
<glyph name="Thorn" format="1">
  <advance width="692"/>
  <unicode hex="00DE"/>
  <outline>
    <contour>
      <point x="131.0" y="-119" type="line" smooth="yes"/>
      <point x="145.0" y="-119"/>
      <point x="156.0" y="-115"/>
      <point x="162.0" y="-109" type="curve"/>
      <point x="273.0" y="-17" type="line"/>
      <point x="282.0" y="-17" type="line" smooth="yes"/>
      <point x="370.0" y="-17"/>
      <point x="430.0" y="2"/>
      <point x="468.0" y="34" type="curve" smooth="yes"/>
      <point x="597.0" y="142" type="line" smooth="yes"/>
      <point x="641.0" y="179"/>
      <point x="657.0" y="233"/>
      <point x="657.0" y="297" type="curve" smooth="yes"/>
      <point x="657.0" y="425" type="line" smooth="yes"/>
      <point x="657.0" y="546"/>
      <point x="602.0" y="630"/>
      <point x="411.0" y="630" type="curve" smooth="yes"/>
      <point x="306.0" y="630" type="line"/>
      <point x="306.0" y="684" type="line" smooth="yes"/>
      <point x="306.0" y="716"/>
      <point x="292.0" y="730"/>
      <point x="260.0" y="730" type="curve" smooth="yes"/>
      <point x="105.0" y="730" type="line" smooth="yes"/>
      <point x="91.0" y="730"/>
      <point x="80.0" y="727"/>
      <point x="73.0" y="721" type="curve" smooth="yes"/>
      <point x="-56.0" y="612" type="line" smooth="yes"/>
      <point x="-65.0" y="604"/>
      <point x="-70.0" y="593"/>
      <point x="-70.0" y="575" type="curve" smooth="yes"/>
      <point x="-70.0" y="-73" type="line" smooth="yes"/>
      <point x="-70.0" y="-105"/>
      <point x="-56.0" y="-119"/>
      <point x="-24.0" y="-119" type="curve" smooth="yes"/>
    </contour>
  </outline>
</glyph>
<glyph name="Aogonek" format="1">
  <advance width="730"/>
  <unicode hex="0104"/>
  <outline>
    <contour>
      <point x="514" y="-305" type="line" smooth="yes"/>
      <point x="528" y="-305"/>
      <point x="538" y="-302"/>
      <point x="544" y="-297" type="curve" smooth="yes"/>
      <point x="675" y="-188" type="line" smooth="yes"/>
      <point x="682" y="-181"/>
      <point x="686" y="-170"/>
      <point x="686" y="-152" type="curve" smooth="yes"/>
      <point x="686" y="-80" type="line" smooth="yes"/>
      <point x="686" y="-47"/>
      <point x="676" y="-36"/>
      <point x="640" y="-36" type="curve" smooth="yes"/>
      <point x="630" y="-36" type="line"/>
      <point x="672" y="-1" type="line" smooth="yes"/>
      <point x="681" y="7"/>
      <point x="686" y="18"/>
      <point x="686" y="36" type="curve" smooth="yes"/>
      <point x="686" y="300" type="line" smooth="yes"/>
      <point x="686" y="341"/>
      <point x="674" y="392"/>
      <point x="646" y="464" type="curve" smooth="yes"/>
      <point x="559" y="691" type="line" smooth="yes"/>
      <point x="550" y="718"/>
      <point x="531" y="730"/>
      <point x="500" y="730" type="curve" smooth="yes"/>
      <point x="231" y="730" type="line" smooth="yes"/>
      <point x="212" y="730"/>
      <point x="198" y="726"/>
      <point x="187" y="716" type="curve" smooth="yes"/>
      <point x="59" y="609" type="line"/>
      <point x="58" y="608" type="line" smooth="yes"/>
      <point x="51" y="601"/>
      <point x="45" y="593"/>
      <point x="41" y="581" type="curve"/>
      <point x="-45" y="355" type="line" smooth="yes"/>
      <point x="-73" y="283"/>
      <point x="-85" y="232"/>
      <point x="-85" y="191" type="curve" smooth="yes"/>
      <point x="-85" y="-73" type="line" smooth="yes"/>
      <point x="-85" y="-105"/>
      <point x="-71" y="-119"/>
      <point x="-39" y="-119" type="curve" smooth="yes"/>
      <point x="108" y="-119" type="line" smooth="yes"/>
      <point x="122" y="-119"/>
      <point x="133" y="-115"/>
      <point x="139" y="-109" type="curve"/>
      <point x="269" y="-1" type="line" smooth="yes"/>
      <point x="278" y="7"/>
      <point x="283" y="18"/>
      <point x="283" y="36" type="curve" smooth="yes"/>
      <point x="283" y="57" type="line"/>
      <point x="311" y="57" type="line"/>
      <point x="311" y="-54" type="line"/>
      <point x="292" y="-158" type="line" smooth="yes"/>
      <point x="277" y="-261"/>
      <point x="310" y="-305"/>
      <point x="403" y="-305" type="curve" smooth="yes"/>
    </contour>
  </outline>
</glyph>
<glyph name="Eogonek" format="1">
  <advance width="654"/>
  <unicode hex="0118"/>
  <outline>
    <contour>
      <point x="443" y="-305" type="line" smooth="yes"/>
      <point x="457" y="-305"/>
      <point x="467" y="-302"/>
      <point x="473" y="-297" type="curve" smooth="yes"/>
      <point x="604" y="-188" type="line" smooth="yes"/>
      <point x="611" y="-181"/>
      <point x="615" y="-170"/>
      <point x="615" y="-152" type="curve" smooth="yes"/>
      <point x="615" y="-80" type="line" smooth="yes"/>
      <point x="615" y="-47"/>
      <point x="605" y="-36"/>
      <point x="569" y="-36" type="curve" smooth="yes"/>
      <point x="559" y="-36" type="line"/>
      <point x="601" y="-1" type="line" smooth="yes"/>
      <point x="610" y="7"/>
      <point x="615" y="18"/>
      <point x="615" y="36" type="curve" smooth="yes"/>
      <point x="615" y="153" type="line" smooth="yes"/>
      <point x="615" y="185"/>
      <point x="601" y="199"/>
      <point x="569" y="199" type="curve" smooth="yes"/>
      <point x="431" y="199" type="line"/>
      <point x="520" y="274" type="line" smooth="yes"/>
      <point x="529" y="282"/>
      <point x="534" y="293"/>
      <point x="534" y="311" type="curve" smooth="yes"/>
      <point x="534" y="418" type="line" smooth="yes"/>
      <point x="534" y="439"/>
      <point x="528" y="452"/>
      <point x="515" y="459" type="curve"/>
      <point x="601" y="530" type="line" smooth="yes"/>
      <point x="610" y="538"/>
      <point x="615" y="549"/>
      <point x="615" y="567" type="curve" smooth="yes"/>
      <point x="615" y="684" type="line" smooth="yes"/>
      <point x="615" y="716"/>
      <point x="601" y="730"/>
      <point x="569" y="730" type="curve" smooth="yes"/>
      <point x="105" y="730" type="line" smooth="yes"/>
      <point x="91" y="730"/>
      <point x="80" y="727"/>
      <point x="73" y="721" type="curve" smooth="yes"/>
      <point x="-56" y="612" type="line" smooth="yes"/>
      <point x="-65" y="604"/>
      <point x="-70" y="593"/>
      <point x="-70" y="575" type="curve" smooth="yes"/>
      <point x="-70" y="-73" type="line" smooth="yes"/>
      <point x="-70" y="-105"/>
      <point x="-56" y="-119"/>
      <point x="-24" y="-119" type="curve" smooth="yes"/>
      <point x="228" y="-119" type="line"/>
      <point x="221" y="-158" type="line" smooth="yes"/>
      <point x="206" y="-261"/>
      <point x="239" y="-305"/>
      <point x="332" y="-305" type="curve" smooth="yes"/>
    </contour>
  </outline>
</glyph>
<glyph name="Iogonek" format="1">
  <advance width="605"/>
  <unicode hex="012E"/>
  <outline>
    <contour>
      <point x="389" y="-305" type="line" smooth="yes"/>
      <point x="403" y="-305"/>
      <point x="413" y="-302"/>
      <point x="419" y="-297" type="curve" smooth="yes"/>
      <point x="550" y="-188" type="line" smooth="yes"/>
      <point x="557" y="-181"/>
      <point x="561" y="-170"/>
      <point x="561" y="-152" type="curve" smooth="yes"/>
      <point x="561" y="-80" type="line" smooth="yes"/>
      <point x="561" y="-47"/>
      <point x="551" y="-36"/>
      <point x="515" y="-36" type="curve" smooth="yes"/>
      <point x="505" y="-36" type="line"/>
      <point x="547" y="-1" type="line" smooth="yes"/>
      <point x="556" y="7"/>
      <point x="561" y="18"/>
      <point x="561" y="36" type="curve" smooth="yes"/>
      <point x="561" y="155" type="line" smooth="yes"/>
      <point x="561" y="187"/>
      <point x="547" y="201"/>
      <point x="515" y="201" type="curve" smooth="yes"/>
      <point x="428" y="201" type="line"/>
      <point x="428" y="426" type="line"/>
      <point x="547" y="526" type="line" smooth="yes"/>
      <point x="556" y="534"/>
      <point x="561" y="545"/>
      <point x="561" y="563" type="curve" smooth="yes"/>
      <point x="561" y="684" type="line" smooth="yes"/>
      <point x="561" y="716"/>
      <point x="547" y="730"/>
      <point x="515" y="730" type="curve" smooth="yes"/>
      <point x="89" y="730" type="line" smooth="yes"/>
      <point x="75" y="730"/>
      <point x="64" y="727"/>
      <point x="57" y="721" type="curve" smooth="yes"/>
      <point x="-72" y="612" type="line" smooth="yes"/>
      <point x="-81" y="604"/>
      <point x="-86" y="593"/>
      <point x="-86" y="575" type="curve" smooth="yes"/>
      <point x="-86" y="454" type="line" smooth="yes"/>
      <point x="-86" y="422"/>
      <point x="-72" y="408"/>
      <point x="-40" y="408" type="curve" smooth="yes"/>
      <point x="49" y="408" type="line"/>
      <point x="49" y="185" type="line"/>
      <point x="-72" y="83" type="line" smooth="yes"/>
      <point x="-81" y="75"/>
      <point x="-86" y="64"/>
      <point x="-86" y="46" type="curve" smooth="yes"/>
      <point x="-86" y="-73" type="line" smooth="yes"/>
      <point x="-86" y="-105"/>
      <point x="-72" y="-119"/>
      <point x="-40" y="-119" type="curve" smooth="yes"/>
      <point x="174" y="-119" type="line"/>
      <point x="167" y="-158" type="line" smooth="yes"/>
      <point x="152" y="-261"/>
      <point x="185" y="-305"/>
      <point x="278" y="-305" type="curve" smooth="yes"/>
    </contour>
  </outline>
</glyph>
<glyph name="Scedilla" format="1">
  <advance width="650"/>
  <unicode hex="015E"/>
  <outline>
    <contour>
      <point x="211" y="-245" type="line" smooth="yes"/>
      <point x="228" y="-245"/>
      <point x="241" y="-241"/>
      <point x="250" y="-233" type="curve" smooth="yes"/>
      <point x="379" y="-125" type="line" smooth="yes"/>
      <point x="387" y="-119"/>
      <point x="392" y="-110"/>
      <point x="395" y="-99" type="curve" smooth="yes"/>
      <point x="397" y="-94" type="line"/>
      <point x="410" y="-87"/>
      <point x="422" y="-80"/>
      <point x="432" y="-71" type="curve" smooth="yes"/>
      <point x="561" y="37" type="line" smooth="yes"/>
      <point x="600" y="69"/>
      <point x="620" y="116"/>
      <point x="620" y="176" type="curve" smooth="yes"/>
      <point x="620" y="281" type="line" smooth="yes"/>
      <point x="620" y="389"/>
      <point x="565" y="434"/>
      <point x="480" y="453" type="curve"/>
      <point x="570" y="528" type="line" smooth="yes"/>
      <point x="579" y="536"/>
      <point x="584" y="547"/>
      <point x="584" y="565" type="curve" smooth="yes"/>
      <point x="584" y="684" type="line" smooth="yes"/>
      <point x="584" y="716"/>
      <point x="570" y="730"/>
      <point x="538" y="730" type="curve" smooth="yes"/>
      <point x="258" y="730" type="line" smooth="yes"/>
      <point x="190" y="730"/>
      <point x="136" y="713"/>
      <point x="100" y="683" type="curve" smooth="yes"/>
      <point x="-30" y="574" type="line" smooth="yes"/>
      <point x="-68" y="542"/>
      <point x="-88" y="495"/>
      <point x="-88" y="435" type="curve" smooth="yes"/>
      <point x="-88" y="330" type="line" smooth="yes"/>
      <point x="-88" y="233"/>
      <point x="-45" y="187"/>
      <point x="26" y="165" type="curve"/>
      <point x="-74" y="81" type="line" smooth="yes"/>
      <point x="-83" y="73"/>
      <point x="-88" y="62"/>
      <point x="-88" y="44" type="curve" smooth="yes"/>
      <point x="-88" y="-73" type="line" smooth="yes"/>
      <point x="-88" y="-105"/>
      <point x="-74" y="-119"/>
      <point x="-42" y="-119" type="curve" smooth="yes"/>
      <point x="72" y="-119" type="line"/>
      <point x="45" y="-192" type="line" smooth="yes"/>
      <point x="34" y="-223"/>
      <point x="39" y="-245"/>
      <point x="85" y="-245" type="curve" smooth="yes"/>
    </contour>
  </outline>
</glyph>
<glyph name="Tbar" format="1">
  <advance width="656"/>
  <unicode hex="0166"/>
  <outline>
    <contour>
      <point x="280" y="-119" type="line" smooth="yes"/>
      <point x="294" y="-119"/>
      <point x="305" y="-115"/>
      <point x="311" y="-109" type="curve"/>
      <point x="441" y="-1" type="line" smooth="yes"/>
      <point x="450" y="7"/>
      <point x="455" y="18"/>
      <point x="455" y="36" type="curve" smooth="yes"/>
      <point x="455" y="137" type="line"/>
      <point x="553" y="220" type="line" smooth="yes"/>
      <point x="562" y="228"/>
      <point x="567" y="239"/>
      <point x="567" y="257" type="curve" smooth="yes"/>
      <point x="567" y="365" type="line" smooth="yes"/>
      <point x="567" y="398"/>
      <point x="553" y="411"/>
      <point x="521" y="411" type="curve" smooth="yes"/>
      <point x="482" y="411" type="line"/>
      <point x="487" y="413"/>
      <point x="491" y="415"/>
      <point x="494" y="418" type="curve"/>
      <point x="624" y="526" type="line" smooth="yes"/>
      <point x="633" y="534"/>
      <point x="638" y="545"/>
      <point x="638" y="563" type="curve" smooth="yes"/>
      <point x="638" y="684" type="line" smooth="yes"/>
      <point x="638" y="716"/>
      <point x="624" y="730"/>
      <point x="592" y="730" type="curve" smooth="yes"/>
      <point x="64" y="730" type="line" smooth="yes"/>
      <point x="50" y="730"/>
      <point x="39" y="727"/>
      <point x="32" y="721" type="curve" smooth="yes"/>
      <point x="-97" y="612" type="line" smooth="yes"/>
      <point x="-106" y="604"/>
      <point x="-111" y="593"/>
      <point x="-111" y="575" type="curve" smooth="yes"/>
      <point x="-111" y="454" type="line" smooth="yes"/>
      <point x="-111" y="422"/>
      <point x="-97" y="408"/>
      <point x="-65" y="408" type="curve" smooth="yes"/>
      <point x="72" y="408" type="line"/>
      <point x="72" y="377" type="line"/>
      <point x="-28" y="293" type="line" smooth="yes"/>
      <point x="-37" y="285"/>
      <point x="-42" y="274"/>
      <point x="-42" y="256" type="curve" smooth="yes"/>
      <point x="-42" y="148" type="line" smooth="yes"/>
      <point x="-42" y="115"/>
      <point x="-28" y="102"/>
      <point x="4" y="102" type="curve" smooth="yes"/>
      <point x="72" y="102" type="line"/>
      <point x="72" y="-73" type="line" smooth="yes"/>
      <point x="72" y="-105"/>
      <point x="86" y="-119"/>
      <point x="118" y="-119" type="curve" smooth="yes"/>
    </contour>
  </outline>
</glyph>
<glyph name="Uogonek" format="1">
  <advance width="746"/>
  <unicode hex="0172"/>
  <outline>
    <contour>
      <point x="359" y="-315" type="line" smooth="yes"/>
      <point x="373" y="-315"/>
      <point x="383" y="-312"/>
      <point x="389" y="-307" type="curve" smooth="yes"/>
      <point x="520" y="-198" type="line" smooth="yes"/>
      <point x="527" y="-191"/>
      <point x="531" y="-180"/>
      <point x="531" y="-162" type="curve" smooth="yes"/>
      <point x="531" y="-90" type="line" smooth="yes"/>
      <point x="531" y="-73"/>
      <point x="528" y="-62"/>
      <point x="521" y="-55" type="curve"/>
      <point x="632" y="37" type="line" smooth="yes"/>
      <point x="677" y="75"/>
      <point x="692" y="127"/>
      <point x="692" y="189" type="curve" smooth="yes"/>
      <point x="692" y="684" type="line" smooth="yes"/>
      <point x="692" y="716"/>
      <point x="678" y="730"/>
      <point x="646" y="730" type="curve" smooth="yes"/>
      <point x="494" y="730" type="line" smooth="yes"/>
      <point x="479" y="730"/>
      <point x="469" y="727"/>
      <point x="462" y="721" type="curve" smooth="yes"/>
      <point x="332" y="612" type="line"/>
      <point x="331" y="611" type="line" smooth="yes"/>
      <point x="323" y="604"/>
      <point x="319" y="593"/>
      <point x="319" y="575" type="curve" smooth="yes"/>
      <point x="319" y="200" type="line"/>
      <point x="306" y="206"/>
      <point x="303" y="216"/>
      <point x="303" y="228" type="curve" smooth="yes"/>
      <point x="303" y="684" type="line" smooth="yes"/>
      <point x="303" y="716"/>
      <point x="289" y="730"/>
      <point x="257" y="730" type="curve" smooth="yes"/>
      <point x="100" y="730" type="line" smooth="yes"/>
      <point x="86" y="730"/>
      <point x="75" y="727"/>
      <point x="68" y="721" type="curve" smooth="yes"/>
      <point x="-61" y="612" type="line" smooth="yes"/>
      <point x="-70" y="604"/>
      <point x="-75" y="593"/>
      <point x="-75" y="575" type="curve" smooth="yes"/>
      <point x="-75" y="80" type="line" smooth="yes"/>
      <point x="-75" y="-28"/>
      <point x="-32" y="-108"/>
      <point x="144" y="-129" type="curve"/>
      <point x="137" y="-168" type="line" smooth="yes"/>
      <point x="122" y="-271"/>
      <point x="155" y="-315"/>
      <point x="248" y="-315" type="curve" smooth="yes"/>
    </contour>
  </outline>
</glyph>
<glyph name="Ohorn" format="1">
  <advance width="747"/>
  <unicode hex="01A0"/>
  <outline>
    <contour>
      <point x="240" y="-134" type="curve" smooth="yes"/>
      <point x="373" y="-134"/>
      <point x="453" y="-111"/>
      <point x="500" y="-71" type="curve" smooth="yes"/>
      <point x="629" y="37" type="line" smooth="yes"/>
      <point x="674" y="75"/>
      <point x="689" y="127"/>
      <point x="689" y="189" type="curve" smooth="yes"/>
      <point x="689" y="530" type="line" smooth="yes"/>
      <point x="689" y="553"/>
      <point x="687" y="575"/>
      <point x="682" y="595" type="curve"/>
      <point x="703" y="612" type="line" smooth="yes"/>
      <point x="736" y="639"/>
      <point x="747" y="677"/>
      <point x="747" y="721" type="curve" smooth="yes"/>
      <point x="747" y="765" type="line" smooth="yes"/>
      <point x="747" y="797"/>
      <point x="733" y="811"/>
      <point x="701" y="811" type="curve" smooth="yes"/>
      <point x="590" y="811" type="line" smooth="yes"/>
      <point x="575" y="811"/>
      <point x="569" y="810"/>
      <point x="562" y="804" type="curve" smooth="yes"/>
      <point x="483" y="738" type="line"/>
      <point x="450" y="743"/>
      <point x="412" y="745"/>
      <point x="369" y="745" type="curve" smooth="yes"/>
      <point x="235" y="745"/>
      <point x="156" y="722"/>
      <point x="109" y="682" type="curve" smooth="yes"/>
      <point x="-21" y="574" type="line" smooth="yes"/>
      <point x="-66" y="536"/>
      <point x="-81" y="483"/>
      <point x="-81" y="421" type="curve" smooth="yes"/>
      <point x="-81" y="110" type="line" smooth="yes"/>
      <point x="-81" y="-16"/>
      <point x="-22" y="-134"/>
    </contour>
    <contour>
      <point x="295" y="225" type="curve" smooth="yes"/>
      <point x="295" y="414" type="line"/>
      <point x="310" y="408"/>
      <point x="314" y="398"/>
      <point x="314" y="385" type="curve" smooth="yes"/>
      <point x="314" y="195" type="line"/>
      <point x="299" y="202"/>
      <point x="295" y="212"/>
    </contour>
  </outline>
</glyph>
<glyph name="Uhorn" format="1">
  <advance width="756"/>
  <unicode hex="01AF"/>
  <outline>
    <contour>
      <point x="244" y="-134" type="curve" smooth="yes"/>
      <point x="376" y="-134"/>
      <point x="455" y="-111"/>
      <point x="502" y="-71" type="curve" smooth="yes"/>
      <point x="632" y="37" type="line" smooth="yes"/>
      <point x="677" y="75"/>
      <point x="692" y="127"/>
      <point x="692" y="189" type="curve" smooth="yes"/>
      <point x="692" y="595" type="line"/>
      <point x="712" y="612" type="line" smooth="yes"/>
      <point x="745" y="639"/>
      <point x="756" y="677"/>
      <point x="756" y="721" type="curve" smooth="yes"/>
      <point x="756" y="765" type="line" smooth="yes"/>
      <point x="756" y="797"/>
      <point x="742" y="811"/>
      <point x="710" y="811" type="curve" smooth="yes"/>
      <point x="599" y="811" type="line" smooth="yes"/>
      <point x="584" y="811"/>
      <point x="578" y="810"/>
      <point x="571" y="804" type="curve" smooth="yes"/>
      <point x="482" y="729" type="line"/>
      <point x="473" y="728"/>
      <point x="467" y="725"/>
      <point x="462" y="721" type="curve" smooth="yes"/>
      <point x="332" y="612" type="line"/>
      <point x="331" y="611" type="line" smooth="yes"/>
      <point x="323" y="604"/>
      <point x="319" y="593"/>
      <point x="319" y="575" type="curve" smooth="yes"/>
      <point x="319" y="200" type="line"/>
      <point x="306" y="206"/>
      <point x="303" y="216"/>
      <point x="303" y="228" type="curve" smooth="yes"/>
      <point x="303" y="684" type="line" smooth="yes"/>
      <point x="303" y="716"/>
      <point x="289" y="730"/>
      <point x="257" y="730" type="curve" smooth="yes"/>
      <point x="100" y="730" type="line" smooth="yes"/>
      <point x="86" y="730"/>
      <point x="75" y="727"/>
      <point x="68" y="721" type="curve" smooth="yes"/>
      <point x="-61" y="612" type="line" smooth="yes"/>
      <point x="-70" y="604"/>
      <point x="-75" y="593"/>
      <point x="-75" y="575" type="curve" smooth="yes"/>
      <point x="-75" y="80" type="line" smooth="yes"/>
      <point x="-75" y="-46"/>
      <point x="-16" y="-134"/>
    </contour>
  </outline>
</glyph>
<glyph name="circumflex" format="1">
  <advance width="500"/>
  <unicode hex="02C6"/>
  <outline>
    <contour>
      <point x="-45.0" y="638" type="curve" smooth="yes"/>
      <point x="92.0" y="678" type="line" smooth="yes"/>
      <point x="113.0" y="684"/>
      <point x="127.0" y="684"/>
      <point x="148.0" y="678" type="curve" smooth="yes"/>
      <point x="285.0" y="638" type="line" smooth="yes"/>
      <point x="309.0" y="632"/>
      <point x="321.0" y="633"/>
      <point x="328.0" y="639" type="curve" smooth="yes"/>
      <point x="458.0" y="747" type="line"/>
      <point x="459.0" y="748" type="line" smooth="yes"/>
      <point x="465.0" y="754"/>
      <point x="469.0" y="766"/>
      <point x="469.0" y="788" type="curve" smooth="yes"/>
      <point x="469.0" y="869" type="line" smooth="yes"/>
      <point x="469.0" y="911"/>
      <point x="461.0" y="916"/>
      <point x="421.0" y="931" type="curve" smooth="yes"/>
      <point x="283.0" y="981" type="line" smooth="yes"/>
      <point x="273.0" y="986"/>
      <point x="261.0" y="987"/>
      <point x="248.0" y="987" type="curve"/>
      <point x="234.0" y="986"/>
      <point x="218.0" y="983"/>
      <point x="205.0" y="977" type="curve" smooth="yes"/>
      <point x="78.0" y="931" type="line" smooth="yes"/>
      <point x="63.0" y="926"/>
      <point x="52.0" y="921"/>
      <point x="45.0" y="914" type="curve"/>
      <point x="46.0" y="915" type="line"/>
      <point x="-85.0" y="806" type="line" smooth="yes"/>
      <point x="-95.0" y="797"/>
      <point x="-99.0" y="785"/>
      <point x="-99.0" y="760" type="curve" smooth="yes"/>
      <point x="-99.0" y="679" type="line" smooth="yes"/>
      <point x="-99.0" y="631"/>
      <point x="-89.0" y="624"/>
    </contour>
    <contour>
      <point x="250.0" y="747.0" type="move" name="_top"/>
    </contour>
    <contour>
      <point x="250.0" y="0.0" type="move" name="_bottom"/>
    </contour>
  </outline>
</glyph>
<glyph name="hungarumlaut" format="1">
  <advance width="500"/>
  <unicode hex="02DD"/>
  <outline>
    <contour>
      <point x="5.0" y="641" type="line" smooth="yes"/>
      <point x="19.0" y="641"/>
      <point x="28.0" y="644"/>
      <point x="34.0" y="651" type="curve"/>
      <point x="34.0" y="650" type="line"/>
      <point x="127.0" y="728" type="line"/>
      <point x="116.0" y="687" type="line" smooth="yes"/>
      <point x="109.0" y="659"/>
      <point x="127.0" y="641"/>
      <point x="159.0" y="641" type="curve" smooth="yes"/>
      <point x="265.0" y="641" type="line" smooth="yes"/>
      <point x="279.0" y="641"/>
      <point x="288.0" y="644"/>
      <point x="294.0" y="651" type="curve"/>
      <point x="294.0" y="650" type="line"/>
      <point x="423.0" y="758" type="line" smooth="yes"/>
      <point x="431.0" y="766"/>
      <point x="436.0" y="777"/>
      <point x="440.0" y="794" type="curve" smooth="yes"/>
      <point x="493.0" y="1001" type="line" smooth="yes"/>
      <point x="501.0" y="1029"/>
      <point x="482.0" y="1047"/>
      <point x="450.0" y="1047" type="curve" smooth="yes"/>
      <point x="344.0" y="1047" type="line" smooth="yes"/>
      <point x="331.0" y="1047"/>
      <point x="322.0" y="1044"/>
      <point x="316.0" y="1039" type="curve" smooth="yes"/>
      <point x="223.0" y="961" type="line"/>
      <point x="233.0" y="1001" type="line" smooth="yes"/>
      <point x="241.0" y="1029"/>
      <point x="222.0" y="1047"/>
      <point x="190.0" y="1047" type="curve" smooth="yes"/>
      <point x="84.0" y="1047" type="line" smooth="yes"/>
      <point x="71.0" y="1047"/>
      <point x="62.0" y="1044"/>
      <point x="56.0" y="1039" type="curve" smooth="yes"/>
      <point x="-74.0" y="930" type="line" smooth="yes"/>
      <point x="-83.0" y="922"/>
      <point x="-87.0" y="911"/>
      <point x="-91.0" y="894" type="curve" smooth="yes"/>
      <point x="-144.0" y="687" type="line" smooth="yes"/>
      <point x="-151.0" y="659"/>
      <point x="-133.0" y="641"/>
      <point x="-101.0" y="641" type="curve" smooth="yes"/>
    </contour>
  </outline>
</glyph>
<glyph name="pi" format="1">
  <advance width="721"/>
  <unicode hex="03C0"/>
  <outline>
    <contour>
      <point x="284.0" y="-1" type="line" smooth="yes"/>
      <point x="289.0" y="3"/>
      <point x="292.0" y="7"/>
      <point x="294.0" y="12" type="curve"/>
      <point x="294.0" y="-73" type="line" smooth="yes"/>
      <point x="294.0" y="-105"/>
      <point x="308.0" y="-119"/>
      <point x="340.0" y="-119" type="curve" smooth="yes"/>
      <point x="495.0" y="-119" type="line" smooth="yes"/>
      <point x="509.0" y="-119"/>
      <point x="520.0" y="-115"/>
      <point x="526.0" y="-109" type="curve"/>
      <point x="656.0" y="-1" type="line" smooth="yes"/>
      <point x="665.0" y="7"/>
      <point x="670.0" y="18"/>
      <point x="670.0" y="36" type="curve" smooth="yes"/>
      <point x="670.0" y="534" type="line" smooth="yes"/>
      <point x="670.0" y="566"/>
      <point x="656.0" y="580"/>
      <point x="624.0" y="580" type="curve" smooth="yes"/>
      <point x="97.0" y="580" type="line" smooth="yes"/>
      <point x="83.0" y="580"/>
      <point x="72.0" y="577"/>
      <point x="65.0" y="571" type="curve" smooth="yes"/>
      <point x="-64.0" y="462" type="line" smooth="yes"/>
      <point x="-73.0" y="454"/>
      <point x="-78.0" y="443"/>
      <point x="-78.0" y="425" type="curve" smooth="yes"/>
      <point x="-78.0" y="-73" type="line" smooth="yes"/>
      <point x="-78.0" y="-105"/>
      <point x="-64.0" y="-119"/>
      <point x="-32.0" y="-119" type="curve" smooth="yes"/>
      <point x="123.0" y="-119" type="line" smooth="yes"/>
      <point x="137.0" y="-119"/>
      <point x="148.0" y="-115"/>
      <point x="154.0" y="-109" type="curve"/>
    </contour>
  </outline>
</glyph>
<glyph name="endash" format="1">
  <advance width="734"/>
  <unicode hex="2013"/>
  <outline>
    <contour>
      <point x="499.0" y="138" type="line" smooth="yes"/>
      <point x="512.0" y="138"/>
      <point x="523.0" y="142"/>
      <point x="531.0" y="147" type="curve" smooth="yes"/>
      <point x="660.0" y="256" type="line" smooth="yes"/>
      <point x="669.0" y="264"/>
      <point x="674.0" y="275"/>
      <point x="674.0" y="293" type="curve" smooth="yes"/>
      <point x="674.0" y="427" type="line" smooth="yes"/>
      <point x="674.0" y="460"/>
      <point x="660.0" y="473"/>
      <point x="628.0" y="473" type="curve" smooth="yes"/>
      <point x="106.0" y="473" type="line" smooth="yes"/>
      <point x="92.0" y="473"/>
      <point x="81.0" y="470"/>
      <point x="74.0" y="464" type="curve" smooth="yes"/>
      <point x="-55.0" y="355" type="line" smooth="yes"/>
      <point x="-64.0" y="347"/>
      <point x="-69.0" y="336"/>
      <point x="-69.0" y="318" type="curve" smooth="yes"/>
      <point x="-69.0" y="184" type="line" smooth="yes"/>
      <point x="-69.0" y="151"/>
      <point x="-55.0" y="138"/>
      <point x="-23.0" y="138" type="curve" smooth="yes"/>
    </contour>
  </outline>
</glyph>
<glyph name="daggerdbl" format="1">
  <advance width="718"/>
  <unicode hex="2021"/>
  <outline>
    <contour>
      <point x="339.0" y="-131" type="curve" smooth="yes"/>
      <point x="465.0" y="-24" type="line"/>
      <point x="496.0" y="-28" type="line"/>
      <point x="517.0" y="-29"/>
      <point x="529.0" y="-27"/>
      <point x="536.0" y="-21" type="curve" smooth="yes"/>
      <point x="666.0" y="87" type="line"/>
      <point x="667.0" y="88" type="line" smooth="yes"/>
      <point x="674.0" y="95"/>
      <point x="678.0" y="107"/>
      <point x="678.0" y="129" type="curve" smooth="yes"/>
      <point x="678.0" y="260" type="line" smooth="yes"/>
      <point x="678.0" y="304"/>
      <point x="669.0" y="312"/>
      <point x="625.0" y="307" type="curve" smooth="yes"/>
      <point x="465.0" y="292" type="line"/>
      <point x="469.0" y="307" type="line"/>
      <point x="496.0" y="304" type="line" smooth="yes"/>
      <point x="517.0" y="302"/>
      <point x="529.0" y="304"/>
      <point x="536.0" y="310" type="curve" smooth="yes"/>
      <point x="666.0" y="419" type="line" smooth="yes"/>
      <point x="674.0" y="425"/>
      <point x="678.0" y="437"/>
      <point x="678.0" y="460" type="curve" smooth="yes"/>
      <point x="678.0" y="591" type="line" smooth="yes"/>
      <point x="678.0" y="634"/>
      <point x="670.0" y="642"/>
      <point x="625.0" y="638" type="curve" smooth="yes"/>
      <point x="472.0" y="623" type="line"/>
      <point x="478.0" y="697" type="line" smooth="yes"/>
      <point x="482.0" y="742"/>
      <point x="475.0" y="750"/>
      <point x="431.0" y="750" type="curve" smooth="yes"/>
      <point x="287.0" y="750" type="line" smooth="yes"/>
      <point x="267.0" y="750"/>
      <point x="257.0" y="748"/>
      <point x="250.0" y="742" type="curve" smooth="yes"/>
      <point x="124.0" y="635" type="line"/>
      <point x="93.0" y="638" type="line" smooth="yes"/>
      <point x="72.0" y="639"/>
      <point x="59.0" y="638"/>
      <point x="52.0" y="632" type="curve" smooth="yes"/>
      <point x="-77.0" y="523" type="line"/>
      <point x="-86.0" y="517"/>
      <point x="-89.0" y="506"/>
      <point x="-89.0" y="482" type="curve" smooth="yes"/>
      <point x="-89.0" y="351" type="line" smooth="yes"/>
      <point x="-89.0" y="307"/>
      <point x="-80.0" y="299"/>
      <point x="-36.0" y="304" type="curve" smooth="yes"/>
      <point x="123.0" y="319" type="line"/>
      <point x="119.0" y="305" type="line"/>
      <point x="93.0" y="307" type="line" smooth="yes"/>
      <point x="72.0" y="309"/>
      <point x="59.0" y="308"/>
      <point x="51.0" y="300" type="curve"/>
      <point x="-77.0" y="193" type="line" smooth="yes"/>
      <point x="-86.0" y="185"/>
      <point x="-89.0" y="174"/>
      <point x="-89.0" y="151" type="curve" smooth="yes"/>
      <point x="-89.0" y="20" type="line" smooth="yes"/>
      <point x="-89.0" y="-24"/>
      <point x="-80.0" y="-32"/>
      <point x="-36.0" y="-28" type="curve" smooth="yes"/>
      <point x="117.0" y="-12" type="line"/>
      <point x="111.0" y="-86" type="line" smooth="yes"/>
      <point x="107.0" y="-132"/>
      <point x="114.0" y="-139"/>
      <point x="158.0" y="-139" type="curve" smooth="yes"/>
      <point x="302.0" y="-139" type="line" smooth="yes"/>
      <point x="320.0" y="-139"/>
      <point x="331.0" y="-136"/>
    </contour>
  </outline>
</glyph>
<glyph name="bullet" format="1">
  <advance width="443"/>
  <unicode hex="2022"/>
  <outline>
    <contour>
      <point x="233.0" y="66" type="line" smooth="yes"/>
      <point x="247.0" y="66"/>
      <point x="258.0" y="70"/>
      <point x="264.0" y="76" type="curve"/>
      <point x="394.0" y="184" type="line" smooth="yes"/>
      <point x="403.0" y="192"/>
      <point x="408.0" y="203"/>
      <point x="408.0" y="221" type="curve" smooth="yes"/>
      <point x="408.0" y="503" type="line" smooth="yes"/>
      <point x="408.0" y="536"/>
      <point x="394.0" y="549"/>
      <point x="362.0" y="549" type="curve" smooth="yes"/>
      <point x="81.0" y="549" type="line" smooth="yes"/>
      <point x="66.0" y="549"/>
      <point x="56.0" y="546"/>
      <point x="49.0" y="540" type="curve" smooth="yes"/>
      <point x="-81.0" y="431" type="line" smooth="yes"/>
      <point x="-89.0" y="424"/>
      <point x="-94.0" y="412"/>
      <point x="-94.0" y="394" type="curve" smooth="yes"/>
      <point x="-94.0" y="112" type="line" smooth="yes"/>
      <point x="-94.0" y="80"/>
      <point x="-80.0" y="66"/>
      <point x="-48.0" y="66" type="curve" smooth="yes"/>
    </contour>
  </outline>
</glyph>
<glyph name="colonsign" format="1">
  <advance width="628"/>
  <unicode hex="20A1"/>
  <outline>
    <contour>
      <point x="217.0" y="-159" type="curve"/>
      <point x="265.0" y="-119" type="line"/>
      <point x="265.0" y="-123" type="line" smooth="yes"/>
      <point x="265.0" y="-155"/>
      <point x="279.0" y="-169"/>
      <point x="311.0" y="-169" type="curve" smooth="yes"/>
      <point x="336.0" y="-169" type="line" smooth="yes"/>
      <point x="350.0" y="-169"/>
      <point x="361.0" y="-165"/>
      <point x="367.0" y="-159" type="curve"/>
      <point x="497.0" y="-51" type="line" smooth="yes"/>
      <point x="505.0" y="-44"/>
      <point x="510.0" y="-34"/>
      <point x="511.0" y="-19" type="curve"/>
      <point x="580.0" y="39" type="line" smooth="yes"/>
      <point x="589.0" y="47"/>
      <point x="594.0" y="58"/>
      <point x="594.0" y="76" type="curve" smooth="yes"/>
      <point x="594.0" y="195" type="line" smooth="yes"/>
      <point x="594.0" y="227"/>
      <point x="580.0" y="241"/>
      <point x="548.0" y="241" type="curve" smooth="yes"/>
      <point x="347.0" y="241" type="line" smooth="yes"/>
      <point x="306.0" y="241"/>
      <point x="296.0" y="256"/>
      <point x="296.0" y="279" type="curve" smooth="yes"/>
      <point x="296.0" y="368" type="line"/>
      <point x="419.0" y="368" type="line" smooth="yes"/>
      <point x="433.0" y="368"/>
      <point x="444.0" y="372"/>
      <point x="450.0" y="378" type="curve"/>
      <point x="580.0" y="486" type="line" smooth="yes"/>
      <point x="589.0" y="494"/>
      <point x="594.0" y="505"/>
      <point x="594.0" y="523" type="curve" smooth="yes"/>
      <point x="594.0" y="644" type="line" smooth="yes"/>
      <point x="594.0" y="676"/>
      <point x="580.0" y="690"/>
      <point x="548.0" y="690" type="curve" smooth="yes"/>
      <point x="511.0" y="690" type="line"/>
      <point x="511.0" y="734" type="line" smooth="yes"/>
      <point x="511.0" y="766"/>
      <point x="497.0" y="780"/>
      <point x="465.0" y="780" type="curve" smooth="yes"/>
      <point x="440.0" y="780" type="line" smooth="yes"/>
      <point x="426.0" y="780"/>
      <point x="415.0" y="777"/>
      <point x="408.0" y="771" type="curve" smooth="yes"/>
      <point x="361.0" y="731" type="line"/>
      <point x="361.0" y="734" type="line" smooth="yes"/>
      <point x="361.0" y="766"/>
      <point x="347.0" y="780"/>
      <point x="315.0" y="780" type="curve" smooth="yes"/>
      <point x="290.0" y="780" type="line" smooth="yes"/>
      <point x="276.0" y="780"/>
      <point x="265.0" y="777"/>
      <point x="258.0" y="771" type="curve" smooth="yes"/>
      <point x="129.0" y="662" type="line" smooth="yes"/>
      <point x="123.0" y="657"/>
      <point x="119.0" y="651"/>
      <point x="116.0" y="642" type="curve"/>
      <point x="115.0" y="641"/>
      <point x="113.0" y="639"/>
      <point x="111.0" y="638" type="curve" smooth="yes"/>
      <point x="-18.0" y="529" type="line" smooth="yes"/>
      <point x="-64.0" y="491"/>
      <point x="-81.0" y="434"/>
      <point x="-81.0" y="366" type="curve" smooth="yes"/>
      <point x="-81.0" y="135" type="line" smooth="yes"/>
      <point x="-81.0" y="22"/>
      <point x="-34.0" y="-59"/>
      <point x="115.0" y="-76" type="curve"/>
      <point x="115.0" y="-123" type="line" smooth="yes"/>
      <point x="115.0" y="-155"/>
      <point x="129.0" y="-169"/>
      <point x="161.0" y="-169" type="curve" smooth="yes"/>
      <point x="186.0" y="-169" type="line" smooth="yes"/>
      <point x="200.0" y="-169"/>
      <point x="211.0" y="-165"/>
    </contour>
  </outline>
</glyph>
<glyph name="dong" format="1">
  <advance width="682"/>
  <unicode hex="20AB"/>
  <outline>
    <contour>
      <point x="364.0" y="-293" type="line" smooth="yes"/>
      <point x="378.0" y="-293"/>
      <point x="389.0" y="-289"/>
      <point x="395.0" y="-283" type="curve"/>
      <point x="525.0" y="-175" type="line" smooth="yes"/>
      <point x="534.0" y="-167"/>
      <point x="539.0" y="-156"/>
      <point x="539.0" y="-138" type="curve" smooth="yes"/>
      <point x="539.0" y="-81" type="line" smooth="yes"/>
      <point x="539.0" y="-48"/>
      <point x="525.0" y="-35"/>
      <point x="493.0" y="-35" type="curve" smooth="yes"/>
      <point x="441.0" y="-35" type="line"/>
      <point x="534.0" y="43" type="line" smooth="yes"/>
      <point x="576.0" y="78"/>
      <point x="590.0" y="127"/>
      <point x="590.0" y="184" type="curve" smooth="yes"/>
      <point x="590.0" y="479" type="line"/>
      <point x="645.0" y="525" type="line" smooth="yes"/>
      <point x="654.0" y="533"/>
      <point x="659.0" y="544"/>
      <point x="659.0" y="562" type="curve" smooth="yes"/>
      <point x="659.0" y="609" type="line" smooth="yes"/>
      <point x="659.0" y="642"/>
      <point x="645.0" y="655"/>
      <point x="613.0" y="655" type="curve" smooth="yes"/>
      <point x="590.0" y="655" type="line"/>
      <point x="590.0" y="684" type="line" smooth="yes"/>
      <point x="590.0" y="716"/>
      <point x="576.0" y="730"/>
      <point x="544.0" y="730" type="curve" smooth="yes"/>
      <point x="419.0" y="730" type="line" smooth="yes"/>
      <point x="405.0" y="730"/>
      <point x="394.0" y="727"/>
      <point x="387.0" y="721" type="curve" smooth="yes"/>
      <point x="308.0" y="655" type="line"/>
      <point x="295.0" y="655" type="line" smooth="yes"/>
      <point x="280.0" y="655"/>
      <point x="270.0" y="652"/>
      <point x="263.0" y="646" type="curve" smooth="yes"/>
      <point x="133.0" y="537" type="line" smooth="yes"/>
      <point x="125.0" y="530"/>
      <point x="120.0" y="518"/>
      <point x="120.0" y="500" type="curve" smooth="yes"/>
      <point x="120.0" y="450" type="line"/>
      <point x="107.0" y="445"/>
      <point x="97.0" y="438"/>
      <point x="87.0" y="429" type="curve" smooth="yes"/>
      <point x="-42.0" y="321" type="line" smooth="yes"/>
      <point x="-80.0" y="289"/>
      <point x="-99.0" y="239"/>
      <point x="-99.0" y="170" type="curve" smooth="yes"/>
      <point x="-99.0" y="75" type="line" smooth="yes"/>
      <point x="-99.0" y="-7"/>
      <point x="-71.0" y="-70"/>
      <point x="25.0" y="-101" type="curve"/>
      <point x="-37.0" y="-153" type="line" smooth="yes"/>
      <point x="-45.0" y="-160"/>
      <point x="-50.0" y="-172"/>
      <point x="-50.0" y="-190" type="curve" smooth="yes"/>
      <point x="-50.0" y="-247" type="line" smooth="yes"/>
      <point x="-50.0" y="-280"/>
      <point x="-36.0" y="-293"/>
      <point x="-4.0" y="-293" type="curve" smooth="yes"/>
    </contour>
  </outline>
</glyph>
<glyph name="liter" format="1">
  <advance width="649"/>
  <unicode hex="2113"/>
  <outline>
    <contour>
      <point x="349.0" y="-119" type="line" smooth="yes"/>
      <point x="363.0" y="-119"/>
      <point x="374.0" y="-115"/>
      <point x="380.0" y="-109" type="curve"/>
      <point x="510.0" y="-1" type="line" smooth="yes"/>
      <point x="519.0" y="7"/>
      <point x="524.0" y="18"/>
      <point x="524.0" y="36" type="curve" smooth="yes"/>
      <point x="524.0" y="153" type="line" smooth="yes"/>
      <point x="524.0" y="185"/>
      <point x="510.0" y="199"/>
      <point x="478.0" y="199" type="curve" smooth="yes"/>
      <point x="433.0" y="199" type="line"/>
      <point x="544.0" y="292" type="line" smooth="yes"/>
      <point x="587.0" y="327"/>
      <point x="601.0" y="378"/>
      <point x="601.0" y="437" type="curve" smooth="yes"/>
      <point x="601.0" y="531" type="line" smooth="yes"/>
      <point x="601.0" y="658"/>
      <point x="549.0" y="745"/>
      <point x="320.0" y="745" type="curve" smooth="yes"/>
      <point x="215.0" y="745"/>
      <point x="149.0" y="725"/>
      <point x="108.0" y="691" type="curve" smooth="yes"/>
      <point x="-21.0" y="582" type="line" smooth="yes"/>
      <point x="-67.0" y="544"/>
      <point x="-81.0" y="489"/>
      <point x="-81.0" y="422" type="curve" smooth="yes"/>
      <point x="-81.0" y="95" type="line" smooth="yes"/>
      <point x="-81.0" y="-31"/>
      <point x="-23.0" y="-119"/>
      <point x="175.0" y="-119" type="curve" smooth="yes"/>
    </contour>
  </outline>
</glyph>
<glyph name="arrowdownright" format="1">
  <advance width="1000"/>
  <unicode hex="2198"/>
  <outline>
    <contour>
      <point x="624.0" y="-11" type="curve" smooth="yes"/>
      <point x="754.0" y="98" type="line"/>
      <point x="754.0" y="99" type="line"/>
      <point x="755.0" y="99" type="line" smooth="yes"/>
      <point x="758.0" y="102" type="line" smooth="yes"/>
      <point x="776.0" y="121"/>
      <point x="777.0" y="141"/>
      <point x="771.0" y="167" type="curve" smooth="yes"/>
      <point x="693.0" y="577" type="line" smooth="yes"/>
      <point x="684.0" y="614"/>
      <point x="645.0" y="625"/>
      <point x="625.0" y="608" type="curve" smooth="yes"/>
      <point x="500.0" y="503" type="line"/>
      <point x="397.0" y="619" type="line" smooth="yes"/>
      <point x="379.0" y="639"/>
      <point x="360.0" y="638"/>
      <point x="344.0" y="625" type="curve" smooth="yes"/>
      <point x="214.0" y="516" type="line"/>
      <point x="214.0" y="515" type="line" smooth="yes"/>
      <point x="211.0" y="513"/>
      <point x="209.0" y="511"/>
      <point x="207.0" y="508" type="curve"/>
      <point x="114.0" y="416" type="line" smooth="yes"/>
      <point x="93.0" y="395"/>
      <point x="91.0" y="375"/>
      <point x="113.0" y="355" type="curve" smooth="yes"/>
      <point x="239.0" y="244" type="line"/>
      <point x="126.0" y="129" type="line" smooth="yes"/>
      <point x="106.0" y="109"/>
      <point x="118.0" y="68"/>
      <point x="154.0" y="59" type="curve" smooth="yes"/>
      <point x="155.0" y="59" type="line"/>
      <point x="565.0" y="-20" type="line" smooth="yes"/>
      <point x="588.0" y="-25"/>
      <point x="608.0" y="-25"/>
    </contour>
  </outline>
</glyph>
<glyph name="uni21B1" format="1">
  <advance width="1000"/>
  <unicode hex="21B1"/>
  <outline>
    <contour>
      <point x="195.0" y="-119" type="line" smooth="yes"/>
      <point x="208.0" y="-119"/>
      <point x="218.0" y="-115"/>
      <point x="224.0" y="-110" type="curve" smooth="yes"/>
      <point x="354.0" y="-1" type="line"/>
      <point x="355.0" y="0" type="line" smooth="yes"/>
      <point x="362.0" y="7"/>
      <point x="366.0" y="16"/>
      <point x="365.0" y="30" type="curve"/>
      <point x="365.0" y="51" type="line"/>
      <point x="368.0" y="52"/>
      <point x="372.0" y="53"/>
      <point x="375.0" y="55" type="curve"/>
      <point x="700.0" y="274" type="line" smooth="yes"/>
      <point x="704.0" y="277"/>
      <point x="709.0" y="280"/>
      <point x="714.0" y="284" type="curve"/>
      <point x="842.0" y="392" type="line" smooth="yes"/>
      <point x="856.0" y="403"/>
      <point x="863.0" y="416"/>
      <point x="863.0" y="434" type="curve" smooth="yes"/>
      <point x="863.0" y="458"/>
      <point x="850.0" y="473"/>
      <point x="828.0" y="485" type="curve"/>
      <point x="505.0" y="702" type="line" smooth="yes"/>
      <point x="485.0" y="715"/>
      <point x="461.0" y="711"/>
      <point x="448.0" y="699" type="curve" smooth="yes"/>
      <point x="319.0" y="592" type="line"/>
      <point x="318.0" y="591" type="line" smooth="yes"/>
      <point x="311.0" y="584"/>
      <point x="307.0" y="575"/>
      <point x="308.0" y="565" type="curve" smooth="yes"/>
      <point x="308.0" y="564" type="line"/>
      <point x="320.0" y="519" type="line"/>
      <point x="282.0" y="511"/>
      <point x="254.0" y="498"/>
      <point x="233.0" y="481" type="curve" smooth="yes"/>
      <point x="104.0" y="372" type="line" smooth="yes"/>
      <point x="63.0" y="339"/>
      <point x="49.0" y="289"/>
      <point x="49.0" y="230" type="curve" smooth="yes"/>
      <point x="49.0" y="-79" type="line" smooth="yes"/>
      <point x="49.0" y="-105"/>
      <point x="61.0" y="-119"/>
      <point x="90.0" y="-119" type="curve" smooth="yes"/>
    </contour>
  </outline>
</glyph>
<glyph name="Delta" format="1">
  <advance width="730"/>
  <unicode hex="2206"/>
  <unicode hex="0394"/>
  <outline>
    <contour>
      <point x="511.0" y="-119" type="line" smooth="yes"/>
      <point x="524.0" y="-119"/>
      <point x="535.0" y="-115"/>
      <point x="543.0" y="-110" type="curve" smooth="yes"/>
      <point x="672.0" y="-1" type="line" smooth="yes"/>
      <point x="681.0" y="7"/>
      <point x="686.0" y="18"/>
      <point x="686.0" y="36" type="curve" smooth="yes"/>
      <point x="686.0" y="170" type="line" smooth="yes"/>
      <point x="686.0" y="230"/>
      <point x="670.0" y="290"/>
      <point x="657.0" y="342" type="curve" smooth="yes"/>
      <point x="570.0" y="681" type="line"/>
      <point x="570.0" y="682" type="line"/>
      <point x="569.0" y="683" type="line" smooth="yes"/>
      <point x="555.0" y="717"/>
      <point x="537.0" y="730"/>
      <point x="499.0" y="730" type="curve" smooth="yes"/>
      <point x="232.0" y="730" type="line" smooth="yes"/>
      <point x="210.0" y="730"/>
      <point x="196.0" y="725"/>
      <point x="183.0" y="716" type="curve"/>
      <point x="54.0" y="607" type="line"/>
      <point x="45.0" y="600"/>
      <point x="37.0" y="589"/>
      <point x="32.0" y="574" type="curve" smooth="yes"/>
      <point x="31.0" y="573" type="line"/>
      <point x="-56.0" y="233" type="line" smooth="yes"/>
      <point x="-69.0" y="181"/>
      <point x="-85.0" y="121"/>
      <point x="-85.0" y="61" type="curve" smooth="yes"/>
      <point x="-85.0" y="-73" type="line" smooth="yes"/>
      <point x="-85.0" y="-105"/>
      <point x="-71.0" y="-119"/>
      <point x="-39.0" y="-119" type="curve" smooth="yes"/>
    </contour>
  </outline>
</glyph>
<glyph name="lessequal" format="1">
  <advance width="714"/>
  <unicode hex="2264"/>
  <outline>
    <contour>
      <point x="459" y="-119" type="line" smooth="yes"/>
      <point x="472" y="-119"/>
      <point x="483" y="-115"/>
      <point x="491" y="-110" type="curve" smooth="yes"/>
      <point x="620" y="-1" type="line" smooth="yes"/>
      <point x="629" y="7"/>
      <point x="634" y="18"/>
      <point x="634" y="36" type="curve"/>
      <point x="634" y="292" type="line" smooth="yes"/>
      <point x="634" y="324"/>
      <point x="621" y="338"/>
      <point x="590" y="343" type="curve"/>
      <point x="407" y="392" type="line"/>
      <point x="462" y="406" type="line"/>
      <point x="473" y="409"/>
      <point x="482" y="412"/>
      <point x="489" y="418" type="curve" smooth="yes"/>
      <point x="619" y="527" type="line" smooth="yes"/>
      <point x="628" y="535"/>
      <point x="634" y="547"/>
      <point x="634" y="566" type="curve" smooth="yes"/>
      <point x="634" y="698" type="line" smooth="yes"/>
      <point x="634" y="733"/>
      <point x="619" y="745"/>
      <point x="586" y="739" type="curve"/>
      <point x="204" y="630" type="line" smooth="yes"/>
      <point x="168" y="619"/>
      <point x="139" y="606"/>
      <point x="117" y="589" type="curve" smooth="yes"/>
      <point x="-12" y="480" type="line" smooth="yes"/>
      <point x="-43" y="454"/>
      <point x="-59" y="418"/>
      <point x="-59" y="356" type="curve" smooth="yes"/>
      <point x="-59" y="284" type="line" smooth="yes"/>
      <point x="-59" y="201"/>
      <point x="-31" y="163"/>
      <point x="24" y="137" type="curve"/>
      <point x="-46" y="78" type="line" smooth="yes"/>
      <point x="-55" y="70"/>
      <point x="-60" y="59"/>
      <point x="-60" y="41" type="curve" smooth="yes"/>
      <point x="-60" y="-73" type="line" smooth="yes"/>
      <point x="-60" y="-106"/>
      <point x="-46" y="-119"/>
      <point x="-14" y="-119" type="curve" smooth="yes"/>
    </contour>
  </outline>
</glyph>
<glyph name="greaterequal" format="1">
  <advance width="714"/>
  <unicode hex="2265"/>
  <outline>
    <contour>
      <point x="469" y="-119" type="line" smooth="yes"/>
      <point x="482" y="-119"/>
      <point x="493" y="-115"/>
      <point x="501" y="-110" type="curve" smooth="yes"/>
      <point x="630" y="-1" type="line" smooth="yes"/>
      <point x="639" y="7"/>
      <point x="644" y="18"/>
      <point x="644" y="36" type="curve"/>
      <point x="644" y="150" type="line"/>
      <point x="644" y="183"/>
      <point x="630" y="196"/>
      <point x="598" y="196" type="curve"/>
      <point x="510" y="196" type="line"/>
      <point x="597" y="269" type="line" smooth="yes"/>
      <point x="627" y="295"/>
      <point x="644" y="332"/>
      <point x="644" y="393" type="curve" smooth="yes"/>
      <point x="644" y="465" type="line" smooth="yes"/>
      <point x="644" y="570"/>
      <point x="598" y="604"/>
      <point x="510" y="630" type="curve" smooth="yes"/>
      <point x="129" y="739" type="line"/>
      <point x="128" y="739" type="line" smooth="yes"/>
      <point x="112" y="742"/>
      <point x="100" y="739"/>
      <point x="93" y="733" type="curve" smooth="yes"/>
      <point x="-37" y="625" type="line" smooth="yes"/>
      <point x="-45" y="618"/>
      <point x="-49" y="607"/>
      <point x="-49" y="589" type="curve" smooth="yes"/>
      <point x="-49" y="457" type="line" smooth="yes"/>
      <point x="-49" y="425"/>
      <point x="-36" y="411"/>
      <point x="-5" y="406" type="curve"/>
      <point x="178" y="357" type="line"/>
      <point x="123" y="343" type="line"/>
      <point x="111" y="340"/>
      <point x="102" y="337"/>
      <point x="95" y="331" type="curve" smooth="yes"/>
      <point x="-34" y="223" type="line" smooth="yes"/>
      <point x="-44" y="214"/>
      <point x="-49" y="202"/>
      <point x="-49" y="183" type="curve" smooth="yes"/>
      <point x="-49" y="51" type="line" smooth="yes"/>
      <point x="-49" y="46" type="line"/>
      <point x="-49" y="45"/>
      <point x="-49" y="43"/>
      <point x="-49" y="41" type="curve" smooth="yes"/>
      <point x="-49" y="-73" type="line" smooth="yes"/>
      <point x="-49" y="-106"/>
      <point x="-35" y="-119"/>
      <point x="-3" y="-119" type="curve" smooth="yes"/>
    </contour>
  </outline>
</glyph>
<glyph name="Aogonek.salt" format="1">
  <advance width="736"/>
  <unicode hex="E109"/>
  <outline>
    <contour>
      <point x="510" y="-305" type="line" smooth="yes"/>
      <point x="524" y="-305"/>
      <point x="534" y="-302"/>
      <point x="540" y="-297" type="curve" smooth="yes"/>
      <point x="671" y="-188" type="line" smooth="yes"/>
      <point x="678" y="-181"/>
      <point x="682" y="-170"/>
      <point x="682" y="-152" type="curve" smooth="yes"/>
      <point x="682" y="-80" type="line" smooth="yes"/>
      <point x="682" y="-47"/>
      <point x="672" y="-36"/>
      <point x="636" y="-36" type="curve" smooth="yes"/>
      <point x="626" y="-36" type="line"/>
      <point x="668" y="-1" type="line" smooth="yes"/>
      <point x="677" y="7"/>
      <point x="682" y="18"/>
      <point x="682" y="36" type="curve" smooth="yes"/>
      <point x="682" y="531" type="line" smooth="yes"/>
      <point x="682" y="656"/>
      <point x="628" y="745"/>
      <point x="367" y="745" type="curve" smooth="yes"/>
      <point x="236" y="745"/>
      <point x="159" y="722"/>
      <point x="114" y="684" type="curve" smooth="yes"/>
      <point x="-16" y="576" type="line" smooth="yes"/>
      <point x="-61" y="538"/>
      <point x="-75" y="485"/>
      <point x="-75" y="422" type="curve" smooth="yes"/>
      <point x="-75" y="-73" type="line" smooth="yes"/>
      <point x="-75" y="-105"/>
      <point x="-61" y="-119"/>
      <point x="-29" y="-119" type="curve" smooth="yes"/>
      <point x="118" y="-119" type="line" smooth="yes"/>
      <point x="132" y="-119"/>
      <point x="143" y="-115"/>
      <point x="149" y="-109" type="curve"/>
      <point x="279" y="-1" type="line" smooth="yes"/>
      <point x="288" y="7"/>
      <point x="293" y="18"/>
      <point x="293" y="36" type="curve" smooth="yes"/>
      <point x="293" y="66" type="line"/>
      <point x="309" y="66" type="line"/>
      <point x="309" y="-43" type="line"/>
      <point x="288" y="-158" type="line" smooth="yes"/>
      <point x="273" y="-261"/>
      <point x="306" y="-305"/>
      <point x="399" y="-305" type="curve" smooth="yes"/>
    </contour>
    <contour>
      <point x="309" y="388" type="curve" smooth="yes"/>
      <point x="309" y="378" type="line"/>
      <point x="293" y="378" type="line"/>
      <point x="293" y="417" type="line"/>
      <point x="305" y="410"/>
      <point x="309" y="400"/>
    </contour>
  </outline>
</glyph>
<glyph name="Eogonek.salt" format="1">
  <advance width="643"/>
  <unicode hex="E112"/>
  <outline>
    <contour>
      <point x="432" y="-305" type="line" smooth="yes"/>
      <point x="446" y="-305"/>
      <point x="456" y="-302"/>
      <point x="462" y="-297" type="curve" smooth="yes"/>
      <point x="593" y="-188" type="line" smooth="yes"/>
      <point x="600" y="-181"/>
      <point x="604" y="-170"/>
      <point x="604" y="-152" type="curve" smooth="yes"/>
      <point x="604" y="-80" type="line" smooth="yes"/>
      <point x="604" y="-47"/>
      <point x="594" y="-36"/>
      <point x="558" y="-36" type="curve" smooth="yes"/>
      <point x="548" y="-36" type="line"/>
      <point x="590" y="-1" type="line" smooth="yes"/>
      <point x="599" y="7"/>
      <point x="604" y="18"/>
      <point x="604" y="36" type="curve" smooth="yes"/>
      <point x="604" y="153" type="line" smooth="yes"/>
      <point x="604" y="185"/>
      <point x="590" y="199"/>
      <point x="558" y="199" type="curve" smooth="yes"/>
      <point x="421" y="199" type="line"/>
      <point x="510" y="274" type="line" smooth="yes"/>
      <point x="519" y="282"/>
      <point x="524" y="293"/>
      <point x="524" y="311" type="curve" smooth="yes"/>
      <point x="524" y="418" type="line" smooth="yes"/>
      <point x="524" y="440"/>
      <point x="518" y="453"/>
      <point x="505" y="459" type="curve"/>
      <point x="590" y="530" type="line" smooth="yes"/>
      <point x="599" y="538"/>
      <point x="604" y="549"/>
      <point x="604" y="567" type="curve" smooth="yes"/>
      <point x="604" y="684" type="line" smooth="yes"/>
      <point x="604" y="716"/>
      <point x="590" y="730"/>
      <point x="558" y="730" type="curve" smooth="yes"/>
      <point x="304" y="730" type="line" smooth="yes"/>
      <point x="212" y="730"/>
      <point x="150" y="711"/>
      <point x="111" y="678" type="curve" smooth="yes"/>
      <point x="-18" y="569" type="line" smooth="yes"/>
      <point x="-64" y="531"/>
      <point x="-81" y="474"/>
      <point x="-81" y="406" type="curve" smooth="yes"/>
      <point x="-81" y="125" type="line" smooth="yes"/>
      <point x="-81" y="-1"/>
      <point x="-23" y="-119"/>
      <point x="175" y="-119" type="curve" smooth="yes"/>
      <point x="217" y="-119" type="line"/>
      <point x="210" y="-158" type="line" smooth="yes"/>
      <point x="195" y="-261"/>
      <point x="228" y="-305"/>
      <point x="321" y="-305" type="curve" smooth="yes"/>
    </contour>
  </outline>
</glyph>
<glyph name="Igrave.salt" format="1">
  <advance width="371.0"/>
  <unicode hex="E115"/>
  <outline>
    <contour>
      <point x="136" y="-119" type="line" smooth="yes"/>
      <point x="150" y="-119"/>
      <point x="161" y="-115"/>
      <point x="167" y="-109" type="curve"/>
      <point x="297" y="-1" type="line" smooth="yes"/>
      <point x="306" y="7"/>
      <point x="311" y="18"/>
      <point x="311" y="36" type="curve" smooth="yes"/>
      <point x="311" y="684" type="line" smooth="yes"/>
      <point x="311" y="688"/>
      <point x="311" y="692"/>
      <point x="310" y="696" type="curve"/>
      <point x="375" y="750" type="line" smooth="yes"/>
      <point x="384" y="758"/>
      <point x="389" y="769"/>
      <point x="389" y="786" type="curve" smooth="yes"/>
      <point x="389" y="882" type="line" smooth="yes"/>
      <point x="389" y="913"/>
      <point x="376" y="924"/>
      <point x="344" y="928" type="curve" smooth="yes"/>
      <point x="23" y="969" type="line" smooth="yes"/>
      <point x="10" y="971"/>
      <point x="-1" y="968"/>
      <point x="-8" y="962" type="curve" smooth="yes"/>
      <point x="-137" y="853" type="line" smooth="yes"/>
      <point x="-146" y="845"/>
      <point x="-151" y="834"/>
      <point x="-151" y="817" type="curve" smooth="yes"/>
      <point x="-151" y="721" type="line" smooth="yes"/>
      <point x="-151" y="690"/>
      <point x="-138" y="679"/>
      <point x="-106" y="675" type="curve"/>
      <point x="3" y="661" type="line"/>
      <point x="-55" y="612" type="line" smooth="yes"/>
      <point x="-64" y="604"/>
      <point x="-69" y="593"/>
      <point x="-69" y="575" type="curve" smooth="yes"/>
      <point x="-69" y="-73" type="line" smooth="yes"/>
      <point x="-69" y="-105"/>
      <point x="-55" y="-119"/>
      <point x="-23" y="-119" type="curve" smooth="yes"/>
    </contour>
  </outline>
</glyph>
<glyph name="Iacute.salt" format="1">
  <advance width="371.0"/>
  <unicode hex="E116"/>
  <outline>
    <contour>
      <point x="136" y="-119" type="line" smooth="yes"/>
      <point x="150" y="-119"/>
      <point x="161" y="-115"/>
      <point x="167" y="-109" type="curve"/>
      <point x="297" y="-1" type="line" smooth="yes"/>
      <point x="306" y="7"/>
      <point x="311" y="18"/>
      <point x="311" y="36" type="curve" smooth="yes"/>
      <point x="311" y="684" type="line" smooth="yes"/>
      <point x="311" y="705"/>
      <point x="305" y="718"/>
      <point x="292" y="725" type="curve"/>
      <point x="377" y="797" type="line"/>
      <point x="386" y="803"/>
      <point x="391" y="815"/>
      <point x="391" y="832" type="curve" smooth="yes"/>
      <point x="391" y="928" type="line" smooth="yes"/>
      <point x="391" y="959"/>
      <point x="376" y="975"/>
      <point x="346" y="971" type="curve" smooth="yes"/>
      <point x="26" y="928" type="line" smooth="yes"/>
      <point x="12" y="926"/>
      <point x="1" y="922"/>
      <point x="-5" y="917" type="curve" smooth="yes"/>
      <point x="-134" y="808" type="line" smooth="yes"/>
      <point x="-142" y="801"/>
      <point x="-147" y="791"/>
      <point x="-147" y="773" type="curve" smooth="yes"/>
      <point x="-147" y="677" type="line" smooth="yes"/>
      <point x="-147" y="646"/>
      <point x="-132" y="630"/>
      <point x="-102" y="634" type="curve" smooth="yes"/>
      <point x="-15" y="646" type="line"/>
      <point x="-55" y="612" type="line" smooth="yes"/>
      <point x="-64" y="604"/>
      <point x="-69" y="593"/>
      <point x="-69" y="575" type="curve" smooth="yes"/>
      <point x="-69" y="-73" type="line" smooth="yes"/>
      <point x="-69" y="-105"/>
      <point x="-55" y="-119"/>
      <point x="-23" y="-119" type="curve" smooth="yes"/>
    </contour>
  </outline>
</glyph>
<glyph name="Iogonek.salt" format="1">
  <advance width="371.0"/>
  <unicode hex="E11C"/>
  <outline>
    <contour>
      <point x="135" y="-305" type="line" smooth="yes"/>
      <point x="149" y="-305"/>
      <point x="159" y="-302"/>
      <point x="165" y="-297" type="curve" smooth="yes"/>
      <point x="296" y="-188" type="line" smooth="yes"/>
      <point x="303" y="-181"/>
      <point x="307" y="-170"/>
      <point x="307" y="-152" type="curve" smooth="yes"/>
      <point x="307" y="-80" type="line" smooth="yes"/>
      <point x="307" y="-47"/>
      <point x="297" y="-36"/>
      <point x="261" y="-36" type="curve" smooth="yes"/>
      <point x="255" y="-36" type="line"/>
      <point x="297" y="-1" type="line" smooth="yes"/>
      <point x="306" y="7"/>
      <point x="311" y="18"/>
      <point x="311" y="36" type="curve" smooth="yes"/>
      <point x="311" y="684" type="line" smooth="yes"/>
      <point x="311" y="716"/>
      <point x="297" y="730"/>
      <point x="265" y="730" type="curve" smooth="yes"/>
      <point x="106" y="730" type="line" smooth="yes"/>
      <point x="92" y="730"/>
      <point x="81" y="727"/>
      <point x="74" y="721" type="curve" smooth="yes"/>
      <point x="-55" y="612" type="line" smooth="yes"/>
      <point x="-64" y="604"/>
      <point x="-69" y="593"/>
      <point x="-69" y="575" type="curve" smooth="yes"/>
      <point x="-69" y="-59" type="line"/>
      <point x="-87" y="-158" type="line" smooth="yes"/>
      <point x="-102" y="-261"/>
      <point x="-69" y="-305"/>
      <point x="24" y="-305" type="curve" smooth="yes"/>
    </contour>
  </outline>
</glyph>
<glyph name="Lslash.salt" format="1">
  <advance width="625"/>
  <unicode hex="E123"/>
  <outline>
    <contour>
      <point x="237" y="216" type="line" smooth="yes"/>
      <point x="255" y="219"/>
      <point x="262" y="221"/>
      <point x="271" y="229" type="curve" smooth="yes"/>
      <point x="397" y="336" type="line" smooth="yes"/>
      <point x="407" y="344"/>
      <point x="410" y="357"/>
      <point x="410" y="371" type="curve" smooth="yes"/>
      <point x="410" y="478" type="line" smooth="yes"/>
      <point x="410" y="513"/>
      <point x="394" y="529"/>
      <point x="362" y="524" type="curve" smooth="yes"/>
      <point x="54" y="474" type="line" smooth="yes"/>
      <point x="36" y="471"/>
      <point x="29" y="469"/>
      <point x="20" y="461" type="curve" smooth="yes"/>
      <point x="-106" y="354" type="line" smooth="yes"/>
      <point x="-116" y="346"/>
      <point x="-119" y="333"/>
      <point x="-119" y="319" type="curve" smooth="yes"/>
      <point x="-119" y="212" type="line"/>
      <point x="-119" y="177"/>
      <point x="-103" y="161"/>
      <point x="-71" y="166" type="curve" smooth="yes"/>
    </contour>
    <contour>
      <point x="432" y="-119" type="line" smooth="yes"/>
      <point x="446" y="-119"/>
      <point x="457" y="-115"/>
      <point x="463" y="-109" type="curve"/>
      <point x="593" y="-1" type="line" smooth="yes"/>
      <point x="602" y="7"/>
      <point x="607" y="18"/>
      <point x="607" y="36" type="curve" smooth="yes"/>
      <point x="607" y="157" type="line"/>
      <point x="607" y="189"/>
      <point x="593" y="203"/>
      <point x="561" y="203" type="curve" smooth="yes"/>
      <point x="316" y="203" type="line"/>
      <point x="316" y="684" type="line" smooth="yes"/>
      <point x="316" y="716"/>
      <point x="302" y="730"/>
      <point x="270" y="730" type="curve" smooth="yes"/>
      <point x="115" y="730" type="line" smooth="yes"/>
      <point x="101" y="730"/>
      <point x="90" y="727"/>
      <point x="83" y="721" type="curve" smooth="yes"/>
      <point x="-46" y="612" type="line" smooth="yes"/>
      <point x="-55" y="604"/>
      <point x="-60" y="593"/>
      <point x="-60" y="575" type="curve" smooth="yes"/>
      <point x="-60" y="-73" type="line" smooth="yes"/>
      <point x="-60" y="-105"/>
      <point x="-46" y="-119"/>
      <point x="-14" y="-119" type="curve" smooth="yes"/>
    </contour>
  </outline>
</glyph>
<glyph name="M.salt" format="1">
  <advance width="1070"/>
  <unicode hex="E124"/>
  <outline>
    <contour>
      <point x="155.0" y="-110" type="curve" smooth="yes"/>
      <point x="284.0" y="-1" type="line"/>
      <point x="284.0" y="-73" type="line" smooth="yes"/>
      <point x="284.0" y="-105"/>
      <point x="298.0" y="-119"/>
      <point x="330.0" y="-119" type="curve" smooth="yes"/>
      <point x="482.0" y="-119" type="line" smooth="yes"/>
      <point x="496.0" y="-119"/>
      <point x="507.0" y="-115"/>
      <point x="513.0" y="-109" type="curve"/>
      <point x="643.0" y="-1" type="line"/>
      <point x="643.0" y="-73" type="line" smooth="yes"/>
      <point x="643.0" y="-105"/>
      <point x="656.0" y="-119"/>
      <point x="689.0" y="-119" type="curve" smooth="yes"/>
      <point x="841.0" y="-119" type="line" smooth="yes"/>
      <point x="855.0" y="-119"/>
      <point x="866.0" y="-115"/>
      <point x="872.0" y="-109" type="curve"/>
      <point x="1002.0" y="-1" type="line" smooth="yes"/>
      <point x="1011.0" y="7"/>
      <point x="1016.0" y="18"/>
      <point x="1016.0" y="36" type="curve" smooth="yes"/>
      <point x="1016.0" y="531" type="line" smooth="yes"/>
      <point x="1016.0" y="658"/>
      <point x="964.0" y="745"/>
      <point x="742.0" y="745" type="curve" smooth="yes"/>
      <point x="642.0" y="745"/>
      <point x="577.0" y="727"/>
      <point x="535.0" y="696" type="curve"/>
      <point x="493.0" y="727"/>
      <point x="428.0" y="745"/>
      <point x="328.0" y="745" type="curve" smooth="yes"/>
      <point x="223.0" y="745"/>
      <point x="156.0" y="725"/>
      <point x="115.0" y="690" type="curve" smooth="yes"/>
      <point x="-15.0" y="582" type="line" smooth="yes"/>
      <point x="-61.0" y="544"/>
      <point x="-75.0" y="488"/>
      <point x="-75.0" y="422" type="curve" smooth="yes"/>
      <point x="-75.0" y="-73" type="line" smooth="yes"/>
      <point x="-75.0" y="-105"/>
      <point x="-61.0" y="-119"/>
      <point x="-29.0" y="-119" type="curve" smooth="yes"/>
      <point x="123.0" y="-119" type="line" smooth="yes"/>
      <point x="136.0" y="-119"/>
      <point x="147.0" y="-115"/>
    </contour>
    <contour>
      <point x="535.0" y="747.0" type="move" name="top"/>
    </contour>
    <contour>
      <point x="535.0" y="0.0" type="move" name="bottom"/>
    </contour>
  </outline>
</glyph>
<glyph name="W.salt" format="1">
  <advance width="1070.0"/>
  <unicode hex="E12A"/>
  <outline>
    <contour>
      <point x="613.0" y="-134" type="curve" smooth="yes"/>
      <point x="718.0" y="-134"/>
      <point x="785.0" y="-114"/>
      <point x="826.0" y="-79" type="curve" smooth="yes"/>
      <point x="955.0" y="30" type="line" smooth="yes"/>
      <point x="1001.0" y="67"/>
      <point x="1016.0" y="122"/>
      <point x="1016.0" y="189" type="curve" smooth="yes"/>
      <point x="1016.0" y="684" type="line" smooth="yes"/>
      <point x="1016.0" y="716"/>
      <point x="1002.0" y="730"/>
      <point x="970.0" y="730" type="curve" smooth="yes"/>
      <point x="818.0" y="730" type="line" smooth="yes"/>
      <point x="803.0" y="730"/>
      <point x="793.0" y="727"/>
      <point x="786.0" y="721" type="curve" smooth="yes"/>
      <point x="657.0" y="613" type="line"/>
      <point x="657.0" y="684" type="line" smooth="yes"/>
      <point x="657.0" y="716"/>
      <point x="643.0" y="730"/>
      <point x="611.0" y="730" type="curve" smooth="yes"/>
      <point x="459.0" y="730" type="line" smooth="yes"/>
      <point x="445.0" y="730"/>
      <point x="434.0" y="727"/>
      <point x="427.0" y="721" type="curve" smooth="yes"/>
      <point x="298.0" y="612" type="line"/>
      <point x="298.0" y="684" type="line" smooth="yes"/>
      <point x="298.0" y="716"/>
      <point x="285.0" y="730"/>
      <point x="252.0" y="730" type="curve" smooth="yes"/>
      <point x="100.0" y="730" type="line" smooth="yes"/>
      <point x="86.0" y="730"/>
      <point x="75.0" y="727"/>
      <point x="68.0" y="721" type="curve" smooth="yes"/>
      <point x="-61.0" y="612" type="line" smooth="yes"/>
      <point x="-70.0" y="604"/>
      <point x="-75" y="593"/>
      <point x="-75.0" y="575" type="curve" smooth="yes"/>
      <point x="-75" y="110" type="line" smooth="yes"/>
      <point x="-75" y="-17"/>
      <point x="-23.0" y="-134"/>
      <point x="199.0" y="-134" type="curve" smooth="yes"/>
      <point x="299.0" y="-134"/>
      <point x="364.0" y="-116"/>
      <point x="406.0" y="-85" type="curve"/>
      <point x="448.0" y="-116"/>
      <point x="513.0" y="-134"/>
    </contour>
    <contour>
      <point x="535.0" y="747.0" type="move" name="top"/>
    </contour>
    <contour>
      <point x="535.0" y="0.0" type="move" name="bottom"/>
    </contour>
  </outline>
</glyph>
<glyph name="quoteright.salt" format="1">
  <advance width="307.119931271"/>
  <unicode hex="E139"/>
  <outline>
    <contour>
      <point x="-38.0" y="331" type="curve" smooth="yes"/>
      <point x="17.0" y="331" type="line" smooth="yes"/>
      <point x="49.0" y="331"/>
      <point x="77.0" y="340"/>
      <point x="96.0" y="356" type="curve" smooth="yes"/>
      <point x="225.0" y="465" type="line" smooth="yes"/>
      <point x="249.0" y="485"/>
      <point x="263.0" y="516"/>
      <point x="263.0" y="559" type="curve" smooth="yes"/>
      <point x="263.0" y="694" type="line" smooth="yes"/>
      <point x="263.0" y="719"/>
      <point x="252.0" y="730"/>
      <point x="227.0" y="730" type="curve" smooth="yes"/>
      <point x="81.0" y="730" type="line" smooth="yes"/>
      <point x="71.0" y="730"/>
      <point x="62.0" y="729"/>
      <point x="56.0" y="723" type="curve"/>
      <point x="-73.0" y="614" type="line" smooth="yes"/>
      <point x="-80.0" y="608"/>
      <point x="-84.0" y="599"/>
      <point x="-84.0" y="585" type="curve" smooth="yes"/>
      <point x="-84.0" y="479" type="line" smooth="yes"/>
      <point x="-84.0" y="454"/>
      <point x="-73.0" y="443"/>
      <point x="-48.0" y="443" type="curve" smooth="yes"/>
      <point x="-42.0" y="443" type="line"/>
      <point x="-63.0" y="425" type="line" smooth="yes"/>
      <point x="-70.0" y="419"/>
      <point x="-74.0" y="410"/>
      <point x="-74.0" y="396" type="curve" smooth="yes"/>
      <point x="-74.0" y="367" type="line" smooth="yes"/>
      <point x="-74.0" y="342"/>
      <point x="-63.0" y="331"/>
    </contour>
  </outline>
</glyph>
<glyph name="indexupright" format="1">
  <advance width="1000"/>
  <unicode hex="E13F"/>
  <outline>
    <contour>
      <point x="425.0" y="-157" type="curve"/>
      <point x="555.0" y="-47" type="line"/>
      <point x="556.0" y="-46" type="line"/>
      <point x="624.0" y="21" type="line" smooth="yes"/>
      <point x="635.0" y="32"/>
      <point x="636.0" y="49"/>
      <point x="623.0" y="61" type="curve" smooth="yes"/>
      <point x="596.0" y="88" type="line"/>
      <point x="649.0" y="134" type="line"/>
      <point x="655.0" y="140" type="line"/>
      <point x="819.0" y="316" type="line" smooth="yes"/>
      <point x="829.0" y="328"/>
      <point x="831.0" y="348"/>
      <point x="821.0" y="360" type="curve"/>
      <point x="785.0" y="395" type="line"/>
      <point x="781.0" y="400"/>
      <point x="773.0" y="403"/>
      <point x="766.0" y="404" type="curve"/>
      <point x="777.0" y="417"/>
      <point x="780.0" y="431"/>
      <point x="767.0" y="446" type="curve" smooth="yes"/>
      <point x="734.0" y="478" type="line"/>
      <point x="727.0" y="484"/>
      <point x="720.0" y="487"/>
      <point x="713.0" y="488" type="curve"/>
      <point x="725.0" y="503"/>
      <point x="727.0" y="517"/>
      <point x="715.0" y="531" type="curve" smooth="yes"/>
      <point x="715.0" y="532" type="line"/>
      <point x="683.0" y="562" type="line"/>
      <point x="678.0" y="568"/>
      <point x="673.0" y="571"/>
      <point x="668.0" y="571" type="curve"/>
      <point x="779.0" y="683" type="line" smooth="yes"/>
      <point x="795.0" y="698"/>
      <point x="797.0" y="717"/>
      <point x="783.0" y="729" type="curve"/>
      <point x="747.0" y="765" type="line" smooth="yes"/>
      <point x="733.0" y="779"/>
      <point x="713.0" y="774"/>
      <point x="703.0" y="766" type="curve" smooth="yes"/>
      <point x="574.0" y="658" type="line"/>
      <point x="570.0" y="655" type="line"/>
      <point x="570.0" y="654" type="line"/>
      <point x="347.0" y="460" type="line"/>
      <point x="342.0" y="456" type="line" smooth="yes"/>
      <point x="327.0" y="443"/>
      <point x="313.0" y="428"/>
      <point x="306.0" y="416" type="curve" smooth="yes"/>
      <point x="291.0" y="394" type="line"/>
      <point x="289.0" y="395" type="line"/>
      <point x="277.0" y="409"/>
      <point x="261.0" y="408"/>
      <point x="251.0" y="399" type="curve" smooth="yes"/>
      <point x="121.0" y="290" type="line"/>
      <point x="120.0" y="289" type="line" smooth="yes"/>
      <point x="120.0" y="289"/>
      <point x="119.0" y="288"/>
      <point x="118.0" y="286" type="curve"/>
      <point x="52.0" y="220" type="line" smooth="yes"/>
      <point x="41.0" y="209"/>
      <point x="39.0" y="192"/>
      <point x="54.0" y="180" type="curve"/>
      <point x="387.0" y="-154" type="line"/>
      <point x="400.0" y="-166"/>
      <point x="414.0" y="-166"/>
    </contour>
  </outline>
</glyph>
<glyph name="indexdownright" format="1">
  <advance width="1000"/>
  <unicode hex="E141"/>
  <outline>
    <contour>
      <point x="370.0" y="-70" type="curve"/>
      <point x="427.0" y="-22" type="line"/>
      <point x="436.0" y="-26"/>
      <point x="446.0" y="-24"/>
      <point x="456.0" y="-16" type="curve" smooth="yes"/>
      <point x="512.0" y="31" type="line"/>
      <point x="522.0" y="27"/>
      <point x="532.0" y="28"/>
      <point x="542.0" y="36" type="curve" smooth="yes"/>
      <point x="590.0" y="76" type="line"/>
      <point x="694.0" y="-28" type="line" smooth="yes"/>
      <point x="708.0" y="-42"/>
      <point x="725.0" y="-45"/>
      <point x="737.0" y="-35" type="curve" smooth="yes"/>
      <point x="867.0" y="74" type="line"/>
      <point x="867.0" y="75" type="line"/>
      <point x="905.0" y="113" type="line" smooth="yes"/>
      <point x="919.0" y="127"/>
      <point x="914.0" y="147"/>
      <point x="906.0" y="158" type="curve" smooth="yes"/>
      <point x="707.0" y="386" type="line" smooth="yes"/>
      <point x="694.0" y="401"/>
      <point x="678.0" y="417"/>
      <point x="666.0" y="425" type="curve" smooth="yes"/>
      <point x="501.0" y="537" type="line"/>
      <point x="535.0" y="571" type="line" smooth="yes"/>
      <point x="550.0" y="584"/>
      <point x="548.0" y="600"/>
      <point x="536.0" y="612" type="curve" smooth="yes"/>
      <point x="469.0" y="679" type="line" smooth="yes"/>
      <point x="460.0" y="689"/>
      <point x="444.0" y="691"/>
      <point x="432.0" y="681" type="curve" smooth="yes"/>
      <point x="303.0" y="573" type="line"/>
      <point x="302.0" y="572" type="line" smooth="yes"/>
      <point x="301.0" y="571"/>
      <point x="300.0" y="569"/>
      <point x="299.0" y="568" type="curve"/>
      <point x="-34.0" y="235" type="line" smooth="yes"/>
      <point x="-46.0" y="223"/>
      <point x="-46.0" y="206"/>
      <point x="-35.0" y="195" type="curve" smooth="yes"/>
      <point x="32.0" y="127" type="line" smooth="yes"/>
      <point x="42.0" y="117"/>
      <point x="56.0" y="115"/>
      <point x="69.0" y="126" type="curve" smooth="yes"/>
      <point x="117.0" y="167" type="line"/>
      <point x="126.0" y="137" type="line"/>
      <point x="129.0" y="127"/>
      <point x="136.0" y="111"/>
      <point x="151.0" y="96" type="curve" smooth="yes"/>
      <point x="327.0" y="-67" type="line" smooth="yes"/>
      <point x="337.0" y="-77"/>
      <point x="358.0" y="-80"/>
    </contour>
  </outline>
</glyph>
<glyph name="indexdown.salt" format="1">
  <advance width="1000"/>
  <unicode hex="E148"/>
  <outline>
    <contour>
      <point x="554.0" y="-117" type="line" smooth="yes"/>
      <point x="561.0" y="-117"/>
      <point x="567.0" y="-114"/>
      <point x="571.0" y="-111" type="curve" smooth="yes"/>
      <point x="572.0" y="-111" type="line"/>
      <point x="701.0" y="-2" type="line"/>
      <point x="700.0" y="-2" type="line"/>
      <point x="705.0" y="1"/>
      <point x="709.0" y="7"/>
      <point x="710.0" y="14" type="curve" smooth="yes"/>
      <point x="756.0" y="353" type="line" smooth="yes"/>
      <point x="760.0" y="378"/>
      <point x="760.0" y="401"/>
      <point x="748.0" y="427" type="curve" smooth="yes"/>
      <point x="698.0" y="537" type="line"/>
      <point x="754.0" y="585" type="line"/>
      <point x="755.0" y="585" type="line" smooth="yes"/>
      <point x="759.0" y="589"/>
      <point x="763.0" y="595"/>
      <point x="763.0" y="606" type="curve" smooth="yes"/>
      <point x="763.0" y="701" type="line" smooth="yes"/>
      <point x="763.0" y="718"/>
      <point x="753.0" y="729"/>
      <point x="735.0" y="729" type="curve" smooth="yes"/>
      <point x="348.0" y="729" type="line" smooth="yes"/>
      <point x="339.0" y="729"/>
      <point x="332.0" y="726"/>
      <point x="328.0" y="723" type="curve" smooth="yes"/>
      <point x="197.0" y="614" type="line"/>
      <point x="191.0" y="609"/>
      <point x="189.0" y="602"/>
      <point x="189.0" y="592" type="curve" smooth="yes"/>
      <point x="189.0" y="496" type="line" smooth="yes"/>
      <point x="189.0" y="479"/>
      <point x="199.0" y="469"/>
      <point x="218.0" y="469" type="curve" smooth="yes"/>
      <point x="307.0" y="469" type="line"/>
      <point x="278.0" y="434" type="line"/>
      <point x="249.0" y="414" type="line"/>
      <point x="248.0" y="414" type="line"/>
      <point x="116.0" y="303" type="line"/>
      <point x="104.0" y="294"/>
      <point x="103.0" y="278"/>
      <point x="111.0" y="266" type="curve" smooth="yes"/>
      <point x="136.0" y="225" type="line" smooth="yes"/>
      <point x="141.0" y="215"/>
      <point x="156.0" y="209"/>
      <point x="176.0" y="217" type="curve" smooth="yes"/>
      <point x="256.0" y="247" type="line"/>
      <point x="287.0" y="183" type="line" smooth="yes"/>
      <point x="298.0" y="158"/>
      <point x="321.0" y="137"/>
      <point x="358.0" y="137" type="curve" smooth="yes"/>
      <point x="462.0" y="138" type="line"/>
      <point x="463.0" y="138" type="line"/>
      <point x="472.0" y="-88" type="line"/>
      <point x="472.0" y="-107"/>
      <point x="484.0" y="-117"/>
      <point x="500.0" y="-117" type="curve" smooth="yes"/>
    </contour>
    <contour>
      <point x="250.0" y="414" type="line"/>
      <point x="252.0" y="415" type="line"/>
      <point x="252.0" y="414"/>
      <point x="252.0" y="414"/>
      <point x="252.0" y="414" type="curve" smooth="yes"/>
    </contour>
  </outline>
</glyph>
<glyph name="indexdownleft.salt" format="1">
  <advance width="1000"/>
  <unicode hex="E149"/>
  <outline>
    <contour>
      <point x="529.0" y="-59" type="line"/>
      <point x="517.0" y="-61"/>
      <point x="503.0" y="-56"/>
      <point x="494.0" y="-36" type="curve" smooth="yes"/>
      <point x="459.0" y="43" type="line"/>
      <point x="392.0" y="18" type="line" smooth="yes"/>
      <point x="366.0" y="8"/>
      <point x="335.0" y="10"/>
      <point x="309.0" y="36" type="curve" smooth="yes"/>
      <point x="242.0" y="106" type="line"/>
      <point x="198.0" y="66" type="line"/>
      <point x="196.0" y="64" type="line"/>
      <point x="196.0" y="63" type="line"/>
      <point x="66.0" y="-46" type="line" smooth="yes"/>
      <point x="54.0" y="-55"/>
      <point x="40.0" y="-54"/>
      <point x="30.0" y="-44" type="curve" smooth="yes"/>
      <point x="-9.0" y="-6" type="line" smooth="yes"/>
      <point x="-20.0" y="5"/>
      <point x="-20.0" y="19"/>
      <point x="-12.0" y="30" type="curve" smooth="yes"/>
      <point x="194.0" y="301" type="line" smooth="yes"/>
      <point x="201.0" y="311"/>
      <point x="210.0" y="321"/>
      <point x="220.0" y="330" type="curve" smooth="yes"/>
      <point x="350.0" y="439" type="line" smooth="yes"/>
      <point x="354.0" y="443"/>
      <point x="360.0" y="447"/>
      <point x="366.0" y="450" type="curve"/>
      <point x="357.0" y="461"/>
      <point x="358.0" y="474"/>
      <point x="369.0" y="485" type="curve" smooth="yes"/>
      <point x="433.0" y="550" type="line"/>
      <point x="433.0" y="552" type="line"/>
      <point x="437.0" y="555" type="line"/>
      <point x="566.0" y="663" type="line" smooth="yes"/>
      <point x="577.0" y="673"/>
      <point x="591.0" y="673"/>
      <point x="604.0" y="663" type="curve" smooth="yes"/>
      <point x="605.0" y="663" type="line"/>
      <point x="605.0" y="662" type="line"/>
      <point x="880.0" y="388" type="line"/>
      <point x="892.0" y="374"/>
      <point x="891.0" y="357"/>
      <point x="880.0" y="347" type="curve" smooth="yes"/>
      <point x="810.0" y="277" type="line"/>
      <point x="710.0" y="193" type="line"/>
      <point x="711.0" y="189"/>
      <point x="711.0" y="184"/>
      <point x="712.0" y="180" type="curve" smooth="yes"/>
      <point x="726.0" y="93" type="line" smooth="yes"/>
      <point x="728.0" y="82"/>
      <point x="724.0" y="73"/>
      <point x="717.0" y="67" type="curve" smooth="yes"/>
      <point x="587.0" y="-41" type="line"/>
      <point x="584.0" y="-44"/>
      <point x="580.0" y="-46"/>
      <point x="578.0" y="-47" type="curve" smooth="yes"/>
      <point x="577.0" y="-47" type="line"/>
      <point x="528.0" y="-59" type="line"/>
    </contour>
  </outline>
</glyph>
<glyph name="Aogonek.v" format="1">
  <advance width="1000"/>
  <unicode hex="E192"/>
  <outline>
    <contour>
      <point x="639" y="-265" type="line" smooth="yes"/>
      <point x="653" y="-265"/>
      <point x="663" y="-262"/>
      <point x="669" y="-257" type="curve" smooth="yes"/>
      <point x="800" y="-148" type="line" smooth="yes"/>
      <point x="807" y="-141"/>
      <point x="811" y="-130"/>
      <point x="811" y="-112" type="curve" smooth="yes"/>
      <point x="811" y="-40" type="line" smooth="yes"/>
      <point x="811" y="-7"/>
      <point x="801" y="4"/>
      <point x="765" y="4" type="curve" smooth="yes"/>
      <point x="757" y="4" type="line"/>
      <point x="799" y="39" type="line" smooth="yes"/>
      <point x="808" y="47"/>
      <point x="813" y="58"/>
      <point x="813" y="76" type="curve" smooth="yes"/>
      <point x="813" y="320" type="line" smooth="yes"/>
      <point x="813" y="391"/>
      <point x="803" y="406"/>
      <point x="773" y="484" type="curve" smooth="yes"/>
      <point x="686" y="691" type="line"/>
      <point x="676" y="720"/>
      <point x="658" y="730"/>
      <point x="627" y="730" type="curve" smooth="yes"/>
      <point x="368" y="730" type="line" smooth="yes"/>
      <point x="350" y="730"/>
      <point x="336" y="726"/>
      <point x="326" y="718" type="curve" smooth="yes"/>
      <point x="196" y="609" type="line" smooth="yes"/>
      <point x="188" y="603"/>
      <point x="182" y="593"/>
      <point x="178" y="581" type="curve"/>
      <point x="102" y="374" type="line" smooth="yes"/>
      <point x="72" y="297"/>
      <point x="62" y="282"/>
      <point x="62" y="211" type="curve" smooth="yes"/>
      <point x="62" y="-33" type="line" smooth="yes"/>
      <point x="62" y="-65"/>
      <point x="75" y="-79"/>
      <point x="108" y="-79" type="curve" smooth="yes"/>
      <point x="255" y="-79" type="line" smooth="yes"/>
      <point x="269" y="-79"/>
      <point x="280" y="-75"/>
      <point x="286" y="-69" type="curve"/>
      <point x="416" y="39" type="line" smooth="yes"/>
      <point x="425" y="47"/>
      <point x="430" y="58"/>
      <point x="430" y="76" type="curve" smooth="yes"/>
      <point x="430" y="77" type="line"/>
      <point x="438" y="77" type="line"/>
      <point x="438" y="-3" type="line"/>
      <point x="417" y="-118" type="line" smooth="yes"/>
      <point x="402" y="-221"/>
      <point x="435" y="-265"/>
      <point x="528" y="-265" type="curve" smooth="yes"/>
    </contour>
  </outline>
</glyph>
<glyph name="Ccedilla.v" format="1">
  <advance width="1000"/>
  <unicode hex="E193"/>
  <outline>
    <contour>
      <point x="445" y="-193" type="curve" smooth="yes"/>
      <point x="574" y="-85" type="line" smooth="yes"/>
      <point x="576" y="-83"/>
      <point x="578" y="-81"/>
      <point x="580" y="-79" type="curve"/>
      <point x="626" y="-79" type="line" smooth="yes"/>
      <point x="640" y="-79"/>
      <point x="651" y="-75"/>
      <point x="657" y="-69" type="curve"/>
      <point x="787" y="39" type="line" smooth="yes"/>
      <point x="796" y="47"/>
      <point x="801" y="58"/>
      <point x="801" y="76" type="curve" smooth="yes"/>
      <point x="801" y="195" type="line" smooth="yes"/>
      <point x="801" y="227"/>
      <point x="787" y="241"/>
      <point x="755" y="241" type="curve" smooth="yes"/>
      <point x="485" y="241" type="line" smooth="yes"/>
      <point x="444" y="241"/>
      <point x="434" y="256"/>
      <point x="434" y="279" type="curve" smooth="yes"/>
      <point x="434" y="408" type="line"/>
      <point x="626" y="408" type="line" smooth="yes"/>
      <point x="640" y="408"/>
      <point x="651" y="412"/>
      <point x="657" y="418" type="curve"/>
      <point x="787" y="526" type="line" smooth="yes"/>
      <point x="796" y="534"/>
      <point x="801" y="545"/>
      <point x="801" y="563" type="curve" smooth="yes"/>
      <point x="801" y="684" type="line" smooth="yes"/>
      <point x="801" y="716"/>
      <point x="787" y="730"/>
      <point x="755" y="730" type="curve" smooth="yes"/>
      <point x="442" y="730" type="line" smooth="yes"/>
      <point x="350" y="730"/>
      <point x="288" y="711"/>
      <point x="249" y="678" type="curve" smooth="yes"/>
      <point x="120" y="569" type="line" smooth="yes"/>
      <point x="74" y="531"/>
      <point x="57" y="474"/>
      <point x="57" y="406" type="curve" smooth="yes"/>
      <point x="57" y="165" type="line" smooth="yes"/>
      <point x="57" y="49"/>
      <point x="106" y="-60"/>
      <point x="268" y="-77" type="curve"/>
      <point x="240" y="-152" type="line" smooth="yes"/>
      <point x="229" y="-183"/>
      <point x="234" y="-205"/>
      <point x="280" y="-205" type="curve" smooth="yes"/>
      <point x="406" y="-205" type="line" smooth="yes"/>
      <point x="423" y="-205"/>
      <point x="436" y="-201"/>
    </contour>
  </outline>
</glyph>
<glyph name="Iogonek.v" format="1">
  <advance width="1000"/>
  <unicode hex="E1AE"/>
  <outline>
    <contour>
      <point x="659" y="-257" type="curve" smooth="yes"/>
      <point x="790" y="-148" type="line" smooth="yes"/>
      <point x="797" y="-141"/>
      <point x="801" y="-130"/>
      <point x="801" y="-112" type="curve" smooth="yes"/>
      <point x="801" y="-40" type="line" smooth="yes"/>
      <point x="801" y="-7"/>
      <point x="791" y="4"/>
      <point x="755" y="4" type="curve" smooth="yes"/>
      <point x="745" y="4" type="line"/>
      <point x="787" y="39" type="line" smooth="yes"/>
      <point x="796" y="47"/>
      <point x="801" y="58"/>
      <point x="801" y="76" type="curve" smooth="yes"/>
      <point x="801" y="195" type="line" smooth="yes"/>
      <point x="801" y="227"/>
      <point x="787" y="241"/>
      <point x="755" y="241" type="curve" smooth="yes"/>
      <point x="631" y="241" type="line"/>
      <point x="631" y="408" type="line"/>
      <point x="643" y="409"/>
      <point x="652" y="413"/>
      <point x="658" y="419" type="curve"/>
      <point x="657" y="418" type="line"/>
      <point x="787" y="526" type="line" smooth="yes"/>
      <point x="796" y="534"/>
      <point x="801" y="545"/>
      <point x="801" y="563" type="curve" smooth="yes"/>
      <point x="801" y="684" type="line" smooth="yes"/>
      <point x="801" y="716"/>
      <point x="787" y="730"/>
      <point x="755" y="730" type="curve" smooth="yes"/>
      <point x="245" y="730" type="line" smooth="yes"/>
      <point x="231" y="730"/>
      <point x="220" y="727"/>
      <point x="213" y="721" type="curve" smooth="yes"/>
      <point x="84" y="612" type="line" smooth="yes"/>
      <point x="75" y="604"/>
      <point x="70" y="593"/>
      <point x="70" y="575" type="curve" smooth="yes"/>
      <point x="70" y="454" type="line" smooth="yes"/>
      <point x="70" y="422"/>
      <point x="84" y="408"/>
      <point x="116" y="408" type="curve" smooth="yes"/>
      <point x="240" y="408" type="line"/>
      <point x="240" y="241" type="line"/>
      <point x="228" y="240"/>
      <point x="219" y="237"/>
      <point x="213" y="232" type="curve" smooth="yes"/>
      <point x="84" y="123" type="line" smooth="yes"/>
      <point x="75" y="115"/>
      <point x="70" y="104"/>
      <point x="70" y="86" type="curve" smooth="yes"/>
      <point x="70" y="-33" type="line" smooth="yes"/>
      <point x="70" y="-65"/>
      <point x="84" y="-79"/>
      <point x="116" y="-79" type="curve" smooth="yes"/>
      <point x="414" y="-79" type="line"/>
      <point x="407" y="-118" type="line" smooth="yes"/>
      <point x="392" y="-221"/>
      <point x="425" y="-265"/>
      <point x="518" y="-265" type="curve" smooth="yes"/>
      <point x="629" y="-265" type="line" smooth="yes"/>
      <point x="643" y="-265"/>
      <point x="653" y="-262"/>
    </contour>
  </outline>
</glyph>
<glyph name="Scedilla.v" format="1">
  <advance width="1000"/>
  <unicode hex="E1C6"/>
  <outline>
    <contour>
      <point x="370" y="-205" type="line" smooth="yes"/>
      <point x="387" y="-205"/>
      <point x="400" y="-201"/>
      <point x="409" y="-193" type="curve" smooth="yes"/>
      <point x="538" y="-85" type="line" smooth="yes"/>
      <point x="544" y="-81"/>
      <point x="548" y="-75"/>
      <point x="551" y="-68" type="curve"/>
      <point x="579" y="-60"/>
      <point x="603" y="-47"/>
      <point x="623" y="-31" type="curve" smooth="yes"/>
      <point x="752" y="77" type="line" smooth="yes"/>
      <point x="791" y="109"/>
      <point x="811" y="156"/>
      <point x="811" y="216" type="curve" smooth="yes"/>
      <point x="811" y="311" type="line" smooth="yes"/>
      <point x="811" y="410"/>
      <point x="765" y="453"/>
      <point x="693" y="472" type="curve"/>
      <point x="771" y="538" type="line" smooth="yes"/>
      <point x="780" y="546"/>
      <point x="785" y="557"/>
      <point x="785" y="575" type="curve" smooth="yes"/>
      <point x="785" y="684" type="line" smooth="yes"/>
      <point x="785" y="716"/>
      <point x="771" y="730"/>
      <point x="739" y="730" type="curve" smooth="yes"/>
      <point x="407" y="730" type="line" smooth="yes"/>
      <point x="339" y="730"/>
      <point x="285" y="713"/>
      <point x="249" y="683" type="curve" smooth="yes"/>
      <point x="119" y="574" type="line" smooth="yes"/>
      <point x="81" y="542"/>
      <point x="61" y="495"/>
      <point x="61" y="435" type="curve" smooth="yes"/>
      <point x="61" y="340" type="line" smooth="yes"/>
      <point x="61" y="249"/>
      <point x="99" y="206"/>
      <point x="162" y="184" type="curve"/>
      <point x="75" y="111" type="line" smooth="yes"/>
      <point x="66" y="103"/>
      <point x="61" y="92"/>
      <point x="61" y="74" type="curve" smooth="yes"/>
      <point x="61" y="-33" type="line" smooth="yes"/>
      <point x="61" y="-65"/>
      <point x="75" y="-79"/>
      <point x="107" y="-79" type="curve" smooth="yes"/>
      <point x="231" y="-79" type="line"/>
      <point x="204" y="-152" type="line" smooth="yes"/>
      <point x="193" y="-183"/>
      <point x="198" y="-205"/>
      <point x="244" y="-205" type="curve" smooth="yes"/>
    </contour>
  </outline>
</glyph>
<glyph name="Tcommaaccent.v" format="1">
  <advance width="1000"/>
  <unicode hex="E1C9"/>
  <outline>
    <contour>
      <point x="362" y="-309" type="line" smooth="yes"/>
      <point x="399" y="-309"/>
      <point x="431" y="-299"/>
      <point x="454" y="-280" type="curve" smooth="yes"/>
      <point x="583" y="-171" type="line" smooth="yes"/>
      <point x="610" y="-148"/>
      <point x="626" y="-112"/>
      <point x="626" y="-62" type="curve" smooth="yes"/>
      <point x="626" y="50" type="line" smooth="yes"/>
      <point x="626" y="84"/>
      <point x="617" y="96"/>
      <point x="592" y="99" type="curve"/>
      <point x="616" y="119" type="line" smooth="yes"/>
      <point x="625" y="127"/>
      <point x="630" y="138"/>
      <point x="630" y="156" type="curve"/>
      <point x="630" y="408" type="line"/>
      <point x="635" y="408" type="line" smooth="yes"/>
      <point x="649" y="408"/>
      <point x="660" y="412"/>
      <point x="666" y="418" type="curve"/>
      <point x="796" y="526" type="line" smooth="yes"/>
      <point x="805" y="534"/>
      <point x="810" y="545"/>
      <point x="810" y="563" type="curve" smooth="yes"/>
      <point x="810" y="684" type="line" smooth="yes"/>
      <point x="810" y="716"/>
      <point x="796" y="730"/>
      <point x="764" y="730" type="curve" smooth="yes"/>
      <point x="236" y="730" type="line" smooth="yes"/>
      <point x="222" y="730"/>
      <point x="211" y="727"/>
      <point x="204" y="721" type="curve" smooth="yes"/>
      <point x="75" y="612" type="line" smooth="yes"/>
      <point x="66" y="604"/>
      <point x="61" y="593"/>
      <point x="61" y="575" type="curve" smooth="yes"/>
      <point x="61" y="454" type="line" smooth="yes"/>
      <point x="61" y="422"/>
      <point x="75" y="408"/>
      <point x="107" y="408" type="curve" smooth="yes"/>
      <point x="241" y="408" type="line"/>
      <point x="241" y="47" type="line"/>
      <point x="241" y="17"/>
      <point x="253" y="3"/>
      <point x="280" y="1" type="curve"/>
      <point x="258" y="-17" type="line" smooth="yes"/>
      <point x="249" y="-25"/>
      <point x="245" y="-38"/>
      <point x="245" y="-59" type="curve" smooth="yes"/>
      <point x="245" y="-138" type="line" smooth="yes"/>
      <point x="245" y="-176"/>
      <point x="257" y="-187"/>
      <point x="292" y="-187" type="curve" smooth="yes"/>
      <point x="298" y="-187" type="line"/>
      <point x="268" y="-212" type="line"/>
      <point x="260" y="-217"/>
      <point x="256" y="-227"/>
      <point x="256" y="-244" type="curve" smooth="yes"/>
      <point x="256" y="-268" type="line" smooth="yes"/>
      <point x="256" y="-297"/>
      <point x="268" y="-309"/>
      <point x="296" y="-309" type="curve" smooth="yes"/>
    </contour>
  </outline>
</glyph>
<glyph name="Uogonek.v" format="1">
  <advance width="1000"/>
  <unicode hex="E1D4"/>
  <outline>
    <contour>
      <point x="478" y="-276" type="line" smooth="yes"/>
      <point x="492" y="-276"/>
      <point x="502" y="-273"/>
      <point x="508" y="-268" type="curve" smooth="yes"/>
      <point x="639" y="-159" type="line" smooth="yes"/>
      <point x="646" y="-152"/>
      <point x="650" y="-141"/>
      <point x="650" y="-123" type="curve" smooth="yes"/>
      <point x="650" y="-51" type="line" smooth="yes"/>
      <point x="650" y="-34"/>
      <point x="647" y="-23"/>
      <point x="640" y="-16" type="curve"/>
      <point x="749" y="76" type="line" smooth="yes"/>
      <point x="795" y="114"/>
      <point x="810" y="167"/>
      <point x="810" y="229" type="curve" smooth="yes"/>
      <point x="810" y="684" type="line" smooth="yes"/>
      <point x="810" y="716"/>
      <point x="796" y="730"/>
      <point x="764" y="730" type="curve" smooth="yes"/>
      <point x="612" y="730" type="line" smooth="yes"/>
      <point x="597" y="730"/>
      <point x="587" y="727"/>
      <point x="580" y="721" type="curve" smooth="yes"/>
      <point x="450" y="612" type="line"/>
      <point x="449" y="611" type="line" smooth="yes"/>
      <point x="444" y="607"/>
      <point x="441" y="601"/>
      <point x="439" y="593" type="curve"/>
      <point x="439" y="684" type="line" smooth="yes"/>
      <point x="439" y="716"/>
      <point x="425" y="730"/>
      <point x="393" y="730" type="curve" smooth="yes"/>
      <point x="236" y="730" type="line" smooth="yes"/>
      <point x="222" y="730"/>
      <point x="211" y="727"/>
      <point x="204" y="721" type="curve" smooth="yes"/>
      <point x="75" y="612" type="line" smooth="yes"/>
      <point x="66" y="604"/>
      <point x="61" y="593"/>
      <point x="61" y="575" type="curve" smooth="yes"/>
      <point x="61" y="150" type="line" smooth="yes"/>
      <point x="61" y="44"/>
      <point x="102" y="-56"/>
      <point x="264" y="-85" type="curve"/>
      <point x="256" y="-129" type="line" smooth="yes"/>
      <point x="241" y="-232"/>
      <point x="274" y="-276"/>
      <point x="367" y="-276" type="curve" smooth="yes"/>
    </contour>
  </outline>
</glyph>
<glyph name="Oslash.v" format="1">
  <advance width="1000"/>
  <unicode hex="E1E2"/>
  <outline>
    <contour>
      <point x="251.0" y="-189" type="line" smooth="yes"/>
      <point x="265.0" y="-189"/>
      <point x="276.0" y="-185"/>
      <point x="284.0" y="-177" type="curve"/>
      <point x="283.0" y="-178" type="line"/>
      <point x="337.0" y="-133" type="line"/>
      <point x="348.0" y="-133"/>
      <point x="359.0" y="-134"/>
      <point x="371.0" y="-134" type="curve" smooth="yes"/>
      <point x="497.0" y="-134"/>
      <point x="574.0" y="-111"/>
      <point x="620.0" y="-73" type="curve" smooth="yes"/>
      <point x="749.0" y="36" type="line" smooth="yes"/>
      <point x="795.0" y="74"/>
      <point x="810.0" y="127"/>
      <point x="810.0" y="189" type="curve" smooth="yes"/>
      <point x="810.0" y="530" type="line" smooth="yes"/>
      <point x="810.0" y="596"/>
      <point x="793.0" y="651"/>
      <point x="743.0" y="688" type="curve"/>
      <point x="769.0" y="750" type="line"/>
      <point x="785.0" y="779"/>
      <point x="770.0" y="800"/>
      <point x="734.0" y="800" type="curve" smooth="yes"/>
      <point x="619.0" y="800" type="line" smooth="yes"/>
      <point x="604.0" y="800"/>
      <point x="594.0" y="796"/>
      <point x="585.0" y="789" type="curve" smooth="yes"/>
      <point x="533.0" y="744" type="line"/>
      <point x="526.0" y="745"/>
      <point x="513.0" y="745"/>
      <point x="500.0" y="745" type="curve" smooth="yes"/>
      <point x="374.0" y="745"/>
      <point x="296.0" y="722"/>
      <point x="250.0" y="684" type="curve" smooth="yes"/>
      <point x="121.0" y="575" type="line" smooth="yes"/>
      <point x="75.0" y="537"/>
      <point x="60" y="484"/>
      <point x="60.0" y="421" type="curve" smooth="yes"/>
      <point x="60" y="110" type="line" smooth="yes"/>
      <point x="60" y="44"/>
      <point x="77.0" y="-40"/>
      <point x="127.0" y="-77" type="curve"/>
      <point x="101.0" y="-139" type="line"/>
      <point x="85.0" y="-168"/>
      <point x="100.0" y="-189"/>
      <point x="136.0" y="-189" type="curve" smooth="yes"/>
    </contour>
  </outline>
</glyph>
<glyph name="Ldot.v" format="1">
  <advance width="1000"/>
  <unicode hex="E1E7"/>
  <outline>
    <contour>
      <point x="467" y="-339" type="line" smooth="yes"/>
      <point x="481" y="-339"/>
      <point x="492" y="-335"/>
      <point x="498" y="-329" type="curve"/>
      <point x="628" y="-221" type="line" smooth="yes"/>
      <point x="637" y="-213"/>
      <point x="642" y="-202"/>
      <point x="642" y="-184" type="curve" smooth="yes"/>
      <point x="642" y="-79" type="line"/>
      <point x="653" y="-78"/>
      <point x="661" y="-74"/>
      <point x="666" y="-69" type="curve"/>
      <point x="796" y="39" type="line" smooth="yes"/>
      <point x="805" y="47"/>
      <point x="810" y="58"/>
      <point x="810" y="76" type="curve" smooth="yes"/>
      <point x="810" y="381" type="line" smooth="yes"/>
      <point x="810" y="413"/>
      <point x="796" y="427"/>
      <point x="764" y="427" type="curve" smooth="yes"/>
      <point x="619" y="427" type="line" smooth="yes"/>
      <point x="605" y="427"/>
      <point x="594" y="424"/>
      <point x="587" y="418" type="curve" smooth="yes"/>
      <point x="461" y="312" type="line" smooth="yes"/>
      <point x="452" y="304"/>
      <point x="447" y="293"/>
      <point x="447" y="275" type="curve" smooth="yes"/>
      <point x="447" y="239" type="line"/>
      <point x="437" y="239" type="line"/>
      <point x="437" y="684" type="line" smooth="yes"/>
      <point x="437" y="716"/>
      <point x="423" y="730"/>
      <point x="391" y="730" type="curve" smooth="yes"/>
      <point x="236" y="730" type="line" smooth="yes"/>
      <point x="222" y="730"/>
      <point x="211" y="727"/>
      <point x="204" y="721" type="curve" smooth="yes"/>
      <point x="75" y="612" type="line" smooth="yes"/>
      <point x="66" y="604"/>
      <point x="61" y="593"/>
      <point x="61" y="575" type="curve" smooth="yes"/>
      <point x="61" y="-33" type="line" smooth="yes"/>
      <point x="61" y="-65"/>
      <point x="75" y="-79"/>
      <point x="107" y="-79" type="curve" smooth="yes"/>
      <point x="336" y="-79" type="line"/>
      <point x="277" y="-129" type="line" smooth="yes"/>
      <point x="268" y="-137"/>
      <point x="263" y="-148"/>
      <point x="263" y="-166" type="curve"/>
      <point x="263" y="-293" type="line"/>
      <point x="263" y="-325"/>
      <point x="277" y="-339"/>
      <point x="309" y="-339" type="curve" smooth="yes"/>
    </contour>
  </outline>
</glyph>
<glyph name="Lslash.v" format="1">
  <advance width="1000"/>
  <unicode hex="E1E8"/>
  <outline>
    <contour>
      <point x="636" y="-119" type="line" smooth="yes"/>
      <point x="650" y="-119"/>
      <point x="661" y="-115"/>
      <point x="667" y="-109" type="curve"/>
      <point x="797" y="-1" type="line" smooth="yes"/>
      <point x="806" y="7"/>
      <point x="811" y="18"/>
      <point x="811" y="36" type="curve" smooth="yes"/>
      <point x="811" y="351" type="line" smooth="yes"/>
      <point x="811" y="383"/>
      <point x="797" y="397"/>
      <point x="765" y="397" type="curve" smooth="yes"/>
      <point x="620" y="397" type="line" smooth="yes"/>
      <point x="606" y="397"/>
      <point x="595" y="394"/>
      <point x="588" y="388" type="curve" smooth="yes"/>
      <point x="462" y="280" type="line" smooth="yes"/>
      <point x="453" y="272"/>
      <point x="448" y="261"/>
      <point x="448" y="243" type="curve" smooth="yes"/>
      <point x="448" y="199" type="line"/>
      <point x="438" y="199" type="line"/>
      <point x="438" y="267" type="line"/>
      <point x="520" y="335" type="line" smooth="yes"/>
      <point x="530" y="343"/>
      <point x="532" y="357"/>
      <point x="532" y="371" type="curve" smooth="yes"/>
      <point x="532" y="476" type="line" smooth="yes"/>
      <point x="532" y="511"/>
      <point x="516" y="527"/>
      <point x="484" y="522" type="curve" smooth="yes"/>
      <point x="438" y="515" type="line"/>
      <point x="438" y="684" type="line" smooth="yes"/>
      <point x="438" y="716"/>
      <point x="424" y="730"/>
      <point x="392" y="730" type="curve" smooth="yes"/>
      <point x="237" y="730" type="line" smooth="yes"/>
      <point x="223" y="730"/>
      <point x="212" y="727"/>
      <point x="205" y="721" type="curve" smooth="yes"/>
      <point x="76" y="612" type="line" smooth="yes"/>
      <point x="67" y="604"/>
      <point x="62" y="593"/>
      <point x="62" y="575" type="curve" smooth="yes"/>
      <point x="62" y="392" type="line"/>
      <point x="16" y="354" type="line" smooth="yes"/>
      <point x="6" y="346"/>
      <point x="3" y="333"/>
      <point x="3" y="319" type="curve" smooth="yes"/>
      <point x="3" y="212" type="line"/>
      <point x="3" y="177"/>
      <point x="19" y="161"/>
      <point x="51" y="166" type="curve" smooth="yes"/>
      <point x="62" y="168" type="line"/>
      <point x="62" y="-73" type="line" smooth="yes"/>
      <point x="62" y="-105"/>
      <point x="76" y="-119"/>
      <point x="108" y="-119" type="curve" smooth="yes"/>
    </contour>
  </outline>
</glyph>
<glyph name="OE.v" format="1">
  <advance width="1000"/>
  <unicode hex="E1EA"/>
  <outline>
    <contour>
      <point x="656.0" y="-119" type="line" smooth="yes"/>
      <point x="670.0" y="-119"/>
      <point x="681.0" y="-115"/>
      <point x="687.0" y="-109" type="curve"/>
      <point x="817.0" y="-1" type="line" smooth="yes"/>
      <point x="826.0" y="7"/>
      <point x="831.0" y="18"/>
      <point x="831.0" y="36" type="curve" smooth="yes"/>
      <point x="831.0" y="153" type="line" smooth="yes"/>
      <point x="831.0" y="185"/>
      <point x="817.0" y="199"/>
      <point x="785.0" y="199" type="curve" smooth="yes"/>
      <point x="727.0" y="199" type="line"/>
      <point x="816.0" y="274" type="line" smooth="yes"/>
      <point x="825.0" y="282"/>
      <point x="830.0" y="293"/>
      <point x="830.0" y="311" type="curve" smooth="yes"/>
      <point x="830.0" y="418" type="line" smooth="yes"/>
      <point x="830.0" y="451"/>
      <point x="816.0" y="464"/>
      <point x="784.0" y="464" type="curve" smooth="yes"/>
      <point x="738.0" y="464" type="line"/>
      <point x="817.0" y="530" type="line" smooth="yes"/>
      <point x="826.0" y="538"/>
      <point x="831.0" y="549"/>
      <point x="831.0" y="567" type="curve" smooth="yes"/>
      <point x="831.0" y="684" type="line" smooth="yes"/>
      <point x="831.0" y="716"/>
      <point x="817.0" y="730"/>
      <point x="785.0" y="730" type="curve" smooth="yes"/>
      <point x="425.0" y="730" type="line" smooth="yes"/>
      <point x="333.0" y="730"/>
      <point x="271.0" y="711"/>
      <point x="231.0" y="677" type="curve" smooth="yes"/>
      <point x="102.0" y="569" type="line" smooth="yes"/>
      <point x="56.0" y="531"/>
      <point x="40.0" y="474"/>
      <point x="40.0" y="407" type="curve" smooth="yes"/>
      <point x="40.0" y="95" type="line" smooth="yes"/>
      <point x="40.0" y="-31"/>
      <point x="98.0" y="-119"/>
      <point x="296.0" y="-119" type="curve" smooth="yes"/>
    </contour>
  </outline>
</glyph>
<glyph name="Tbar.v" format="1">
  <advance width="1000"/>
  <unicode hex="E1EB"/>
  <outline>
    <contour>
      <point x="452" y="-119" type="line" smooth="yes"/>
      <point x="466" y="-119"/>
      <point x="477" y="-115"/>
      <point x="483" y="-109" type="curve"/>
      <point x="613" y="-1" type="line" smooth="yes"/>
      <point x="622" y="7"/>
      <point x="627" y="18"/>
      <point x="627" y="36" type="curve" smooth="yes"/>
      <point x="627" y="137" type="line"/>
      <point x="725" y="220" type="line" smooth="yes"/>
      <point x="734" y="228"/>
      <point x="739" y="239"/>
      <point x="739" y="257" type="curve" smooth="yes"/>
      <point x="739" y="365" type="line" smooth="yes"/>
      <point x="739" y="398"/>
      <point x="725" y="411"/>
      <point x="694" y="411" type="curve"/>
      <point x="694" y="411"/>
      <point x="693" y="411"/>
      <point x="693" y="411" type="curve" smooth="yes"/>
      <point x="654" y="411" type="line"/>
      <point x="659" y="413"/>
      <point x="663" y="415"/>
      <point x="666" y="418" type="curve"/>
      <point x="796" y="526" type="line" smooth="yes"/>
      <point x="805" y="534"/>
      <point x="810" y="545"/>
      <point x="810" y="563" type="curve" smooth="yes"/>
      <point x="810" y="684" type="line" smooth="yes"/>
      <point x="810" y="716"/>
      <point x="796" y="730"/>
      <point x="764" y="730" type="curve" smooth="yes"/>
      <point x="236" y="730" type="line" smooth="yes"/>
      <point x="222" y="730"/>
      <point x="211" y="727"/>
      <point x="204" y="721" type="curve" smooth="yes"/>
      <point x="75" y="612" type="line" smooth="yes"/>
      <point x="66" y="604"/>
      <point x="61" y="593"/>
      <point x="61" y="575" type="curve" smooth="yes"/>
      <point x="61" y="454" type="line" smooth="yes"/>
      <point x="61" y="422"/>
      <point x="75" y="408"/>
      <point x="107" y="408" type="curve" smooth="yes"/>
      <point x="244" y="408" type="line"/>
      <point x="244" y="377" type="line"/>
      <point x="144" y="293" type="line" smooth="yes"/>
      <point x="135" y="285"/>
      <point x="130" y="274"/>
      <point x="130" y="256" type="curve" smooth="yes"/>
      <point x="130" y="148" type="line" smooth="yes"/>
      <point x="130" y="115"/>
      <point x="144" y="102"/>
      <point x="176" y="102" type="curve" smooth="yes"/>
      <point x="244" y="102" type="line"/>
      <point x="244" y="-73" type="line" smooth="yes"/>
      <point x="244" y="-105"/>
      <point x="258" y="-119"/>
      <point x="290" y="-119" type="curve" smooth="yes"/>
    </contour>
  </outline>
</glyph>
<glyph name="Aogonek.salt_v" format="1">
  <advance width="1000"/>
  <unicode hex="E1F6"/>
  <outline>
    <contour>
      <point x="641" y="-305" type="line" smooth="yes"/>
      <point x="655" y="-305"/>
      <point x="665" y="-302"/>
      <point x="671" y="-297" type="curve" smooth="yes"/>
      <point x="802" y="-188" type="line" smooth="yes"/>
      <point x="809" y="-181"/>
      <point x="813" y="-170"/>
      <point x="813" y="-152" type="curve" smooth="yes"/>
      <point x="813" y="-80" type="line" smooth="yes"/>
      <point x="813" y="-47"/>
      <point x="803" y="-36"/>
      <point x="767" y="-36" type="curve" smooth="yes"/>
      <point x="755" y="-36" type="line"/>
      <point x="797" y="-1" type="line" smooth="yes"/>
      <point x="806" y="7"/>
      <point x="811" y="18"/>
      <point x="811" y="36" type="curve" smooth="yes"/>
      <point x="811" y="491" type="line" smooth="yes"/>
      <point x="811" y="616"/>
      <point x="760" y="705"/>
      <point x="499" y="705" type="curve" smooth="yes"/>
      <point x="369" y="705"/>
      <point x="293" y="683"/>
      <point x="248" y="645" type="curve" smooth="yes"/>
      <point x="119" y="536" type="line" smooth="yes"/>
      <point x="73" y="499"/>
      <point x="60" y="445"/>
      <point x="60" y="382" type="curve" smooth="yes"/>
      <point x="60" y="-73" type="line" smooth="yes"/>
      <point x="60" y="-105"/>
      <point x="74" y="-119"/>
      <point x="106" y="-119" type="curve" smooth="yes"/>
      <point x="253" y="-119" type="line" smooth="yes"/>
      <point x="267" y="-119"/>
      <point x="278" y="-115"/>
      <point x="284" y="-109" type="curve"/>
      <point x="414" y="-1" type="line" smooth="yes"/>
      <point x="423" y="7"/>
      <point x="428" y="18"/>
      <point x="428" y="36" type="curve" smooth="yes"/>
      <point x="428" y="46" type="line"/>
      <point x="438" y="46" type="line"/>
      <point x="438" y="-54" type="line"/>
      <point x="419" y="-158" type="line" smooth="yes"/>
      <point x="404" y="-261"/>
      <point x="437" y="-305"/>
      <point x="530" y="-305" type="curve" smooth="yes"/>
    </contour>
    <contour>
      <point x="438" y="368" type="curve" smooth="yes"/>
      <point x="438" y="358" type="line"/>
      <point x="428" y="358" type="line"/>
      <point x="428" y="393" type="line"/>
      <point x="436" y="387"/>
      <point x="438" y="378"/>
    </contour>
  </outline>
</glyph>
<glyph name="Eogonek.salt_v" format="1">
  <advance width="1000"/>
  <unicode hex="E1FF"/>
  <outline>
    <contour>
      <point x="628" y="-265" type="line" smooth="yes"/>
      <point x="642" y="-265"/>
      <point x="652" y="-262"/>
      <point x="658" y="-257" type="curve" smooth="yes"/>
      <point x="789" y="-148" type="line" smooth="yes"/>
      <point x="796" y="-141"/>
      <point x="800" y="-130"/>
      <point x="800" y="-112" type="curve" smooth="yes"/>
      <point x="800" y="-40" type="line" smooth="yes"/>
      <point x="800" y="-7"/>
      <point x="790" y="4"/>
      <point x="754" y="4" type="curve" smooth="yes"/>
      <point x="744" y="4" type="line"/>
      <point x="786" y="39" type="line" smooth="yes"/>
      <point x="795" y="47"/>
      <point x="800" y="58"/>
      <point x="800" y="76" type="curve" smooth="yes"/>
      <point x="800" y="189" type="line" smooth="yes"/>
      <point x="800" y="221"/>
      <point x="786" y="235"/>
      <point x="754" y="235" type="curve" smooth="yes"/>
      <point x="627" y="235" type="line"/>
      <point x="705" y="300" type="line" smooth="yes"/>
      <point x="714" y="308"/>
      <point x="719" y="319"/>
      <point x="719" y="337" type="curve" smooth="yes"/>
      <point x="719" y="432" type="line" smooth="yes"/>
      <point x="719" y="450"/>
      <point x="715" y="461"/>
      <point x="707" y="468" type="curve"/>
      <point x="786" y="534" type="line" smooth="yes"/>
      <point x="795" y="542"/>
      <point x="800" y="553"/>
      <point x="800" y="571" type="curve" smooth="yes"/>
      <point x="800" y="684" type="line" smooth="yes"/>
      <point x="800" y="716"/>
      <point x="786" y="730"/>
      <point x="754" y="730" type="curve" smooth="yes"/>
      <point x="442" y="730" type="line" smooth="yes"/>
      <point x="350" y="730"/>
      <point x="288" y="711"/>
      <point x="249" y="678" type="curve" smooth="yes"/>
      <point x="120" y="569" type="line" smooth="yes"/>
      <point x="74" y="531"/>
      <point x="57" y="474"/>
      <point x="57" y="406" type="curve" smooth="yes"/>
      <point x="57" y="135" type="line" smooth="yes"/>
      <point x="57" y="9"/>
      <point x="115" y="-79"/>
      <point x="313" y="-79" type="curve" smooth="yes"/>
      <point x="413" y="-79" type="line"/>
      <point x="406" y="-118" type="line" smooth="yes"/>
      <point x="391" y="-221"/>
      <point x="424" y="-265"/>
      <point x="517" y="-265" type="curve" smooth="yes"/>
    </contour>
  </outline>
</glyph>
<glyph name="I.salt_v" format="1">
  <advance width="1000"/>
  <unicode hex="E201"/>
  <outline>
    <contour>
      <point x="450.0" y="-119" type="line" smooth="yes"/>
      <point x="464.0" y="-119"/>
      <point x="475.0" y="-115"/>
      <point x="481.0" y="-109" type="curve"/>
      <point x="611.0" y="-1" type="line" smooth="yes"/>
      <point x="620.0" y="7"/>
      <point x="625.0" y="18"/>
      <point x="625.0" y="36" type="curve" smooth="yes"/>
      <point x="625.0" y="684" type="line" smooth="yes"/>
      <point x="625.0" y="716"/>
      <point x="611.0" y="730"/>
      <point x="579.0" y="730" type="curve" smooth="yes"/>
      <point x="420.0" y="730" type="line" smooth="yes"/>
      <point x="406.0" y="730"/>
      <point x="395.0" y="727"/>
      <point x="388.0" y="721" type="curve" smooth="yes"/>
      <point x="259.0" y="612" type="line" smooth="yes"/>
      <point x="250.0" y="604"/>
      <point x="245.0" y="593"/>
      <point x="245.0" y="575" type="curve" smooth="yes"/>
      <point x="245.0" y="-73" type="line" smooth="yes"/>
      <point x="245.0" y="-105"/>
      <point x="259.0" y="-119"/>
      <point x="291.0" y="-119" type="curve" smooth="yes"/>
    </contour>
    <contour>
      <point x="499.0" y="747.0" type="move" name="top"/>
    </contour>
    <contour>
      <point x="499.0" y="0.0" type="move" name="bottom"/>
    </contour>
  </outline>
</glyph>
<glyph name="Iogonek.salt_v" format="1">
  <advance width="1000"/>
  <unicode hex="E20A"/>
  <outline>
    <contour>
      <point x="449" y="-305" type="line" smooth="yes"/>
      <point x="463" y="-305"/>
      <point x="473" y="-302"/>
      <point x="479" y="-297" type="curve" smooth="yes"/>
      <point x="610" y="-188" type="line" smooth="yes"/>
      <point x="617" y="-181"/>
      <point x="621" y="-170"/>
      <point x="621" y="-152" type="curve" smooth="yes"/>
      <point x="621" y="-80" type="line" smooth="yes"/>
      <point x="621" y="-47"/>
      <point x="611" y="-36"/>
      <point x="575" y="-36" type="curve" smooth="yes"/>
      <point x="569" y="-36" type="line"/>
      <point x="611" y="-1" type="line" smooth="yes"/>
      <point x="620" y="7"/>
      <point x="625" y="18"/>
      <point x="625" y="36" type="curve" smooth="yes"/>
      <point x="625" y="644" type="line" smooth="yes"/>
      <point x="625" y="676"/>
      <point x="611" y="690"/>
      <point x="579" y="690" type="curve" smooth="yes"/>
      <point x="420" y="690" type="line" smooth="yes"/>
      <point x="406" y="690"/>
      <point x="395" y="687"/>
      <point x="388" y="681" type="curve" smooth="yes"/>
      <point x="259" y="572" type="line" smooth="yes"/>
      <point x="250" y="564"/>
      <point x="245" y="553"/>
      <point x="245" y="535" type="curve" smooth="yes"/>
      <point x="245" y="-59" type="line"/>
      <point x="227" y="-158" type="line" smooth="yes"/>
      <point x="212" y="-261"/>
      <point x="245" y="-305"/>
      <point x="338" y="-305" type="curve" smooth="yes"/>
    </contour>
  </outline>
</glyph>
<glyph name="Lslash.salt_v" format="1">
  <advance width="1000"/>
  <unicode hex="E211"/>
  <outline>
    <contour>
      <point x="359" y="216" type="line" smooth="yes"/>
      <point x="377" y="219"/>
      <point x="384" y="221"/>
      <point x="393" y="229" type="curve" smooth="yes"/>
      <point x="520" y="335" type="line" smooth="yes"/>
      <point x="530" y="343"/>
      <point x="532" y="357"/>
      <point x="532" y="371" type="curve" smooth="yes"/>
      <point x="532" y="476" type="line" smooth="yes"/>
      <point x="532" y="511"/>
      <point x="516" y="527"/>
      <point x="484" y="522" type="curve" smooth="yes"/>
      <point x="176" y="472" type="line" smooth="yes"/>
      <point x="158" y="469"/>
      <point x="151" y="466"/>
      <point x="142" y="458" type="curve" smooth="yes"/>
      <point x="16" y="354" type="line" smooth="yes"/>
      <point x="6" y="346"/>
      <point x="3" y="333"/>
      <point x="3" y="319" type="curve" smooth="yes"/>
      <point x="3" y="212" type="line"/>
      <point x="3" y="177"/>
      <point x="19" y="161"/>
      <point x="51" y="166" type="curve" smooth="yes"/>
    </contour>
    <contour>
      <point x="626" y="-119" type="line" smooth="yes"/>
      <point x="640" y="-119"/>
      <point x="651" y="-115"/>
      <point x="657" y="-109" type="curve"/>
      <point x="787" y="-1" type="line" smooth="yes"/>
      <point x="796" y="7"/>
      <point x="801" y="18"/>
      <point x="801" y="36" type="curve" smooth="yes"/>
      <point x="801" y="157" type="line"/>
      <point x="801" y="189"/>
      <point x="787" y="203"/>
      <point x="755" y="203" type="curve" smooth="yes"/>
      <point x="438" y="203" type="line"/>
      <point x="438" y="684" type="line" smooth="yes"/>
      <point x="438" y="716"/>
      <point x="424" y="730"/>
      <point x="392" y="730" type="curve" smooth="yes"/>
      <point x="237" y="730" type="line" smooth="yes"/>
      <point x="223" y="730"/>
      <point x="212" y="727"/>
      <point x="205" y="721" type="curve" smooth="yes"/>
      <point x="76" y="612" type="line" smooth="yes"/>
      <point x="67" y="604"/>
      <point x="62" y="593"/>
      <point x="62" y="575" type="curve" smooth="yes"/>
      <point x="62" y="-73" type="line" smooth="yes"/>
      <point x="62" y="-105"/>
      <point x="76" y="-119"/>
      <point x="108" y="-119" type="curve" smooth="yes"/>
    </contour>
  </outline>
</glyph>
<glyph name="N.salt_v" format="1">
  <advance width="1000"/>
  <unicode hex="E214"/>
  <outline>
    <contour>
      <point x="259.0" y="-119" type="line" smooth="yes"/>
      <point x="273.0" y="-119"/>
      <point x="283.0" y="-115"/>
      <point x="290.0" y="-109" type="curve" smooth="yes"/>
      <point x="420.0" y="-1" type="line" smooth="yes"/>
      <point x="426.0" y="4"/>
      <point x="430.0" y="11"/>
      <point x="432.0" y="19" type="curve"/>
      <point x="432.0" y="-72" type="line" smooth="yes"/>
      <point x="432.0" y="-104"/>
      <point x="446.0" y="-119"/>
      <point x="478.0" y="-119" type="curve" smooth="yes"/>
      <point x="635.0" y="-119" type="line" smooth="yes"/>
      <point x="649.0" y="-119"/>
      <point x="659.0" y="-115"/>
      <point x="666.0" y="-109" type="curve" smooth="yes"/>
      <point x="795.0" y="-1" type="line"/>
      <point x="805.0" y="7"/>
      <point x="810.0" y="19"/>
      <point x="810.0" y="37" type="curve" smooth="yes"/>
      <point x="810.0" y="532" type="line" smooth="yes"/>
      <point x="810.0" y="658"/>
      <point x="760.0" y="746"/>
      <point x="500.0" y="746" type="curve" smooth="yes"/>
      <point x="370.0" y="746"/>
      <point x="294.0" y="724"/>
      <point x="249.0" y="686" type="curve" smooth="yes"/>
      <point x="120.0" y="578" type="line" smooth="yes"/>
      <point x="74.0" y="540"/>
      <point x="61.0" y="487"/>
      <point x="61.0" y="423" type="curve" smooth="yes"/>
      <point x="61.0" y="-72" type="line" smooth="yes"/>
      <point x="61.0" y="-104"/>
      <point x="75.0" y="-119"/>
      <point x="107.0" y="-119" type="curve" smooth="yes"/>
    </contour>
    <contour>
      <point x="509.0" y="747.0" type="move" name="top"/>
    </contour>
    <contour>
      <point x="509.0" y="0.0" type="move" name="bottom"/>
    </contour>
  </outline>
</glyph>
<glyph name="Ncommaaccent.salt_v" format="1">
  <advance width="1000"/>
  <unicode hex="E217"/>
  <outline>
    <contour>
      <point x="455" y="-280" type="curve" smooth="yes"/>
      <point x="584" y="-171" type="line" smooth="yes"/>
      <point x="611" y="-148"/>
      <point x="627" y="-112"/>
      <point x="627" y="-62" type="curve" smooth="yes"/>
      <point x="627" y="1" type="line"/>
      <point x="635" y="1" type="line" smooth="yes"/>
      <point x="649" y="1"/>
      <point x="660" y="5"/>
      <point x="666" y="11" type="curve"/>
      <point x="796" y="119" type="line" smooth="yes"/>
      <point x="805" y="127"/>
      <point x="810" y="138"/>
      <point x="810" y="156" type="curve" smooth="yes"/>
      <point x="810" y="521" type="line" smooth="yes"/>
      <point x="810" y="647"/>
      <point x="760" y="735"/>
      <point x="500" y="735" type="curve" smooth="yes"/>
      <point x="370" y="735"/>
      <point x="294" y="713"/>
      <point x="249" y="675" type="curve" smooth="yes"/>
      <point x="120" y="567" type="line" smooth="yes"/>
      <point x="74" y="529"/>
      <point x="61" y="476"/>
      <point x="61" y="412" type="curve" smooth="yes"/>
      <point x="61" y="47" type="line" smooth="yes"/>
      <point x="61" y="15"/>
      <point x="75" y="1"/>
      <point x="107" y="1" type="curve" smooth="yes"/>
      <point x="261" y="1" type="line" smooth="yes"/>
      <point x="275" y="1"/>
      <point x="286" y="5"/>
      <point x="292" y="11" type="curve"/>
      <point x="420" y="119" type="line" smooth="yes"/>
      <point x="426" y="124"/>
      <point x="430" y="130"/>
      <point x="432" y="138" type="curve"/>
      <point x="432" y="100" type="line"/>
      <point x="422" y="100" type="line" smooth="yes"/>
      <point x="406" y="100"/>
      <point x="396" y="97"/>
      <point x="389" y="91" type="curve" smooth="yes"/>
      <point x="259" y="-17" type="line" smooth="yes"/>
      <point x="250" y="-25"/>
      <point x="246" y="-38"/>
      <point x="246" y="-59" type="curve" smooth="yes"/>
      <point x="246" y="-138" type="line" smooth="yes"/>
      <point x="246" y="-176"/>
      <point x="258" y="-187"/>
      <point x="293" y="-187" type="curve" smooth="yes"/>
      <point x="299" y="-187" type="line"/>
      <point x="269" y="-212" type="line"/>
      <point x="261" y="-217"/>
      <point x="257" y="-227"/>
      <point x="257" y="-244" type="curve" smooth="yes"/>
      <point x="257" y="-268" type="line" smooth="yes"/>
      <point x="257" y="-297"/>
      <point x="269" y="-309"/>
      <point x="297" y="-309" type="curve" smooth="yes"/>
      <point x="363" y="-309" type="line" smooth="yes"/>
      <point x="400" y="-309"/>
      <point x="432" y="-299"/>
    </contour>
  </outline>
</glyph>
<glyph name="AE.salt_v" format="1">
  <advance width="1000"/>
  <unicode hex="E224"/>
  <outline>
    <contour>
      <point x="341.0" y="-32" type="line"/>
      <point x="341.0" y="-73" type="line" smooth="yes"/>
      <point x="341.0" y="-105"/>
      <point x="355.0" y="-119"/>
      <point x="387.0" y="-119" type="curve" smooth="yes"/>
      <point x="656.0" y="-119" type="line" smooth="yes"/>
      <point x="670.0" y="-119"/>
      <point x="681.0" y="-115"/>
      <point x="687.0" y="-109" type="curve"/>
      <point x="817.0" y="-1" type="line" smooth="yes"/>
      <point x="826.0" y="7"/>
      <point x="831.0" y="18"/>
      <point x="831.0" y="36" type="curve" smooth="yes"/>
      <point x="831.0" y="153" type="line" smooth="yes"/>
      <point x="831.0" y="185"/>
      <point x="817.0" y="199"/>
      <point x="785.0" y="199" type="curve" smooth="yes"/>
      <point x="727.0" y="199" type="line"/>
      <point x="816.0" y="274" type="line" smooth="yes"/>
      <point x="825.0" y="282"/>
      <point x="830.0" y="293"/>
      <point x="830.0" y="311" type="curve" smooth="yes"/>
      <point x="830.0" y="418" type="line" smooth="yes"/>
      <point x="830.0" y="451"/>
      <point x="816.0" y="464"/>
      <point x="784.0" y="464" type="curve" smooth="yes"/>
      <point x="738.0" y="464" type="line"/>
      <point x="817.0" y="530" type="line" smooth="yes"/>
      <point x="826.0" y="538"/>
      <point x="831.0" y="549"/>
      <point x="831.0" y="567" type="curve" smooth="yes"/>
      <point x="831.0" y="684" type="line" smooth="yes"/>
      <point x="831.0" y="716"/>
      <point x="817.0" y="730"/>
      <point x="785.0" y="730" type="curve" smooth="yes"/>
      <point x="429.0" y="730" type="line" smooth="yes"/>
      <point x="334.0" y="730"/>
      <point x="271.0" y="710"/>
      <point x="231.0" y="677" type="curve" smooth="yes"/>
      <point x="102.0" y="568" type="line" smooth="yes"/>
      <point x="56.0" y="530"/>
      <point x="40.0" y="474"/>
      <point x="40.0" y="407" type="curve" smooth="yes"/>
      <point x="40.0" y="-73" type="line" smooth="yes"/>
      <point x="40.0" y="-105"/>
      <point x="54.0" y="-119"/>
      <point x="86.0" y="-119" type="curve" smooth="yes"/>
      <point x="217.0" y="-119" type="line" smooth="yes"/>
      <point x="231.0" y="-119"/>
      <point x="242.0" y="-115"/>
      <point x="248.0" y="-109" type="curve"/>
    </contour>
  </outline>
</glyph>
<glyph name="parenleft.v" format="1">
  <advance width="1000"/>
  <unicode hex="E22B"/>
  <outline>
    <contour>
      <point x="238.0" y="181" type="line"/>
      <point x="571.0" y="181" type="line" smooth="yes"/>
      <point x="597.0" y="181"/>
      <point x="611.0" y="176"/>
      <point x="611.0" y="150" type="curve" smooth="yes"/>
      <point x="611.0" y="119" type="line" smooth="yes"/>
      <point x="611.0" y="87"/>
      <point x="625.0" y="73"/>
      <point x="657.0" y="73" type="curve" smooth="yes"/>
      <point x="776.0" y="73" type="line" smooth="yes"/>
      <point x="790.0" y="73"/>
      <point x="801.0" y="77"/>
      <point x="807.0" y="83" type="curve"/>
      <point x="937.0" y="191" type="line" smooth="yes"/>
      <point x="946.0" y="199"/>
      <point x="951.0" y="210"/>
      <point x="951.0" y="228" type="curve" smooth="yes"/>
      <point x="951.0" y="282" type="line" smooth="yes"/>
      <point x="951.0" y="480"/>
      <point x="863.0" y="538"/>
      <point x="737.0" y="538" type="curve" smooth="yes"/>
      <point x="266.0" y="538" type="line" smooth="yes"/>
      <point x="208.0" y="538"/>
      <point x="159.0" y="526"/>
      <point x="122.0" y="495" type="curve" smooth="yes"/>
      <point x="-6.0" y="386" type="line" smooth="yes"/>
      <point x="-52.0" y="348"/>
      <point x="-79.0" y="282"/>
      <point x="-79.0" y="173" type="curve" smooth="yes"/>
      <point x="-79.0" y="119" type="line" smooth="yes"/>
      <point x="-79.0" y="87"/>
      <point x="-65.0" y="73"/>
      <point x="-33.0" y="73" type="curve" smooth="yes"/>
      <point x="89.0" y="73" type="line" smooth="yes"/>
      <point x="103.0" y="73"/>
      <point x="114.0" y="77"/>
      <point x="120.0" y="83" type="curve"/>
    </contour>
  </outline>
</glyph>
<glyph name="guillemotright.v" format="1">
  <advance width="1000"/>
  <unicode hex="E23A"/>
  <outline>
    <contour>
      <point x="334.0" y="-115" type="curve" smooth="yes"/>
      <point x="408.0" y="-115" type="line" smooth="yes"/>
      <point x="458.0" y="-115"/>
      <point x="492.0" y="-104"/>
      <point x="517.0" y="-83" type="curve" smooth="yes"/>
      <point x="646.0" y="25" type="line" smooth="yes"/>
      <point x="673.0" y="48"/>
      <point x="688.0" y="83"/>
      <point x="702.0" y="128" type="curve" smooth="yes"/>
      <point x="754.0" y="307" type="line" smooth="yes"/>
      <point x="763.0" y="339"/>
      <point x="749.0" y="356"/>
      <point x="713.0" y="356" type="curve" smooth="yes"/>
      <point x="599.0" y="356" type="line"/>
      <point x="646.0" y="395" type="line" smooth="yes"/>
      <point x="673.0" y="417"/>
      <point x="688.0" y="452"/>
      <point x="702.0" y="498" type="curve" smooth="yes"/>
      <point x="751.0" y="667" type="line" smooth="yes"/>
      <point x="761.0" y="698"/>
      <point x="746.0" y="716"/>
      <point x="710.0" y="716" type="curve" smooth="yes"/>
      <point x="596.0" y="716" type="line" smooth="yes"/>
      <point x="579.0" y="716"/>
      <point x="568.0" y="711"/>
      <point x="558.0" y="704" type="curve"/>
      <point x="475.0" y="634" type="line"/>
      <point x="464.0" y="673" type="line" smooth="yes"/>
      <point x="455.0" y="702"/>
      <point x="436.0" y="716"/>
      <point x="405.0" y="716" type="curve" smooth="yes"/>
      <point x="291.0" y="716" type="line" smooth="yes"/>
      <point x="277.0" y="716"/>
      <point x="266.0" y="713"/>
      <point x="259.0" y="707" type="curve" smooth="yes"/>
      <point x="130.0" y="598" type="line" smooth="yes"/>
      <point x="120.0" y="590"/>
      <point x="116.0" y="578"/>
      <point x="122.0" y="558" type="curve" smooth="yes"/>
      <point x="170.0" y="389" type="line" smooth="yes"/>
      <point x="180.0" y="355"/>
      <point x="191.0" y="327"/>
      <point x="207.0" y="306" type="curve"/>
      <point x="127.0" y="238" type="line" smooth="yes"/>
      <point x="117.0" y="230"/>
      <point x="113.0" y="218"/>
      <point x="119.0" y="198" type="curve" smooth="yes"/>
      <point x="170.0" y="19" type="line" smooth="yes"/>
      <point x="195.0" y="-69"/>
      <point x="229.0" y="-115"/>
    </contour>
  </outline>
</glyph>
<glyph name="perthousand.v" format="1">
  <advance width="1000"/>
  <unicode hex="E242"/>
  <outline>
    <contour>
      <point x="622.0" y="-124" type="curve" smooth="yes"/>
      <point x="681.0" y="-124"/>
      <point x="718.0" y="-112"/>
      <point x="742.0" y="-92" type="curve" smooth="yes"/>
      <point x="871.0" y="16" type="line" smooth="yes"/>
      <point x="899.0" y="39"/>
      <point x="908.0" y="73"/>
      <point x="908.0" y="114" type="curve" smooth="yes"/>
      <point x="908.0" y="254" type="line" smooth="yes"/>
      <point x="908.0" y="330"/>
      <point x="880.0" y="383"/>
      <point x="751.0" y="383" type="curve" smooth="yes"/>
      <point x="693.0" y="383"/>
      <point x="655.0" y="371"/>
      <point x="630.0" y="353" type="curve"/>
      <point x="608.0" y="371"/>
      <point x="574.0" y="383"/>
      <point x="519.0" y="383" type="curve" smooth="yes"/>
      <point x="511.0" y="383" type="line"/>
      <point x="708.0" y="678" type="line" smooth="yes"/>
      <point x="728.0" y="708"/>
      <point x="715.0" y="730"/>
      <point x="679.0" y="730" type="curve" smooth="yes"/>
      <point x="594.0" y="730" type="line" smooth="yes"/>
      <point x="578.0" y="730"/>
      <point x="567.0" y="725"/>
      <point x="557.0" y="717" type="curve" smooth="yes"/>
      <point x="448.0" y="626" type="line"/>
      <point x="443.0" y="691"/>
      <point x="405.0" y="735"/>
      <point x="272.0" y="735" type="curve" smooth="yes"/>
      <point x="201.0" y="735"/>
      <point x="156.0" y="722"/>
      <point x="130.0" y="700" type="curve" smooth="yes"/>
      <point x="1.0" y="591" type="line" smooth="yes"/>
      <point x="-27.0" y="568"/>
      <point x="-36.0" y="536"/>
      <point x="-36.0" y="497" type="curve" smooth="yes"/>
      <point x="-36.0" y="357" type="line" smooth="yes"/>
      <point x="-36.0" y="282"/>
      <point x="-3.0" y="228"/>
      <point x="143.0" y="228" type="curve" smooth="yes"/>
      <point x="153.0" y="228"/>
      <point x="163.0" y="228"/>
      <point x="171.0" y="229" type="curve"/>
      <point x="-26.0" y="-67" type="line" smooth="yes"/>
      <point x="-46.0" y="-97"/>
      <point x="-33.0" y="-119"/>
      <point x="3.0" y="-119" type="curve" smooth="yes"/>
      <point x="88.0" y="-119" type="line" smooth="yes"/>
      <point x="103.0" y="-119"/>
      <point x="115.0" y="-114"/>
      <point x="125.0" y="-106" type="curve" smooth="yes"/>
      <point x="232.0" y="-16" type="line"/>
      <point x="238.0" y="-80"/>
      <point x="273.0" y="-124"/>
      <point x="390.0" y="-124" type="curve" smooth="yes"/>
      <point x="447.0" y="-124"/>
      <point x="482.0" y="-112"/>
      <point x="504.0" y="-95" type="curve"/>
      <point x="528.0" y="-113"/>
      <point x="565.0" y="-124"/>
    </contour>
  </outline>
</glyph>
<glyph name="quoteleft.salt_v" format="1">
  <advance width="1000"/>
  <unicode hex="E244"/>
  <outline>
    <contour>
      <point x="244.0" y="111" type="line" smooth="yes"/>
      <point x="255.0" y="111"/>
      <point x="263.0" y="114"/>
      <point x="269.0" y="120" type="curve"/>
      <point x="398.0" y="227" type="line" smooth="yes"/>
      <point x="405.0" y="233"/>
      <point x="409.0" y="242"/>
      <point x="409.0" y="256" type="curve" smooth="yes"/>
      <point x="409.0" y="362" type="line" smooth="yes"/>
      <point x="409.0" y="387"/>
      <point x="398.0" y="398"/>
      <point x="373.0" y="398" type="curve" smooth="yes"/>
      <point x="366.0" y="398" type="line"/>
      <point x="388.0" y="416" type="line" smooth="yes"/>
      <point x="395.0" y="422"/>
      <point x="399.0" y="431"/>
      <point x="399.0" y="445" type="curve" smooth="yes"/>
      <point x="399.0" y="474" type="line" smooth="yes"/>
      <point x="399.0" y="500"/>
      <point x="388.0" y="510"/>
      <point x="363.0" y="510" type="curve" smooth="yes"/>
      <point x="308.0" y="510" type="line" smooth="yes"/>
      <point x="275.0" y="510"/>
      <point x="248.0" y="502"/>
      <point x="228.0" y="485" type="curve" smooth="yes"/>
      <point x="99.0" y="376" type="line" smooth="yes"/>
      <point x="76.0" y="357"/>
      <point x="62.0" y="326"/>
      <point x="62.0" y="282" type="curve" smooth="yes"/>
      <point x="62.0" y="147" type="line" smooth="yes"/>
      <point x="62.0" y="122"/>
      <point x="73.0" y="111"/>
      <point x="98.0" y="111" type="curve" smooth="yes"/>
    </contour>
  </outline>
</glyph>
<glyph name="H.s_v" format="1">
  <advance width="1000"/>
  <unicode hex="E24B"/>
  <outline>
    <contour>
      <point x="423.0" y="-1" type="line" smooth="yes"/>
      <point x="428.0" y="3"/>
      <point x="432.0" y="8"/>
      <point x="434.0" y="15" type="curve"/>
      <point x="434.0" y="-73" type="line" smooth="yes"/>
      <point x="434.0" y="-105"/>
      <point x="448.0" y="-119"/>
      <point x="480.0" y="-119" type="curve" smooth="yes"/>
      <point x="635.0" y="-119" type="line" smooth="yes"/>
      <point x="649.0" y="-119"/>
      <point x="660.0" y="-115"/>
      <point x="666.0" y="-109" type="curve"/>
      <point x="796.0" y="-1" type="line" smooth="yes"/>
      <point x="805.0" y="7"/>
      <point x="810.0" y="18"/>
      <point x="810.0" y="36" type="curve" smooth="yes"/>
      <point x="810.0" y="644" type="line" smooth="yes"/>
      <point x="810.0" y="676"/>
      <point x="796.0" y="690"/>
      <point x="764.0" y="690" type="curve" smooth="yes"/>
      <point x="609.0" y="690" type="line" smooth="yes"/>
      <point x="595.0" y="690"/>
      <point x="584.0" y="687"/>
      <point x="577.0" y="681" type="curve" smooth="yes"/>
      <point x="448.0" y="572" type="line" smooth="yes"/>
      <point x="443.0" y="568"/>
      <point x="439.0" y="563"/>
      <point x="437.0" y="556" type="curve"/>
      <point x="437.0" y="644" type="line" smooth="yes"/>
      <point x="437.0" y="676"/>
      <point x="423.0" y="690"/>
      <point x="391.0" y="690" type="curve" smooth="yes"/>
      <point x="236.0" y="690" type="line" smooth="yes"/>
      <point x="222.0" y="690"/>
      <point x="211.0" y="687"/>
      <point x="204.0" y="681" type="curve" smooth="yes"/>
      <point x="75.0" y="572" type="line" smooth="yes"/>
      <point x="66.0" y="564"/>
      <point x="61.0" y="553"/>
      <point x="61.0" y="535" type="curve" smooth="yes"/>
      <point x="61.0" y="-73" type="line" smooth="yes"/>
      <point x="61.0" y="-105"/>
      <point x="75.0" y="-119"/>
      <point x="107.0" y="-119" type="curve" smooth="yes"/>
      <point x="262.0" y="-119" type="line" smooth="yes"/>
      <point x="276.0" y="-119"/>
      <point x="287.0" y="-115"/>
      <point x="293.0" y="-109" type="curve"/>
    </contour>
  </outline>
</glyph>
<glyph name="Y.salt_s_v" format="1">
  <advance width="1000"/>
  <unicode hex="E25E"/>
  <outline>
    <contour>
      <point x="452.0" y="-119" type="line" smooth="yes"/>
      <point x="466.0" y="-119"/>
      <point x="477.0" y="-115"/>
      <point x="483.0" y="-109" type="curve"/>
      <point x="613.0" y="-1" type="line" smooth="yes"/>
      <point x="622.0" y="7"/>
      <point x="627.0" y="18"/>
      <point x="627.0" y="36" type="curve" smooth="yes"/>
      <point x="627.0" y="126" type="line"/>
      <point x="749.0" y="229" type="line" smooth="yes"/>
      <point x="795.0" y="267"/>
      <point x="810.0" y="320"/>
      <point x="810.0" y="382" type="curve" smooth="yes"/>
      <point x="810.0" y="643" type="line" smooth="yes"/>
      <point x="810.0" y="675"/>
      <point x="796.0" y="689"/>
      <point x="764.0" y="689" type="curve" smooth="yes"/>
      <point x="610.0" y="689" type="line" smooth="yes"/>
      <point x="596.0" y="689"/>
      <point x="585.0" y="686"/>
      <point x="578.0" y="680" type="curve" smooth="yes"/>
      <point x="449.0" y="571" type="line" smooth="yes"/>
      <point x="443.0" y="566"/>
      <point x="439.0" y="560"/>
      <point x="437.0" y="552" type="curve"/>
      <point x="437.0" y="643" type="line" smooth="yes"/>
      <point x="437.0" y="675"/>
      <point x="423.0" y="689"/>
      <point x="391.0" y="689" type="curve" smooth="yes"/>
      <point x="236.0" y="689" type="line" smooth="yes"/>
      <point x="222.0" y="689"/>
      <point x="211.0" y="686"/>
      <point x="204.0" y="680" type="curve" smooth="yes"/>
      <point x="75.0" y="571" type="line" smooth="yes"/>
      <point x="66.0" y="563"/>
      <point x="61.0" y="552"/>
      <point x="61.0" y="534" type="curve" smooth="yes"/>
      <point x="61.0" y="273" type="line" smooth="yes"/>
      <point x="61.0" y="172"/>
      <point x="100.0" y="95"/>
      <point x="244.0" y="69" type="curve"/>
      <point x="244.0" y="-73" type="line" smooth="yes"/>
      <point x="244.0" y="-105"/>
      <point x="258.0" y="-119"/>
      <point x="290.0" y="-119" type="curve" smooth="yes"/>
    </contour>
  </outline>
</glyph>
<glyph name="percent.v" format="1">
  <advance width="1000"/>
  <unicode hex="FF05"/>
  <outline>
    <contour>
      <point x="525.0" y="-124" type="curve" smooth="yes"/>
      <point x="601.0" y="-124"/>
      <point x="643.0" y="-111"/>
      <point x="668.0" y="-91" type="curve" smooth="yes"/>
      <point x="797.0" y="18" type="line" smooth="yes"/>
      <point x="825.0" y="41"/>
      <point x="831.0" y="73"/>
      <point x="831.0" y="114" type="curve" smooth="yes"/>
      <point x="831.0" y="254" type="line" smooth="yes"/>
      <point x="831.0" y="329"/>
      <point x="800.0" y="383"/>
      <point x="654.0" y="383" type="curve" smooth="yes"/>
      <point x="636.0" y="383"/>
      <point x="620.0" y="382"/>
      <point x="605.0" y="380" type="curve"/>
      <point x="803.0" y="678" type="line" smooth="yes"/>
      <point x="823.0" y="708"/>
      <point x="810.0" y="730"/>
      <point x="774.0" y="730" type="curve" smooth="yes"/>
      <point x="689.0" y="730" type="line" smooth="yes"/>
      <point x="673.0" y="730"/>
      <point x="662.0" y="725"/>
      <point x="652.0" y="717" type="curve" smooth="yes"/>
      <point x="524.0" y="610" type="line"/>
      <point x="523.0" y="683"/>
      <point x="491.0" y="735"/>
      <point x="347.0" y="735" type="curve" smooth="yes"/>
      <point x="276.0" y="735"/>
      <point x="231.0" y="722"/>
      <point x="205.0" y="700" type="curve" smooth="yes"/>
      <point x="76.0" y="591" type="line" smooth="yes"/>
      <point x="48.0" y="568"/>
      <point x="39.0" y="536"/>
      <point x="39.0" y="497" type="curve" smooth="yes"/>
      <point x="39.0" y="357" type="line" smooth="yes"/>
      <point x="39.0" y="282"/>
      <point x="72.0" y="228"/>
      <point x="218.0" y="228" type="curve" smooth="yes"/>
      <point x="236.0" y="228"/>
      <point x="252.0" y="229"/>
      <point x="267.0" y="231" type="curve"/>
      <point x="69.0" y="-67" type="line" smooth="yes"/>
      <point x="49.0" y="-97"/>
      <point x="62.0" y="-119"/>
      <point x="98.0" y="-119" type="curve" smooth="yes"/>
      <point x="183.0" y="-119" type="line" smooth="yes"/>
      <point x="198.0" y="-119"/>
      <point x="210.0" y="-114"/>
      <point x="220.0" y="-106" type="curve" smooth="yes"/>
      <point x="346.0" y="1" type="line"/>
      <point x="346.0" y="-70"/>
      <point x="379.0" y="-124"/>
    </contour>
  </outline>
</glyph>
<glyph name="seven.v" format="1">
  <advance width="1000"/>
  <unicode hex="FF17"/>
  <outline>
    <contour>
      <point x="366.0" y="-119" type="line" smooth="yes"/>
      <point x="380.0" y="-119"/>
      <point x="391.0" y="-115"/>
      <point x="397.0" y="-109" type="curve"/>
      <point x="527.0" y="-1" type="line" smooth="yes"/>
      <point x="536.0" y="7"/>
      <point x="541.0" y="18"/>
      <point x="541.0" y="36" type="curve" smooth="yes"/>
      <point x="541.0" y="120" type="line"/>
      <point x="575.0" y="128"/>
      <point x="602.0" y="141"/>
      <point x="623.0" y="158" type="curve" smooth="yes"/>
      <point x="752.0" y="267" type="line" smooth="yes"/>
      <point x="791.0" y="300"/>
      <point x="810.0" y="351"/>
      <point x="810.0" y="431" type="curve" smooth="yes"/>
      <point x="810.0" y="684" type="line" smooth="yes"/>
      <point x="810.0" y="716"/>
      <point x="796.0" y="730"/>
      <point x="764.0" y="730" type="curve" smooth="yes"/>
      <point x="236.0" y="730" type="line" smooth="yes"/>
      <point x="222.0" y="730"/>
      <point x="211.0" y="727"/>
      <point x="204.0" y="721" type="curve" smooth="yes"/>
      <point x="75.0" y="612" type="line" smooth="yes"/>
      <point x="66.0" y="604"/>
      <point x="61.0" y="593"/>
      <point x="61.0" y="575" type="curve" smooth="yes"/>
      <point x="61.0" y="454" type="line" smooth="yes"/>
      <point x="61.0" y="422"/>
      <point x="75.0" y="408"/>
      <point x="107.0" y="408" type="curve" smooth="yes"/>
      <point x="390.0" y="408" type="line"/>
      <point x="373.0" y="401"/>
      <point x="357.0" y="392"/>
      <point x="344.0" y="381" type="curve" smooth="yes"/>
      <point x="215.0" y="273" type="line" smooth="yes"/>
      <point x="176.0" y="240"/>
      <point x="158.0" y="189"/>
      <point x="158.0" y="108" type="curve" smooth="yes"/>
      <point x="158.0" y="-73" type="line" smooth="yes"/>
      <point x="158.0" y="-105"/>
      <point x="172.0" y="-119"/>
      <point x="204.0" y="-119" type="curve" smooth="yes"/>
    </contour>
  </outline>
</glyph>
<glyph name="eight.v" format="1">
  <advance width="1000"/>
  <unicode hex="FF18"/>
  <outline>
    <contour>
      <point x="372.0" y="-134" type="curve" smooth="yes"/>
      <point x="509.0" y="-134"/>
      <point x="589.0" y="-111"/>
      <point x="635.0" y="-73" type="curve" smooth="yes"/>
      <point x="764.0" y="36" type="line" smooth="yes"/>
      <point x="802.0" y="67"/>
      <point x="816.0" y="110"/>
      <point x="816.0" y="159" type="curve" smooth="yes"/>
      <point x="816.0" y="256" type="line" smooth="yes"/>
      <point x="816.0" y="344"/>
      <point x="781.0" y="394"/>
      <point x="729.0" y="414" type="curve"/>
      <point x="734.0" y="418" type="line" smooth="yes"/>
      <point x="761.0" y="441"/>
      <point x="772.0" y="475"/>
      <point x="772.0" y="519" type="curve" smooth="yes"/>
      <point x="772.0" y="577" type="line" smooth="yes"/>
      <point x="772.0" y="679"/>
      <point x="716.0" y="745"/>
      <point x="502.0" y="745" type="curve" smooth="yes"/>
      <point x="387.0" y="745"/>
      <point x="317.0" y="726"/>
      <point x="277.0" y="692" type="curve" smooth="yes"/>
      <point x="148.0" y="583" type="line" smooth="yes"/>
      <point x="113.0" y="555"/>
      <point x="100.0" y="515"/>
      <point x="100.0" y="468" type="curve" smooth="yes"/>
      <point x="100.0" y="410" type="line" smooth="yes"/>
      <point x="100.0" y="367"/>
      <point x="110.0" y="333"/>
      <point x="138.0" y="310" type="curve"/>
      <point x="108.0" y="285" type="line" smooth="yes"/>
      <point x="76.0" y="258"/>
      <point x="56.0" y="213"/>
      <point x="56.0" y="147" type="curve" smooth="yes"/>
      <point x="56.0" y="50" type="line" smooth="yes"/>
      <point x="56.0" y="-57"/>
      <point x="117.0" y="-134"/>
    </contour>
  </outline>
</glyph>
<glyph name="G.v" format="1">
  <advance width="1000"/>
  <unicode hex="FF27"/>
  <outline>
    <contour>
      <point x="635.0" y="-119" type="line" smooth="yes"/>
      <point x="649.0" y="-119"/>
      <point x="660.0" y="-115"/>
      <point x="666.0" y="-109" type="curve"/>
      <point x="796.0" y="-1" type="line" smooth="yes"/>
      <point x="805.0" y="7"/>
      <point x="810.0" y="18"/>
      <point x="810.0" y="36" type="curve" smooth="yes"/>
      <point x="810.0" y="345" type="line" smooth="yes"/>
      <point x="810.0" y="377"/>
      <point x="796.0" y="391"/>
      <point x="764.0" y="391" type="curve" smooth="yes"/>
      <point x="609.0" y="391" type="line" smooth="yes"/>
      <point x="595.0" y="391"/>
      <point x="584.0" y="388"/>
      <point x="577.0" y="382" type="curve" smooth="yes"/>
      <point x="448.0" y="273" type="line" smooth="yes"/>
      <point x="439.0" y="265"/>
      <point x="434.0" y="254"/>
      <point x="434.0" y="236" type="curve" smooth="yes"/>
      <point x="434.0" y="218" type="line"/>
      <point x="432.0" y="224"/>
      <point x="432.0" y="231"/>
      <point x="432.0" y="238" type="curve" smooth="yes"/>
      <point x="432.0" y="408" type="line"/>
      <point x="570.0" y="408" type="line" smooth="yes"/>
      <point x="584.0" y="408"/>
      <point x="595.0" y="412"/>
      <point x="601.0" y="418" type="curve"/>
      <point x="731.0" y="526" type="line" smooth="yes"/>
      <point x="740.0" y="534"/>
      <point x="745.0" y="545"/>
      <point x="745.0" y="563" type="curve" smooth="yes"/>
      <point x="745.0" y="684" type="line" smooth="yes"/>
      <point x="745.0" y="716"/>
      <point x="731.0" y="730"/>
      <point x="699.0" y="730" type="curve" smooth="yes"/>
      <point x="441.0" y="730" type="line" smooth="yes"/>
      <point x="349.0" y="730"/>
      <point x="287.0" y="711"/>
      <point x="247.0" y="677" type="curve" smooth="yes"/>
      <point x="118.0" y="569" type="line" smooth="yes"/>
      <point x="72.0" y="531"/>
      <point x="56" y="474"/>
      <point x="56.0" y="407" type="curve" smooth="yes"/>
      <point x="56" y="125" type="line" smooth="yes"/>
      <point x="56" y="-1"/>
      <point x="114.0" y="-119"/>
      <point x="312.0" y="-119" type="curve" smooth="yes"/>
    </contour>
    <contour>
      <point x="491.0" y="747.0" type="move" name="top"/>
    </contour>
    <contour>
      <point x="491.0" y="0.0" type="move" name="bottom"/>
    </contour>
  </outline>
</glyph>
<glyph name="I.v" format="1">
  <advance width="1000"/>
  <unicode hex="FF29"/>
  <outline>
    <contour>
      <point x="787.0" y="-1" type="line" smooth="yes"/>
      <point x="796.0" y="7"/>
      <point x="801.0" y="18"/>
      <point x="801.0" y="36" type="curve" smooth="yes"/>
      <point x="801.0" y="155" type="line" smooth="yes"/>
      <point x="801.0" y="187"/>
      <point x="787.0" y="201"/>
      <point x="755.0" y="201" type="curve" smooth="yes"/>
      <point x="631.0" y="201" type="line"/>
      <point x="631.0" y="408" type="line"/>
      <point x="643.0" y="409"/>
      <point x="652.0" y="413"/>
      <point x="658.0" y="419" type="curve"/>
      <point x="657.0" y="418" type="line"/>
      <point x="787.0" y="526" type="line" smooth="yes"/>
      <point x="796.0" y="534"/>
      <point x="801.0" y="545"/>
      <point x="801.0" y="563" type="curve" smooth="yes"/>
      <point x="801.0" y="684" type="line" smooth="yes"/>
      <point x="801.0" y="716"/>
      <point x="787.0" y="730"/>
      <point x="755.0" y="730" type="curve" smooth="yes"/>
      <point x="245.0" y="730" type="line" smooth="yes"/>
      <point x="231.0" y="730"/>
      <point x="220.0" y="727"/>
      <point x="213.0" y="721" type="curve" smooth="yes"/>
      <point x="84.0" y="612" type="line" smooth="yes"/>
      <point x="75.0" y="604"/>
      <point x="70.0" y="593"/>
      <point x="70.0" y="575" type="curve" smooth="yes"/>
      <point x="70.0" y="454" type="line" smooth="yes"/>
      <point x="70.0" y="422"/>
      <point x="84.0" y="408"/>
      <point x="116.0" y="408" type="curve" smooth="yes"/>
      <point x="240.0" y="408" type="line"/>
      <point x="240.0" y="201" type="line"/>
      <point x="228.0" y="200"/>
      <point x="219.0" y="197"/>
      <point x="213.0" y="192" type="curve" smooth="yes"/>
      <point x="84.0" y="83" type="line" smooth="yes"/>
      <point x="75.0" y="75"/>
      <point x="70.0" y="64"/>
      <point x="70.0" y="46" type="curve" smooth="yes"/>
      <point x="70.0" y="-73" type="line" smooth="yes"/>
      <point x="70.0" y="-105"/>
      <point x="84.0" y="-119"/>
      <point x="116.0" y="-119" type="curve" smooth="yes"/>
      <point x="626.0" y="-119" type="line" smooth="yes"/>
      <point x="640.0" y="-119"/>
      <point x="651.0" y="-115"/>
      <point x="657.0" y="-109" type="curve"/>
    </contour>
  </outline>
</glyph>
<glyph name="J.v" format="1">
  <advance width="1000"/>
  <unicode hex="FF2A"/>
  <outline>
    <contour>
      <point x="368.0" y="-135" type="curve" smooth="yes"/>
      <point x="496.0" y="-135"/>
      <point x="574.0" y="-112"/>
      <point x="620.0" y="-73" type="curve" smooth="yes"/>
      <point x="749.0" y="36" type="line" smooth="yes"/>
      <point x="795.0" y="73"/>
      <point x="810.0" y="127"/>
      <point x="810.0" y="189" type="curve" smooth="yes"/>
      <point x="810.0" y="684" type="line" smooth="yes"/>
      <point x="810.0" y="716"/>
      <point x="796.0" y="730"/>
      <point x="764.0" y="730" type="curve" smooth="yes"/>
      <point x="607.0" y="730" type="line" smooth="yes"/>
      <point x="593.0" y="730"/>
      <point x="582.0" y="727"/>
      <point x="575.0" y="721" type="curve" smooth="yes"/>
      <point x="441.0" y="608" type="line" smooth="yes"/>
      <point x="432.0" y="600"/>
      <point x="427.0" y="589"/>
      <point x="427.0" y="571" type="curve"/>
      <point x="427.0" y="351" type="line" smooth="yes"/>
      <point x="427.0" y="384"/>
      <point x="413.0" y="397"/>
      <point x="381.0" y="397" type="curve" smooth="yes"/>
      <point x="236.0" y="397" type="line" smooth="yes"/>
      <point x="221.0" y="397"/>
      <point x="211.0" y="394"/>
      <point x="204.0" y="388" type="curve" smooth="yes"/>
      <point x="74.0" y="279" type="line" smooth="yes"/>
      <point x="66.0" y="272"/>
      <point x="61.0" y="260"/>
      <point x="61.0" y="242" type="curve" smooth="yes"/>
      <point x="61.0" y="80" type="line" smooth="yes"/>
      <point x="61.0" y="-46"/>
      <point x="115.0" y="-135"/>
    </contour>
  </outline>
</glyph>
<glyph name="P.v" format="1">
  <advance width="1000"/>
  <unicode hex="FF30"/>
  <outline>
    <contour>
      <point x="262.0" y="-119" type="line" smooth="yes"/>
      <point x="276.0" y="-119"/>
      <point x="287.0" y="-115"/>
      <point x="293.0" y="-109" type="curve"/>
      <point x="423.0" y="-1" type="line" smooth="yes"/>
      <point x="432.0" y="7"/>
      <point x="437.0" y="18"/>
      <point x="437.0" y="36" type="curve" smooth="yes"/>
      <point x="437.0" y="83" type="line"/>
      <point x="439.0" y="83" type="line" smooth="yes"/>
      <point x="527.0" y="83"/>
      <point x="587.0" y="102"/>
      <point x="625.0" y="134" type="curve" smooth="yes"/>
      <point x="754.0" y="242" type="line" smooth="yes"/>
      <point x="798.0" y="279"/>
      <point x="814.0" y="333"/>
      <point x="814.0" y="397" type="curve" smooth="yes"/>
      <point x="814.0" y="525" type="line" smooth="yes"/>
      <point x="814.0" y="646"/>
      <point x="759.0" y="730"/>
      <point x="568.0" y="730" type="curve" smooth="yes"/>
      <point x="236.0" y="730" type="line" smooth="yes"/>
      <point x="222.0" y="730"/>
      <point x="211.0" y="727"/>
      <point x="204.0" y="721" type="curve" smooth="yes"/>
      <point x="75.0" y="612" type="line" smooth="yes"/>
      <point x="66.0" y="604"/>
      <point x="61.0" y="593"/>
      <point x="61.0" y="575" type="curve" smooth="yes"/>
      <point x="61.0" y="-73" type="line" smooth="yes"/>
      <point x="61.0" y="-105"/>
      <point x="75.0" y="-119"/>
      <point x="107.0" y="-119" type="curve" smooth="yes"/>
    </contour>
  </outline>
</glyph>
<glyph name="R.v" format="1">
  <advance width="1000"/>
  <unicode hex="FF32"/>
  <outline>
    <contour>
      <point x="422.0" y="-1" type="line" smooth="yes"/>
      <point x="431.0" y="7"/>
      <point x="436.0" y="18"/>
      <point x="436.0" y="36" type="curve" smooth="yes"/>
      <point x="436.0" y="108" type="line"/>
      <point x="445.0" y="103"/>
      <point x="450.0" y="93"/>
      <point x="450.0" y="80" type="curve" smooth="yes"/>
      <point x="450.0" y="-73" type="line" smooth="yes"/>
      <point x="450.0" y="-105"/>
      <point x="464.0" y="-119"/>
      <point x="496.0" y="-119" type="curve" smooth="yes"/>
      <point x="645.0" y="-119" type="line" smooth="yes"/>
      <point x="659.0" y="-119"/>
      <point x="670.0" y="-115"/>
      <point x="676.0" y="-109" type="curve"/>
      <point x="806.0" y="-1" type="line" smooth="yes"/>
      <point x="815.0" y="7"/>
      <point x="820.0" y="18"/>
      <point x="820.0" y="36" type="curve" smooth="yes"/>
      <point x="820.0" y="248" type="line" smooth="yes"/>
      <point x="820.0" y="327"/>
      <point x="779.0" y="379"/>
      <point x="726.0" y="397" type="curve"/>
      <point x="727.0" y="398" type="line" smooth="yes"/>
      <point x="754.0" y="421"/>
      <point x="765.0" y="458"/>
      <point x="765.0" y="507" type="curve" smooth="yes"/>
      <point x="765.0" y="553" type="line" smooth="yes"/>
      <point x="765.0" y="657"/>
      <point x="717.0" y="730"/>
      <point x="558.0" y="730" type="curve" smooth="yes"/>
      <point x="236.0" y="730" type="line" smooth="yes"/>
      <point x="222.0" y="730"/>
      <point x="211.0" y="727"/>
      <point x="204.0" y="721" type="curve" smooth="yes"/>
      <point x="75.0" y="612" type="line" smooth="yes"/>
      <point x="66.0" y="604"/>
      <point x="61.0" y="593"/>
      <point x="61.0" y="575" type="curve" smooth="yes"/>
      <point x="61.0" y="-73" type="line" smooth="yes"/>
      <point x="61.0" y="-105"/>
      <point x="75.0" y="-119"/>
      <point x="107.0" y="-119" type="curve" smooth="yes"/>
      <point x="261.0" y="-119" type="line" smooth="yes"/>
      <point x="275.0" y="-119"/>
      <point x="286.0" y="-115"/>
      <point x="292.0" y="-109" type="curve"/>
    </contour>
  </outline>
</glyph>
<glyph name="T.v" format="1">
  <advance width="1000"/>
  <unicode hex="FF34"/>
  <outline>
    <contour>
      <point x="455.0" y="-119" type="line" smooth="yes"/>
      <point x="469.0" y="-119"/>
      <point x="480.0" y="-115"/>
      <point x="486.0" y="-109" type="curve"/>
      <point x="616.0" y="-1" type="line" smooth="yes"/>
      <point x="625.0" y="7"/>
      <point x="630.0" y="18"/>
      <point x="630.0" y="36" type="curve" smooth="yes"/>
      <point x="630.0" y="408" type="line"/>
      <point x="635.0" y="408" type="line" smooth="yes"/>
      <point x="649.0" y="408"/>
      <point x="660.0" y="412"/>
      <point x="666.0" y="418" type="curve"/>
      <point x="796.0" y="526" type="line" smooth="yes"/>
      <point x="805.0" y="534"/>
      <point x="810.0" y="545"/>
      <point x="810.0" y="563" type="curve" smooth="yes"/>
      <point x="810.0" y="684" type="line" smooth="yes"/>
      <point x="810.0" y="716"/>
      <point x="796.0" y="730"/>
      <point x="764.0" y="730" type="curve" smooth="yes"/>
      <point x="236.0" y="730" type="line" smooth="yes"/>
      <point x="222.0" y="730"/>
      <point x="211.0" y="727"/>
      <point x="204.0" y="721" type="curve" smooth="yes"/>
      <point x="75.0" y="612" type="line" smooth="yes"/>
      <point x="66.0" y="604"/>
      <point x="61.0" y="593"/>
      <point x="61.0" y="575" type="curve" smooth="yes"/>
      <point x="61.0" y="454" type="line" smooth="yes"/>
      <point x="61.0" y="422"/>
      <point x="75.0" y="408"/>
      <point x="107.0" y="408" type="curve" smooth="yes"/>
      <point x="241.0" y="408" type="line"/>
      <point x="241.0" y="-73" type="line" smooth="yes"/>
      <point x="241.0" y="-105"/>
      <point x="255.0" y="-119"/>
      <point x="287.0" y="-119" type="curve" smooth="yes"/>
    </contour>
  </outline>
</glyph>
<glyph name="Z.v" format="1">
  <advance width="1000"/>
  <unicode hex="FF3A"/>
  <outline>
    <contour>
      <point x="635.0" y="-119" type="line" smooth="yes"/>
      <point x="649.0" y="-119"/>
      <point x="660.0" y="-115"/>
      <point x="666.0" y="-109" type="curve"/>
      <point x="796.0" y="-1" type="line" smooth="yes"/>
      <point x="805.0" y="7"/>
      <point x="810.0" y="18"/>
      <point x="810.0" y="36" type="curve" smooth="yes"/>
      <point x="810.0" y="155" type="line" smooth="yes"/>
      <point x="810.0" y="187"/>
      <point x="796.0" y="201"/>
      <point x="764.0" y="201" type="curve" smooth="yes"/>
      <point x="517.0" y="201" type="line"/>
      <point x="774.0" y="465" type="line" smooth="yes"/>
      <point x="794.0" y="486"/>
      <point x="802.0" y="505"/>
      <point x="802.0" y="535" type="curve" smooth="yes"/>
      <point x="802.0" y="684" type="line" smooth="yes"/>
      <point x="802.0" y="716"/>
      <point x="788.0" y="730"/>
      <point x="756.0" y="730" type="curve" smooth="yes"/>
      <point x="244.0" y="730" type="line" smooth="yes"/>
      <point x="230.0" y="730"/>
      <point x="219.0" y="727"/>
      <point x="212.0" y="721" type="curve" smooth="yes"/>
      <point x="83.0" y="612" type="line" smooth="yes"/>
      <point x="74.0" y="604"/>
      <point x="69.0" y="593"/>
      <point x="69.0" y="575" type="curve" smooth="yes"/>
      <point x="69.0" y="454" type="line" smooth="yes"/>
      <point x="69.0" y="422"/>
      <point x="83.0" y="408"/>
      <point x="115.0" y="408" type="curve" smooth="yes"/>
      <point x="357.0" y="408" type="line"/>
      <point x="89.0" y="130" type="line" smooth="yes"/>
      <point x="69.0" y="109"/>
      <point x="61.0" y="90"/>
      <point x="61.0" y="61" type="curve" smooth="yes"/>
      <point x="61.0" y="-73" type="line" smooth="yes"/>
      <point x="61.0" y="-105"/>
      <point x="75.0" y="-119"/>
      <point x="107.0" y="-119" type="curve" smooth="yes"/>
    </contour>
  </outline>
</glyph>
<glyph name="D.s_v" format="1">
  <advance width="1000"/>
  <outline>
    <contour>
      <point x="623.0" y="-66" type="curve" smooth="yes"/>
      <point x="752.0" y="43" type="line" smooth="yes"/>
      <point x="798.0" y="81"/>
      <point x="815.0" y="137"/>
      <point x="815.0" y="204" type="curve" smooth="yes"/>
      <point x="815.0" y="476" type="line" smooth="yes"/>
      <point x="815.0" y="602"/>
      <point x="757.0" y="690"/>
      <point x="559.0" y="690" type="curve" smooth="yes"/>
      <point x="236.0" y="690" type="line" smooth="yes"/>
      <point x="222.0" y="690"/>
      <point x="211.0" y="687"/>
      <point x="204.0" y="681" type="curve" smooth="yes"/>
      <point x="75.0" y="572" type="line" smooth="yes"/>
      <point x="66.0" y="564"/>
      <point x="61.0" y="553"/>
      <point x="61.0" y="535" type="curve" smooth="yes"/>
      <point x="61.0" y="-73" type="line" smooth="yes"/>
      <point x="61.0" y="-105"/>
      <point x="75.0" y="-119"/>
      <point x="107.0" y="-119" type="curve" smooth="yes"/>
      <point x="430.0" y="-119" type="line" smooth="yes"/>
      <point x="522.0" y="-119"/>
      <point x="583.0" y="-99"/>
    </contour>
    <contour>
      <point x="454.0" y="332" type="curve" smooth="yes"/>
      <point x="454.0" y="199" type="line"/>
      <point x="437.0" y="199" type="line"/>
      <point x="437.0" y="367" type="line"/>
      <point x="449.0" y="362"/>
      <point x="454.0" y="350"/>
    </contour>
  </outline>
</glyph>
<glyph name="Hbar.v" format="1">
  <advance width="1000"/>
  <outline>
    <contour>
      <point x="419.0" y="-1" type="line" smooth="yes"/>
      <point x="427.0" y="6"/>
      <point x="432.0" y="15"/>
      <point x="433.0" y="29" type="curve"/>
      <point x="437.0" y="29" type="line"/>
      <point x="437.0" y="-73" type="line" smooth="yes"/>
      <point x="437.0" y="-105"/>
      <point x="451.0" y="-119"/>
      <point x="483.0" y="-119" type="curve" smooth="yes"/>
      <point x="635.0" y="-119" type="line" smooth="yes"/>
      <point x="649.0" y="-119"/>
      <point x="660.0" y="-115"/>
      <point x="666.0" y="-109" type="curve"/>
      <point x="796.0" y="-1" type="line" smooth="yes"/>
      <point x="805.0" y="7"/>
      <point x="810.0" y="18"/>
      <point x="810.0" y="36" type="curve" smooth="yes"/>
      <point x="810.0" y="394" type="line"/>
      <point x="845.0" y="424" type="line" smooth="yes"/>
      <point x="854.0" y="432"/>
      <point x="859.0" y="443"/>
      <point x="859.0" y="461" type="curve" smooth="yes"/>
      <point x="859.0" y="558" type="line" smooth="yes"/>
      <point x="859.0" y="591"/>
      <point x="845.0" y="604"/>
      <point x="813.0" y="604" type="curve" smooth="yes"/>
      <point x="810.0" y="604" type="line"/>
      <point x="810.0" y="684" type="line" smooth="yes"/>
      <point x="810.0" y="716"/>
      <point x="796.0" y="730"/>
      <point x="764.0" y="730" type="curve" smooth="yes"/>
      <point x="612.0" y="730" type="line" smooth="yes"/>
      <point x="598.0" y="730"/>
      <point x="587.0" y="727"/>
      <point x="580.0" y="721" type="curve" smooth="yes"/>
      <point x="451.0" y="612" type="line"/>
      <point x="449.0" y="610"/>
      <point x="446.0" y="608"/>
      <point x="444.0" y="604" type="curve"/>
      <point x="433.0" y="604" type="line"/>
      <point x="433.0" y="684" type="line" smooth="yes"/>
      <point x="433.0" y="716"/>
      <point x="419.0" y="730"/>
      <point x="387.0" y="730" type="curve" smooth="yes"/>
      <point x="235.0" y="730" type="line" smooth="yes"/>
      <point x="221.0" y="730"/>
      <point x="210.0" y="727"/>
      <point x="203.0" y="721" type="curve" smooth="yes"/>
      <point x="74.0" y="612" type="line" smooth="yes"/>
      <point x="65.0" y="604"/>
      <point x="60.0" y="593"/>
      <point x="60.0" y="575" type="curve" smooth="yes"/>
      <point x="60.0" y="516" type="line"/>
      <point x="25.0" y="486" type="line" smooth="yes"/>
      <point x="16.0" y="478"/>
      <point x="11.0" y="467"/>
      <point x="11.0" y="449" type="curve" smooth="yes"/>
      <point x="11.0" y="352" type="line"/>
      <point x="11.0" y="319"/>
      <point x="25.0" y="306"/>
      <point x="57.0" y="306" type="curve" smooth="yes"/>
      <point x="60.0" y="306" type="line"/>
      <point x="60.0" y="-73" type="line" smooth="yes"/>
      <point x="60.0" y="-105"/>
      <point x="74.0" y="-119"/>
      <point x="106.0" y="-119" type="curve" smooth="yes"/>
      <point x="258.0" y="-119" type="line" smooth="yes"/>
      <point x="272.0" y="-119"/>
      <point x="283.0" y="-115"/>
      <point x="289.0" y="-109" type="curve"/>
    </contour>
  </outline>
</glyph>
<glyph name="I.salt" format="1">
  <advance width="371.0"/>
  <outline>
    <contour>
      <point x="136.0" y="-119" type="line" smooth="yes"/>
      <point x="150.0" y="-119"/>
      <point x="161.0" y="-115"/>
      <point x="167.0" y="-109" type="curve"/>
      <point x="297.0" y="-1" type="line" smooth="yes"/>
      <point x="306.0" y="7"/>
      <point x="311.0" y="18"/>
      <point x="311.0" y="36" type="curve" smooth="yes"/>
      <point x="311.0" y="684" type="line" smooth="yes"/>
      <point x="311.0" y="716"/>
      <point x="297.0" y="730"/>
      <point x="265.0" y="730" type="curve" smooth="yes"/>
      <point x="106.0" y="730" type="line" smooth="yes"/>
      <point x="92.0" y="730"/>
      <point x="81.0" y="727"/>
      <point x="74.0" y="721" type="curve" smooth="yes"/>
      <point x="-55.0" y="612" type="line" smooth="yes"/>
      <point x="-64.0" y="604"/>
      <point x="-69.0" y="593"/>
      <point x="-69.0" y="575" type="curve" smooth="yes"/>
      <point x="-69.0" y="-73" type="line" smooth="yes"/>
      <point x="-69.0" y="-105"/>
      <point x="-55.0" y="-119"/>
      <point x="-23.0" y="-119" type="curve" smooth="yes"/>
    </contour>
    <contour>
      <point x="185.0" y="747.0" type="move" name="top"/>
    </contour>
    <contour>
      <point x="185.0" y="0.0" type="move" name="bottom"/>
    </contour>
  </outline>
</glyph>
<glyph name="Y.salt_v" format="1">
  <advance width="1000"/>
  <outline>
    <contour>
      <point x="452.0" y="-119" type="line" smooth="yes"/>
      <point x="466.0" y="-119"/>
      <point x="477.0" y="-115"/>
      <point x="483.0" y="-109" type="curve"/>
      <point x="613.0" y="-1" type="line" smooth="yes"/>
      <point x="622.0" y="7"/>
      <point x="627.0" y="18"/>
      <point x="627.0" y="36" type="curve" smooth="yes"/>
      <point x="627.0" y="147" type="line"/>
      <point x="749.0" y="250" type="line" smooth="yes"/>
      <point x="795.0" y="288"/>
      <point x="810.0" y="341"/>
      <point x="810.0" y="403" type="curve" smooth="yes"/>
      <point x="810.0" y="684" type="line" smooth="yes"/>
      <point x="810.0" y="716"/>
      <point x="796.0" y="730"/>
      <point x="764.0" y="730" type="curve" smooth="yes"/>
      <point x="610.0" y="730" type="line" smooth="yes"/>
      <point x="596.0" y="730"/>
      <point x="585.0" y="727"/>
      <point x="578.0" y="721" type="curve" smooth="yes"/>
      <point x="449.0" y="612" type="line" smooth="yes"/>
      <point x="443.0" y="607"/>
      <point x="439.0" y="601"/>
      <point x="437.0" y="593" type="curve"/>
      <point x="437.0" y="684" type="line" smooth="yes"/>
      <point x="437.0" y="716"/>
      <point x="423.0" y="730"/>
      <point x="391.0" y="730" type="curve" smooth="yes"/>
      <point x="236.0" y="730" type="line" smooth="yes"/>
      <point x="222.0" y="730"/>
      <point x="211.0" y="727"/>
      <point x="204.0" y="721" type="curve" smooth="yes"/>
      <point x="75.0" y="612" type="line" smooth="yes"/>
      <point x="66.0" y="604"/>
      <point x="61.0" y="593"/>
      <point x="61.0" y="575" type="curve" smooth="yes"/>
      <point x="61.0" y="294" type="line" smooth="yes"/>
      <point x="61.0" y="193"/>
      <point x="100.0" y="116"/>
      <point x="244.0" y="90" type="curve"/>
      <point x="244.0" y="-73" type="line" smooth="yes"/>
      <point x="244.0" y="-105"/>
      <point x="258.0" y="-119"/>
      <point x="290.0" y="-119" type="curve" smooth="yes"/>
    </contour>
    <contour>
      <point x="500.0" y="747.0" type="move" name="top"/>
    </contour>
    <contour>
      <point x="500.0" y="0.0" type="move" name="bottom"/>
    </contour>
  </outline>
</glyph>
<glyph name="four.sups" format="1">
  <advance width="508.0"/>
  <outline>
    <contour>
      <point x="193" y="83" type="curve" smooth="yes"/>
      <point x="304" y="83" type="line" smooth="yes"/>
      <point x="315" y="83"/>
      <point x="322" y="86"/>
      <point x="327" y="90" type="curve"/>
      <point x="457" y="199" type="line" smooth="yes"/>
      <point x="464" y="205"/>
      <point x="468" y="214"/>
      <point x="468" y="228" type="curve" smooth="yes"/>
      <point x="468" y="694" type="line" smooth="yes"/>
      <point x="468" y="719"/>
      <point x="458" y="730"/>
      <point x="433" y="730" type="curve" smooth="yes"/>
      <point x="322" y="730" type="line" smooth="yes"/>
      <point x="312" y="730"/>
      <point x="304" y="727"/>
      <point x="298" y="724" type="curve" smooth="yes"/>
      <point x="297" y="723" type="line"/>
      <point x="216" y="655" type="line"/>
      <point x="216" y="694" type="line" smooth="yes"/>
      <point x="216" y="719"/>
      <point x="206" y="730"/>
      <point x="181" y="730" type="curve" smooth="yes"/>
      <point x="69" y="730" type="line" smooth="yes"/>
      <point x="59" y="730"/>
      <point x="51" y="727"/>
      <point x="45" y="724" type="curve" smooth="yes"/>
      <point x="44" y="723" type="line"/>
      <point x="-85" y="614" type="line" smooth="yes"/>
      <point x="-92" y="608"/>
      <point x="-96" y="599"/>
      <point x="-96" y="585" type="curve" smooth="yes"/>
      <point x="-96" y="332" type="line" smooth="yes"/>
      <point x="-96" y="244"/>
      <point x="-57" y="203"/>
      <point x="45" y="203" type="curve" smooth="yes"/>
      <point x="157" y="203" type="line"/>
      <point x="157" y="119" type="line" smooth="yes"/>
      <point x="157" y="94"/>
      <point x="168" y="83"/>
    </contour>
  </outline>
</glyph>
